<svg width="717" height="415" viewBox="0 0 717 415" fill="none" xmlns="http://www.w3.org/2000/svg">
<path d="M415.355 130.116C415.355 140.009 407.335 148.029 397.442 148.029C387.548 148.029 379.528 140.009 379.528 130.116C379.528 120.222 387.548 112.202 397.442 112.202C407.335 112.202 415.355 120.222 415.355 130.116Z" fill="#EA96A9"/>
<path d="M107.007 302.997C107.007 312.891 98.9865 320.911 89.093 320.911C79.1995 320.911 71.1792 312.891 71.1792 302.997C71.1792 293.104 79.1995 285.083 89.093 285.083C98.9865 285.083 107.007 293.104 107.007 302.997Z" fill="#9BE5D7"/>
<path d="M670.807 247.52C670.807 257.414 662.786 265.434 652.893 265.434C642.999 265.434 634.979 257.414 634.979 247.52C634.979 237.627 642.999 229.606 652.893 229.606C662.786 229.606 670.807 237.627 670.807 247.52Z" fill="#FAE56E"/>
<path d="M406.621 130.264C406.621 135.252 402.577 139.295 397.59 139.295C392.602 139.295 388.559 135.252 388.559 130.264C388.559 125.276 392.602 121.233 397.59 121.233C402.577 121.233 406.621 125.276 406.621 130.264Z" fill="black"/>
<path d="M98.2727 303.145C98.2727 308.133 94.2293 312.177 89.2416 312.177C84.2538 312.177 80.2104 308.133 80.2104 303.145C80.2104 298.158 84.2538 294.114 89.2416 294.114C94.2293 294.114 98.2727 298.158 98.2727 303.145Z" fill="black"/>
<path d="M662.072 247.669C662.072 252.657 658.029 256.7 653.041 256.7C648.054 256.7 644.01 252.657 644.01 247.669C644.01 242.681 648.054 238.638 653.041 238.638C658.029 238.638 662.072 242.681 662.072 247.669Z" fill="black"/>
<path d="M477.372 72.2069V60.0972L477.572 56.604V56.5708H475.542V54.242H479.701L478.703 59.0659H479.701C480.566 55.0737 482.928 53.9093 485.689 53.9093C489.382 53.9093 490.846 57.0365 490.846 61.8605C490.846 62.1931 490.846 62.4926 490.813 62.792H487.852V61.8605C487.852 58.3007 487.186 56.2714 485.124 56.2714C482.762 56.2714 480.366 58.6334 480.366 63.1579V72.2069H477.372Z" fill="black"/>
<path d="M463.579 72.5396C459.32 72.5396 456.26 69.4457 456.26 63.291C456.26 57.1363 459.32 53.9093 463.579 53.9093C467.804 53.9093 470.233 57.0698 470.233 61.1951V63.6902H458.888L459.72 66.1854C459.953 68.5141 460.984 70.0445 463.579 70.0445C465.775 70.0445 466.739 68.9134 467.005 66.7176H470.066C469.467 70.5768 467.238 72.5396 463.579 72.5396ZM458.888 61.5278H467.904L467.072 59.0326C466.706 57.6354 465.841 56.2381 463.579 56.2381C461.649 56.2381 460.285 57.2694 459.72 59.0326L458.888 61.5278Z" fill="black"/>
<path d="M443.631 72.5396C439.372 72.5396 436.312 69.4457 436.312 63.291C436.312 57.1363 439.372 53.9093 443.631 53.9093C447.856 53.9093 450.284 57.0698 450.284 61.1951V63.6902H438.94L439.771 66.1854C440.004 68.5141 441.036 70.0445 443.631 70.0445C445.826 70.0445 446.791 68.9134 447.057 66.7176H450.118C449.519 70.5768 447.29 72.5396 443.631 72.5396ZM438.94 61.5278H447.955L447.124 59.0326C446.758 57.6354 445.893 56.2381 443.631 56.2381C441.701 56.2381 440.337 57.2694 439.771 59.0326L438.94 61.5278Z" fill="black"/>
<path d="M425.147 70.0445C426.478 70.0778 427.675 69.1795 427.675 66.3517H430.669C430.669 70.2109 428.008 72.5397 425.147 72.5397C422.286 72.5397 419.691 70.2109 419.691 66.3517V60.064L419.89 56.5708H416.031V54.242H419.89L419.691 50.7488V48.9191H422.685V50.7488L422.485 54.242H430.669V56.5708H422.485L422.685 60.064V66.3517C422.685 69.1795 423.816 70.0778 425.147 70.0445Z" fill="black"/>
<path d="M397.547 72.2069V60.0972L397.746 56.604V56.5708H395.75V54.242H399.875L398.877 59.0659H399.875C400.74 55.0737 402.77 53.6764 405.564 53.6764C408.924 53.6764 410.721 56.5375 410.721 60.3966V72.2069H407.727V60.3966C407.76 57.9348 406.928 56.0385 404.999 56.0385C402.603 56.0385 400.541 58.6334 400.541 63.1579V72.2069H397.547Z" fill="black"/>
<path d="M381.79 72.7727C378.43 72.7727 376.634 70.2443 376.634 66.3852V54.2422H379.628V66.3852C379.595 68.847 380.426 70.4107 382.356 70.4107C384.718 70.4107 386.781 67.8822 386.781 63.2912V54.2422H389.775V67.3832C389.775 69.1797 390.241 69.712 391.937 69.712V72.2071C389.076 72.2071 388.444 71.2424 388.444 67.3832H387.446C386.581 71.3754 384.552 72.7727 381.79 72.7727Z" fill="black"/>
<path d="M361.343 52.4456L361.543 48.9524V48.9191H356.852V46.5903H364.337V66.2187L364.138 69.7119H370.159V72.207H356.852V69.7119H361.543L361.343 66.2187V52.4456Z" fill="black"/>
<path d="M347.982 63.2577C347.982 58.4338 345.986 56.2381 343.558 56.2381C341.129 56.2381 339.133 58.4338 339.133 63.2577C339.1 68.1149 341.129 70.0445 343.558 70.0445C345.986 70.0445 348.016 68.1149 347.982 63.2577ZM336.072 63.2577C336.072 56.7704 339.466 53.9093 343.558 53.9093C347.65 53.9093 351.043 56.7704 351.043 63.2577C351.043 69.7451 347.65 72.5396 343.558 72.5396C339.466 72.5396 336.072 69.7451 336.072 63.2577Z" fill="black"/>
<path d="M321.281 72.207L315.126 48.9191H318.453L323.21 69.8782H324.208L328.932 48.9191H332.093L326.105 72.207H321.281Z" fill="black"/>
<path d="M498.318 25.7613L505.005 2.47339H507.999L501.313 25.7613H498.318Z" fill="black"/>
<path d="M483.527 26.094C479.268 26.094 476.208 23 476.208 16.8453C476.208 10.6907 479.268 7.46362 483.527 7.46362C487.752 7.46362 490.18 10.6241 490.18 14.7494V17.2445H478.836L479.667 19.7397C479.9 22.0685 480.932 23.5988 483.527 23.5988C485.722 23.5988 486.687 22.4677 486.953 20.272H490.014C489.415 24.1311 487.186 26.094 483.527 26.094ZM478.836 15.0821H487.851L487.02 12.587C486.654 11.1897 485.789 9.79241 483.527 9.79241C481.597 9.79241 480.233 10.8237 479.667 12.587L478.836 15.0821Z" fill="black"/>
<path d="M465.042 23.5989C466.373 23.6321 467.571 22.7339 467.571 19.9061H470.565C470.565 23.7652 467.903 26.094 465.042 26.094C462.181 26.094 459.586 23.7652 459.586 19.9061V13.6183L459.786 10.1251H455.927V7.79634H459.786L459.586 4.30315V2.47339H462.58V4.30315L462.381 7.79634H470.565V10.1251H462.381L462.58 13.6183V19.9061C462.58 22.7339 463.712 23.6321 465.042 23.5989Z" fill="black"/>
<path d="M441.634 26.3269C438.274 26.3269 436.478 23.7985 436.478 19.9394V7.79639H439.472V19.9394C439.438 22.4012 440.27 23.9649 442.2 23.9649C444.562 23.9649 446.624 21.4364 446.624 16.8454V7.79639H449.619V20.9374C449.619 22.7339 450.084 23.2662 451.781 23.2662V25.7613C448.92 25.7613 448.288 24.7966 448.288 20.9374H447.29C446.425 24.9296 444.395 26.3269 441.634 26.3269Z" fill="black"/>
<path d="M424.681 26.0939C422.518 26.0939 419.89 24.8963 419.025 20.9373H418.027L419.025 25.7612H416.696V0.144531H419.69V4.56924L418.027 12.6202H419.025C419.89 8.62798 421.919 7.23071 424.681 7.23071C428.374 7.23071 430.835 9.72584 430.835 16.7788C430.835 23.1996 428.041 26.0939 424.681 26.0939ZM419.69 16.7788C419.69 21.5361 421.82 23.7319 424.115 23.7319C426.045 23.7319 427.874 22.2015 427.841 16.7788C427.808 11.5223 426.178 9.59277 424.115 9.59277C421.82 9.59277 419.69 12.0214 419.69 16.7788Z" fill="black"/>
<path d="M396.083 25.7612V23.266H402.105L401.905 19.7729V13.6182L402.105 10.125H396.083V7.79622H404.899V19.7729L404.7 23.266H410.721V25.7612H396.083ZM401.739 5.13475V1.97424H405.065V5.13475H401.739Z" fill="black"/>
<path d="M377.632 25.7613V13.6516L377.831 10.1584V10.1251H375.802V7.79631H379.96L378.962 12.6202H379.96C380.825 8.62802 383.187 7.46362 385.949 7.46362C389.641 7.46362 391.105 10.5909 391.105 15.4148C391.105 15.7475 391.105 16.0469 391.072 16.3463H388.111V15.4148C388.111 11.8551 387.446 9.82568 385.383 9.82568C383.021 9.82568 380.626 12.1877 380.626 16.7123V25.7613H377.632Z" fill="black"/>
<path d="M365.303 23.5989C366.633 23.6321 367.831 22.7339 367.831 19.9061H370.825C370.825 23.7652 368.164 26.094 365.303 26.094C362.441 26.094 359.847 23.7652 359.847 19.9061V13.6183L360.046 10.1251H356.187V7.79634H360.046L359.847 4.30315V2.47339H362.841V4.30315L362.641 7.79634H370.825V10.1251H362.641L362.841 13.6183V19.9061C362.841 22.7339 363.972 23.6321 365.303 23.5989Z" fill="black"/>
<path d="M337.702 25.7612V13.6515L337.902 10.1583V10.1251H335.906V7.79628H340.031L339.033 12.6202H340.031C340.896 8.62799 342.925 7.23071 345.72 7.23071C349.08 7.23071 350.877 10.0918 350.877 13.9509V25.7612H347.882V13.9509C347.916 11.4891 347.084 9.59277 345.154 9.59277C342.759 9.59277 340.696 12.1877 340.696 16.7122V25.7612H337.702Z" fill="black"/>
<path d="M328.035 16.8121C328.035 11.9881 326.039 9.79241 323.61 9.79241C321.181 9.79241 319.185 11.9881 319.185 16.8121C319.152 21.6692 321.181 23.5988 323.61 23.5988C326.039 23.5988 328.068 21.6692 328.035 16.8121ZM316.125 16.8121C316.125 10.3247 319.518 7.46362 323.61 7.46362C327.702 7.46362 331.095 10.3247 331.095 16.8121C331.095 23.2994 327.702 26.094 323.61 26.094C319.518 26.094 316.125 23.2994 316.125 16.8121Z" fill="black"/>
<path d="M303.994 23.5988C307.121 23.5988 308.086 21.5361 308.086 16.7787H311.147C311.147 23.2328 308.751 26.0939 303.994 26.0939C299.037 26.0939 296.176 22.9334 296.176 14.1173C296.176 5.30113 299.037 2.14062 303.994 2.14062C308.751 2.14062 311.08 5.00171 311.08 10.0585H308.019C308.019 6.6984 307.121 4.46942 303.994 4.46942C300.667 4.46942 299.236 6.96455 299.236 14.1173C299.236 21.27 300.667 23.5988 303.994 23.5988Z" fill="black"/>
<path d="M141.633 414.099V401.99L141.832 398.496V398.463H139.803V396.134H143.961L142.963 400.958H143.961C144.826 396.966 147.188 395.802 149.95 395.802C153.642 395.802 155.106 398.929 155.106 403.753C155.106 404.086 155.106 404.385 155.073 404.684H152.112V403.753C152.112 400.193 151.447 398.164 149.384 398.164C147.022 398.164 144.627 400.526 144.627 405.05V414.099H141.633Z" fill="black"/>
<path d="M127.84 414.432C123.581 414.432 120.521 411.338 120.521 405.183C120.521 399.029 123.581 395.802 127.84 395.802C132.065 395.802 134.493 398.962 134.493 403.088V405.583H123.149L123.98 408.078C124.213 410.407 125.245 411.937 127.84 411.937C130.035 411.937 131 410.806 131.266 408.61H134.327C133.728 412.469 131.499 414.432 127.84 414.432ZM123.149 403.42H132.164L131.333 400.925C130.967 399.528 130.102 398.131 127.84 398.131C125.91 398.131 124.546 399.162 123.98 400.925L123.149 403.42Z" fill="black"/>
<path d="M108.889 414.432C106.726 414.432 104.098 413.234 103.233 409.275H102.235L103.233 414.099H100.904V388.483H103.898V392.907L102.235 400.958H103.233C104.098 396.966 106.127 395.569 108.889 395.569C112.582 395.569 115.043 398.064 115.043 405.117C115.043 411.538 112.249 414.432 108.889 414.432ZM103.898 405.117C103.898 409.874 106.028 412.07 108.323 412.07C110.253 412.07 112.082 410.54 112.049 405.117C112.016 399.86 110.386 397.931 108.323 397.931C106.028 397.931 103.898 400.36 103.898 405.117Z" fill="black"/>
<path d="M93.2659 402.522C93.2659 399.528 92.9332 398.164 91.9351 398.164C90.9038 398.164 89.2737 399.594 89.2737 405.283V414.099H86.6122V402.522C86.6122 399.029 86.213 398.164 85.348 398.164C84.4165 398.164 82.62 399.594 82.62 405.283V414.099H79.6258V401.99L79.8254 398.496V398.463H78.9604V396.134H81.9546L80.9566 400.958H81.9546C82.8861 396.567 84.3832 395.802 85.7805 395.802C87.2776 395.802 87.9429 397.066 87.9429 398.663C87.9429 399.461 87.8431 400.326 87.6435 401.191H88.6416C89.3069 396.866 90.804 395.802 92.5007 395.802C95.0291 395.802 96.0937 398.131 96.0937 402.356V414.099H93.2659V402.522Z" fill="black"/>
<path d="M67.9948 414.432C63.7365 414.432 60.6758 411.338 60.6758 405.183C60.6758 399.029 63.7365 395.802 67.9948 395.802C72.2199 395.802 74.6485 398.962 74.6485 403.088V405.583H63.304L64.1357 408.078C64.3686 410.407 65.3999 411.937 67.9948 411.937C70.1906 411.937 71.1553 410.806 71.4215 408.61H74.4822C73.8834 412.469 71.6544 414.432 67.9948 414.432ZM63.304 403.42H72.3197L71.488 400.925C71.1221 399.528 70.2571 398.131 67.9948 398.131C66.0653 398.131 64.7013 399.162 64.1357 400.925L63.304 403.42Z" fill="black"/>
<path d="M40.0625 414.099V390.811H44.8532L47.2152 402.854H48.2133L50.5753 390.811H55.366V414.099H52.3718V405.183L53.1703 393.14H52.1722L49.7436 405.183H45.6849L43.2563 393.14H42.2582L43.0567 405.183V414.099H40.0625Z" fill="black"/>
<path d="M5.25641 414.432C2.09591 414.432 0 411.937 0 409.209C0 405.716 2.29552 404.052 4.89046 404.052C6.75349 404.052 8.88268 405.25 10.2467 407.113H11.0119L10.4796 402.289C10.4796 398.962 9.18209 398.131 7.55194 398.131C4.82392 398.131 4.4247 400.426 4.4247 402.289H1.43054C1.43054 397.964 3.7926 395.802 7.55194 395.802C11.3113 395.802 13.4405 397.997 13.4737 402.289V409.275C13.4737 411.072 13.9395 411.604 15.6362 411.604V414.099C12.7751 414.099 12.143 413.135 12.143 409.275H11.1449C10.4796 411.97 7.95116 414.432 5.25641 414.432ZM2.92762 409.209C2.92762 411.072 3.75933 411.937 5.25641 411.937C6.8533 411.937 8.91594 410.839 9.74765 407.978C8.28384 406.581 6.75349 405.982 5.6889 405.982C3.99221 405.982 2.92762 407.08 2.92762 409.209Z" fill="black"/>
<path d="M127.84 367.986C123.581 367.986 120.521 364.892 120.521 358.738C120.521 352.583 123.581 349.356 127.84 349.356C132.065 349.356 134.493 352.516 134.493 356.642V359.137H123.149L123.98 361.632C124.213 363.961 125.245 365.491 127.84 365.491C130.035 365.491 131 364.36 131.266 362.164H134.327C133.728 366.023 131.499 367.986 127.84 367.986ZM123.149 356.974H132.164L131.333 354.479C130.967 353.082 130.102 351.685 127.84 351.685C125.91 351.685 124.546 352.716 123.98 354.479L123.149 356.974Z" fill="black"/>
<path d="M113.214 356.076C113.214 353.082 112.881 351.718 111.883 351.718C110.852 351.718 109.222 353.148 109.222 358.837V367.653H106.56V356.076C106.56 352.583 106.161 351.718 105.296 351.718C104.365 351.718 102.568 353.148 102.568 358.837V367.653H99.5741V355.544L99.7737 352.051V352.017H98.9087V349.689H101.903L100.905 354.512H101.903C102.834 350.121 104.331 349.356 105.729 349.356C107.226 349.356 107.891 350.62 107.891 352.217C107.891 353.015 107.791 353.88 107.592 354.745H108.59C109.255 350.42 110.752 349.356 112.449 349.356C114.977 349.356 116.042 351.685 116.042 355.91V367.653H113.214V356.076Z" fill="black"/>
<path d="M92.0346 358.704C92.0346 353.88 90.0385 351.685 87.6099 351.685C85.1813 351.685 83.1852 353.88 83.1852 358.704C83.1519 363.561 85.1813 365.491 87.6099 365.491C90.0385 365.491 92.0679 363.561 92.0346 358.704ZM80.1245 358.704C80.1245 352.217 83.5179 349.356 87.6099 349.356C91.7019 349.356 95.0953 352.217 95.0953 358.704C95.0953 365.192 91.7019 367.986 87.6099 367.986C83.5179 367.986 80.1245 365.192 80.1245 358.704Z" fill="black"/>
<path d="M60.5098 358.704C60.5098 352.55 63.7368 349.356 68.1615 349.356C72.4199 349.356 75.0813 352.283 75.0813 356.342H72.0872C72.0872 353.98 70.7897 351.685 68.1615 351.685C65.4002 351.685 63.5705 354.213 63.5705 358.704C63.5372 363.229 65.4002 365.491 68.1615 365.491C70.7897 365.491 72.1537 363.595 72.1537 360.501H75.1479C75.1479 365.291 72.2868 367.986 68.1615 367.986C63.7368 367.986 60.5098 364.859 60.5098 358.704Z" fill="black"/>
<path d="M48.0466 367.986C43.7882 367.986 40.7275 364.892 40.7275 358.738C40.7275 352.583 43.7882 349.356 48.0466 349.356C52.2717 349.356 54.7003 352.516 54.7003 356.642V359.137H43.3557L44.1875 361.632C44.4203 363.961 45.4517 365.491 48.0466 365.491C50.2423 365.491 51.2071 364.36 51.4732 362.164H54.5339C53.9351 366.023 51.7061 367.986 48.0466 367.986ZM43.3557 356.974H52.3715L51.5398 354.479C51.1738 353.082 50.3088 351.685 48.0466 351.685C46.117 351.685 44.753 352.716 44.1875 354.479L43.3557 356.974Z" fill="black"/>
<path d="M20.7798 367.654V344.366H29.23C32.3905 344.366 34.0872 347.227 34.0872 349.855C34.0872 352.25 32.6566 354.18 30.3278 354.18V355.178C33.7545 355.178 35.5842 357.873 35.5842 360.634C35.5842 364.094 33.1889 367.654 28.0988 367.654H20.7798ZM23.6076 365.291L27.2671 365.325C31.0597 365.358 32.5901 362.929 32.5901 360.634C32.5901 358.172 30.8601 355.843 27.2671 355.843H23.6076L23.7739 359.004V362.164L23.6076 365.291ZM23.6076 353.514H27.2671C29.8621 353.514 31.093 351.651 31.093 349.855C31.093 348.225 30.095 346.694 28.0988 346.694H23.6076L23.7739 349.855V350.354L23.6076 353.514Z" fill="black"/>
<path d="M710.346 321.54C706.088 321.54 703.027 318.447 703.027 312.292C703.027 306.137 706.088 302.91 710.346 302.91C714.571 302.91 717 306.071 717 310.196V312.691H705.656L706.487 315.186C706.72 317.515 707.751 319.045 710.346 319.045C712.542 319.045 713.507 317.914 713.773 315.719H716.834C716.235 319.578 714.006 321.54 710.346 321.54ZM705.656 310.529H714.671L713.84 308.033C713.474 306.636 712.609 305.239 710.346 305.239C708.417 305.239 707.053 306.27 706.487 308.033L705.656 310.529Z" fill="black"/>
<path d="M691.862 319.045C693.193 319.079 694.391 318.18 694.391 315.353H697.385C697.385 319.212 694.723 321.541 691.862 321.541C689.001 321.541 686.406 319.212 686.406 315.353V309.065L686.606 305.572H682.747V303.243H686.606L686.406 299.75V297.92H689.4V299.75L689.201 303.243H697.385V305.572H689.201L689.4 309.065V315.353C689.4 318.18 690.531 319.079 691.862 319.045Z" fill="black"/>
<path d="M667.555 321.54C664.395 321.54 662.299 319.045 662.299 316.317C662.299 312.824 664.594 311.161 667.189 311.161C669.052 311.161 671.182 312.358 672.546 314.221H673.311L672.778 309.398C672.778 306.071 671.481 305.239 669.851 305.239C667.123 305.239 666.724 307.534 666.724 309.398H663.729C663.729 305.073 666.091 302.91 669.851 302.91C673.61 302.91 675.739 305.106 675.773 309.398V316.384C675.773 318.18 676.238 318.713 677.935 318.713V321.208C675.074 321.208 674.442 320.243 674.442 316.384H673.444C672.778 319.079 670.25 321.54 667.555 321.54ZM665.226 316.317C665.226 318.18 666.058 319.045 667.555 319.045C669.152 319.045 671.215 317.947 672.046 315.086C670.583 313.689 669.052 313.09 667.988 313.09C666.291 313.09 665.226 314.188 665.226 316.317Z" fill="black"/>
<path d="M644.314 321.208V309.098L644.514 305.605V305.572H642.518V303.243H646.643L645.645 308.067H646.643C647.508 304.075 649.537 302.677 652.332 302.677C655.692 302.677 657.488 305.538 657.488 309.397V321.208H654.494V309.397C654.527 306.936 653.696 305.039 651.766 305.039C649.371 305.039 647.308 307.634 647.308 312.159V321.208H644.314Z" fill="black"/>
<path d="M634.646 312.259C634.646 307.435 632.65 305.239 630.222 305.239C627.793 305.239 625.797 307.435 625.797 312.259C625.764 317.116 627.793 319.045 630.222 319.045C632.65 319.045 634.68 317.116 634.646 312.259ZM622.736 312.259C622.736 305.771 626.13 302.91 630.222 302.91C634.314 302.91 637.707 305.771 637.707 312.259C637.707 318.746 634.314 321.54 630.222 321.54C626.13 321.54 622.736 318.746 622.736 312.259Z" fill="black"/>
<path d="M603.121 321.208V297.92H609.109C614.299 297.92 617.759 302.245 617.759 308.699C617.759 316.218 614.299 321.208 609.109 321.208H603.121ZM605.915 318.879H609.109C612.469 318.879 614.731 314.82 614.731 308.699C614.731 303.642 612.469 300.249 609.109 300.249H605.915L606.115 303.409V315.719L605.915 318.879Z" fill="black"/>
<path fill-rule="evenodd" clip-rule="evenodd" d="M393.636 128.457L656.588 247.38L89.4039 304.75L88.4453 301.743L393.636 128.457ZM393.802 132.072L96.6893 300.771L644.334 245.377L393.802 132.072Z" fill="black"/>
</svg>
