<svg width="425" height="601" viewBox="0 0 425 601" fill="none" xmlns="http://www.w3.org/2000/svg">
<path d="M28.6823 586.341C28.6823 594.262 22.2615 600.682 14.3412 600.682C6.42075 600.682 0 594.262 0 586.341C0 578.421 6.42075 572 14.3412 572C22.2615 572 28.6823 578.421 28.6823 586.341Z" fill="#EA96A9"/>
<path d="M173.682 462.341C173.682 470.262 167.262 476.682 159.341 476.682C151.421 476.682 145 470.262 145 462.341C145 454.421 151.421 448 159.341 448C167.262 448 173.682 454.421 173.682 462.341Z" fill="#EA96A9"/>
<path d="M384.682 123.341C384.682 131.262 378.262 137.682 370.341 137.682C362.421 137.682 356 131.262 356 123.341C356 115.421 362.421 109 370.341 109C378.262 109 384.682 115.421 384.682 123.341Z" fill="#EA96A9"/>
<path d="M80.6823 180.341C80.6823 188.262 74.2615 194.682 66.3412 194.682C58.4208 194.682 52 188.262 52 180.341C52 172.421 58.4208 166 66.3412 166C74.2615 166 80.6823 172.421 80.6823 180.341Z" fill="#9BE5D7"/>
<path d="M424.682 14.3412C424.682 22.2615 418.262 28.6823 410.341 28.6823C402.421 28.6823 396 22.2615 396 14.3412C396 6.42075 402.421 0 410.341 0C418.262 0 424.682 6.42075 424.682 14.3412Z" fill="#9BE5D7"/>
<path d="M140.682 540.341C140.682 548.262 134.262 554.682 126.341 554.682C118.421 554.682 112 548.262 112 540.341C112 532.421 118.421 526 126.341 526C134.262 526 140.682 532.421 140.682 540.341Z" fill="#9BE5D7"/>
<path d="M285.682 284.341C285.682 292.262 279.262 298.682 271.341 298.682C263.421 298.682 257 292.262 257 284.341C257 276.421 263.421 270 271.341 270C279.262 270 285.682 276.421 285.682 284.341Z" fill="#9BE5D7"/>
<path d="M285.682 84.3412C285.682 92.2615 279.262 98.6823 271.341 98.6823C263.421 98.6823 257 92.2615 257 84.3412C257 76.4208 263.421 70 271.341 70C279.262 70 285.682 76.4208 285.682 84.3412Z" fill="#FAE56E"/>
<path d="M399.682 212.341C399.682 220.262 393.262 226.682 385.341 226.682C377.421 226.682 371 220.262 371 212.341C371 204.421 377.421 198 385.341 198C393.262 198 399.682 204.421 399.682 212.341Z" fill="#FAE56E"/>
<path d="M54.6823 482.341C54.6823 490.262 48.2615 496.682 40.3412 496.682C32.4208 496.682 26 490.262 26 482.341C26 474.421 32.4208 468 40.3412 468C48.2615 468 54.6823 474.421 54.6823 482.341Z" fill="#FAE56E"/>
<path fill-rule="evenodd" clip-rule="evenodd" d="M48.5184 485.26C46.7179 489.412 41.8922 491.319 37.7398 489.518C33.5874 487.718 31.6808 482.892 33.4813 478.74C35.0728 475.069 39.0283 473.153 42.793 474.002L116.604 303.775C113.411 301.607 112.106 297.41 113.698 293.74C115.498 289.587 120.324 287.681 124.476 289.481C128.629 291.282 130.535 296.107 128.735 300.26C127.143 303.93 123.188 305.846 119.423 304.998L45.6124 475.224C48.8049 477.393 50.11 481.589 48.5184 485.26Z" fill="black"/>
<path fill-rule="evenodd" clip-rule="evenodd" d="M188.046 290.105L120.878 295.441L121.122 298.504L188.289 293.169C189.306 296.891 192.854 299.486 196.842 299.169C201.354 298.81 204.721 294.862 204.363 290.351C204.004 285.839 200.056 282.472 195.544 282.83C191.556 283.147 188.463 286.269 188.046 290.105Z" fill="black"/>
<path fill-rule="evenodd" clip-rule="evenodd" d="M263.046 283.105L195.878 288.441L196.122 291.504L263.289 286.169C264.306 289.891 267.854 292.486 271.842 292.169C276.354 291.81 279.721 287.862 279.363 283.351C279.004 278.839 275.056 275.472 270.544 275.83C266.556 276.147 263.463 279.269 263.046 283.105Z" fill="black"/>
<path fill-rule="evenodd" clip-rule="evenodd" d="M364.599 129.166L272.675 285.797L275.325 287.353L367.25 130.721C370.884 132.02 375.042 130.598 377.067 127.148C379.358 123.245 378.051 118.223 374.148 115.932C370.244 113.641 365.223 114.949 362.932 118.852C360.907 122.302 361.694 126.626 364.599 129.166Z" fill="black"/>
<path fill-rule="evenodd" clip-rule="evenodd" d="M150.806 462.802L40.7484 481.059L41.2513 484.091L151.309 465.833C152.639 469.456 156.394 471.739 160.341 471.084C164.806 470.344 167.825 466.124 167.084 461.659C166.344 457.194 162.124 454.175 157.659 454.916C153.712 455.57 150.895 458.944 150.806 462.802Z" fill="black"/>
<path fill-rule="evenodd" clip-rule="evenodd" d="M276.751 88.649L369.381 129.406L370.619 126.594L277.988 85.8361C278.857 82.076 276.962 78.1103 273.301 76.4991C269.158 74.6763 264.322 76.5569 262.499 80.6996C260.676 84.8423 262.557 89.6782 266.7 91.501C270.362 93.1122 274.565 91.8297 276.751 88.649Z" fill="black"/>
<path fill-rule="evenodd" clip-rule="evenodd" d="M368.464 26.0511L368.464 123L371.537 123L371.537 26.0511C375.328 25.3319 378.195 22.0008 378.195 18C378.195 13.4741 374.526 9.80505 370 9.80505C365.474 9.80505 361.805 13.4741 361.805 18C361.805 22.0008 364.672 25.3319 368.464 26.0511Z" fill="black"/>
<path fill-rule="evenodd" clip-rule="evenodd" d="M405.72 23.9904L368.563 122.458L371.438 123.543L408.595 25.0754C412.397 25.7411 416.255 23.6366 417.667 19.8935C419.265 15.659 417.128 10.9309 412.893 9.33301C408.659 7.73509 403.931 9.87246 402.333 14.1069C400.921 17.85 402.427 21.9789 405.72 23.9904Z" fill="black"/>
<path fill-rule="evenodd" clip-rule="evenodd" d="M120.122 534.288L41.8451 482.717L40.1544 485.283L118.431 536.854C116.946 540.416 118.15 544.642 121.491 546.843C125.271 549.333 130.353 548.288 132.843 544.509C135.333 540.729 134.288 535.647 130.508 533.157C127.167 530.956 122.808 531.517 120.122 534.288Z" fill="black"/>
<path fill-rule="evenodd" clip-rule="evenodd" d="M19.3924 578.539L42.4933 483.363L39.507 482.638L16.406 577.814C12.5518 577.618 8.98009 580.179 8.03643 584.067C6.9689 588.465 9.66897 592.896 14.0672 593.964C18.4654 595.031 22.8963 592.331 23.9639 587.933C24.9075 584.045 22.9072 580.132 19.3924 578.539Z" fill="black"/>
<path fill-rule="evenodd" clip-rule="evenodd" d="M378.36 213.968L269.185 282.273L270.815 284.878L379.989 216.573C382.61 219.406 386.955 220.069 390.346 217.947C394.183 215.547 395.348 210.49 392.947 206.653C390.547 202.817 385.49 201.652 381.653 204.053C378.262 206.175 376.958 210.372 378.36 213.968Z" fill="black"/>
<path fill-rule="evenodd" clip-rule="evenodd" d="M68.9637 187.958L119.603 298.217L122.396 296.934L71.7564 186.675C74.9017 184.439 76.1166 180.215 74.4469 176.58C72.5579 172.467 67.6924 170.664 63.5795 172.553C59.4666 174.442 57.6638 179.308 59.5527 183.42C61.2225 187.056 65.2181 188.887 68.9637 187.958Z" fill="black"/>
</svg>
