<svg viewBox="0 0 180 179" fill="none" xmlns="http://www.w3.org/2000/svg">
<path d="M33.1756 178.167C33.268 178.576 33.6746 178.833 34.0837 178.741L40.7511 177.235C41.1603 177.143 41.4171 176.736 41.3247 176.327C41.2323 175.918 40.8257 175.661 40.4166 175.754L34.49 177.092L33.1518 171.165C33.0594 170.756 32.6529 170.499 32.2437 170.592C31.8346 170.684 31.5778 171.091 31.6702 171.5L33.1756 178.167ZM145.067 0.594439L33.2743 177.594L34.5586 178.406L146.351 1.40556L145.067 0.594439Z" fill="black"/>
<path d="M0.798898 42.4005C0.394444 42.5116 0.156642 42.9295 0.26775 43.334L2.07849 49.9251C2.1896 50.3295 2.60755 50.5673 3.01202 50.4562C3.41647 50.3451 3.65427 49.9271 3.54316 49.5227L1.93362 43.664L7.79234 42.0544C8.19679 41.9433 8.4346 41.5253 8.32349 41.1209C8.21236 40.7164 7.79441 40.4786 7.38996 40.5897L0.798898 42.4005ZM154.108 129.372L1.37567 42.4727L0.624516 43.7929L153.356 130.692L154.108 129.372Z" fill="black"/>
<path d="M179.63 69.8514C179.843 69.4901 179.723 69.0245 179.361 68.8115L173.473 65.3404C173.112 65.1274 172.646 65.2476 172.433 65.609C172.22 65.9703 172.34 66.4359 172.702 66.6489L177.936 69.7343L174.85 74.9684C174.637 75.3297 174.758 75.7953 175.119 76.0083C175.48 76.2213 175.946 76.1011 176.159 75.7397L179.63 69.8514ZM10.4065 113.785L179.166 70.2011L178.786 68.7304L10.0266 112.314L10.4065 113.785Z" fill="black"/>
<path d="M63.5413 20.7499L108.966 158.34" stroke="black" stroke-width="1.51895"/>
<circle cx="68.1494" cy="33.9164" r="6.58327" fill="black"/>
<circle cx="102.382" cy="141.882" r="7.89992" fill="black"/>
<circle cx="54.2723" cy="146.583" r="6.58327" transform="rotate(13.6491 54.2723 146.583)" fill="black"/>
<circle cx="47.0828" cy="69.4658" r="3.94996" fill="black"/>
<circle cx="26.301" cy="109.502" r="5.92494" transform="rotate(-10.1486 26.301 109.502)" fill="black"/>
<circle cx="134.64" cy="117.524" r="5.92494" fill="black"/>
<circle cx="127.698" cy="28.9488" r="4.60829" transform="rotate(13.6491 127.698 28.9488)" fill="black"/>
<circle cx="140.026" cy="79.7823" r="4.60829" transform="rotate(-10.1486 140.026 79.7823)" fill="black"/>
</svg>
