<svg viewBox="0 0 151 148" fill="none" xmlns="http://www.w3.org/2000/svg">
<path d="M5.52783 110.775C2.93004 110.775 0.824115 112.881 0.824115 115.478C0.824114 118.076 2.93004 120.182 5.52783 120.182C8.12562 120.182 10.2315 118.076 10.2315 115.478C10.2315 112.881 8.12562 110.775 5.52783 110.775ZM4.64589 22.5801L4.64588 115.478L6.40977 115.478L6.40978 22.5801L4.64589 22.5801Z" fill="black"/>
<path d="M56.5231 140.559C55.4375 142.919 56.4706 145.712 58.8307 146.798C61.1908 147.884 63.9841 146.851 65.0697 144.49C66.1553 142.13 65.1222 139.337 62.7621 138.251C60.4021 137.166 57.6088 138.199 56.5231 140.559ZM1.63143 116.28L60.4278 143.326L61.165 141.724L2.36857 114.677L1.63143 116.28Z" fill="black"/>
<path d="M52.675 104.731C53.2338 107.268 55.7434 108.871 58.2804 108.313C60.8174 107.754 62.421 105.244 61.8622 102.707C61.3035 100.17 58.7939 98.5667 56.2569 99.1255C53.7199 99.6843 52.1162 102.194 52.675 104.731ZM2.1897 116.753L57.4583 104.58L57.0789 102.858L1.8103 115.031L2.1897 116.753Z" fill="black"/>
<path d="M97.2504 142.572C97.2765 145.17 99.4035 147.254 102.001 147.228C104.599 147.202 106.683 145.075 106.657 142.477C106.631 139.88 104.504 137.795 101.907 137.821C99.3089 137.847 97.2243 139.974 97.2504 142.572ZM60.8053 143.82L101.963 143.407L101.945 141.643L60.7875 142.057L60.8053 143.82Z" fill="black"/>
<path d="M60.7964 104.133L101.954 142.525" stroke="black" stroke-width="1.76389"/>
<path d="M68.0369 1.41333L57.2686 103.719" stroke="black" stroke-width="1.76389"/>
<path d="M102.139 62.5616L60.7963 142.525" stroke="black" stroke-width="1.76389"/>
<path d="M148 22.5801L101.954 142.525" stroke="black" stroke-width="1.76389"/>
<path d="M1.01345 24.4393C1.74307 26.9325 4.3557 28.3622 6.84893 27.6325C9.34215 26.9029 10.7718 24.2903 10.0422 21.7971C9.31259 19.3038 6.69996 17.8742 4.20674 18.6038C1.71351 19.3334 0.283831 21.946 1.01345 24.4393ZM63.1272 6.26221C63.8568 8.75543 66.4695 10.1851 68.9627 9.4555C71.4559 8.72588 72.8856 6.11325 72.156 3.62002C71.4263 1.1268 68.8137 -0.302883 66.3205 0.426737C63.8273 1.15636 62.3976 3.76899 63.1272 6.26221ZM5.77554 23.9646L67.8893 5.78756L67.3939 4.09467L5.28013 22.2717L5.77554 23.9646Z" fill="black"/>
<path d="M97.6167 60.7411C96.6112 63.1364 97.738 65.8933 100.133 66.8988C102.529 67.9042 105.285 66.7775 106.291 64.3822C107.296 61.9868 106.17 59.23 103.774 58.2245C101.379 57.2191 98.6221 58.3458 97.6167 60.7411ZM6.36227 23.3933L101.612 63.3749L102.295 61.7484L7.04496 21.7669L6.36227 23.3933Z" fill="black"/>
<path d="M140.877 21.5376C140.301 24.0708 141.888 26.5911 144.421 27.1668C146.954 27.7426 149.474 26.1557 150.05 23.6225C150.626 21.0893 149.039 18.5691 146.506 17.9933C143.973 17.4176 141.452 19.0045 140.877 21.5376ZM67.6566 5.80118L145.268 23.4401L145.659 21.7201L68.0475 4.08115L67.6566 5.80118Z" fill="black"/>
<path d="M102.542 63.1495L144.287 23.168" stroke="black" stroke-width="1.76389"/>
</svg>
