<svg width="610" height="806" viewBox="0 0 610 806" fill="none" xmlns="http://www.w3.org/2000/svg">
<circle cx="109.758" cy="106.54" r="16.4639" transform="rotate(-16.4121 109.758 106.54)" fill="#9BE5D7"/>
<circle cx="16.4639" cy="16.4639" r="16.4639" transform="matrix(-0.959254 0.282544 0.282544 0.959254 319.182 26.6494)" fill="#EA96A9"/>
<circle cx="162.367" cy="140.041" r="16.4639" transform="rotate(-16.4121 162.367 140.041)" fill="#9BE5D7"/>
<circle cx="16.4639" cy="16.4639" r="16.4639" transform="matrix(-0.959254 0.282544 0.282544 0.959254 293.132 83.3188)" fill="#EA96A9"/>
<circle cx="208.484" cy="169.198" r="16.4639" transform="rotate(-16.4121 208.484 169.198)" fill="#9BE5D7"/>
<circle cx="16.4639" cy="16.4639" r="16.4639" transform="matrix(-0.959254 0.282544 0.282544 0.959254 270.183 132.82)" fill="#EA96A9"/>
<circle cx="276.166" cy="214.939" r="16.4639" transform="rotate(-16.4121 276.166 214.939)" fill="#9BE5D7"/>
<circle cx="16.4639" cy="16.4639" r="16.4639" transform="matrix(-0.959254 0.282544 0.282544 0.959254 238.103 207.945)" fill="#EA96A9"/>
<circle cx="316.751" cy="239.472" r="16.4639" transform="rotate(-16.4121 316.751 239.472)" fill="#9BE5D7"/>
<circle cx="16.4639" cy="16.4639" r="16.4639" transform="matrix(-0.959254 0.282544 0.282544 0.959254 217.295 250.561)" fill="#EA96A9"/>
<circle cx="359.708" cy="268.518" r="16.4639" transform="rotate(-16.4121 359.708 268.518)" fill="#9BE5D7"/>
<circle cx="16.4639" cy="16.4639" r="16.4639" transform="matrix(-0.959254 0.282544 0.282544 0.959254 196.941 298.254)" fill="#EA96A9"/>
<circle cx="405.825" cy="297.676" r="16.4639" transform="rotate(-16.4121 405.825 297.676)" fill="#9BE5D7"/>
<circle cx="16.4639" cy="16.4639" r="16.4639" transform="matrix(-0.959254 0.282544 0.282544 0.959254 173.993 347.755)" fill="#EA96A9"/>
<circle cx="453.185" cy="327.51" r="16.4639" transform="rotate(-16.4121 453.185 327.51)" fill="#9BE5D7"/>
<circle cx="16.4639" cy="16.4639" r="16.4639" transform="matrix(-0.959254 0.282544 0.282544 0.959254 150.367 398.498)" fill="#EA96A9"/>
<circle cx="493.487" cy="351.084" r="16.4639" transform="rotate(-16.4121 493.487 351.084)" fill="#9BE5D7"/>
<circle cx="16.4639" cy="16.4639" r="16.4639" transform="matrix(-0.959254 0.282544 0.282544 0.959254 129.277 440.154)" fill="#EA96A9"/>
<circle cx="471.104" cy="402.503" r="16.4639" transform="rotate(-16.4121 471.104 402.503)" fill="#9BE5D7"/>
<circle cx="16.4639" cy="16.4639" r="16.4639" transform="matrix(-0.959254 0.282544 0.282544 0.959254 175.96 471.23)" fill="#EA96A9"/>
<circle cx="445.56" cy="453.811" r="16.4639" transform="rotate(-16.4121 445.56 453.811)" fill="#9BE5D7"/>
<circle cx="16.4639" cy="16.4639" r="16.4639" transform="matrix(-0.959254 0.282544 0.282544 0.959254 225.238 500.5)" fill="#EA96A9"/>
<circle cx="418.268" cy="509.804" r="16.4639" transform="rotate(-16.4121 418.268 509.804)" fill="#9BE5D7"/>
<circle cx="16.4639" cy="16.4639" r="16.4639" transform="matrix(-0.959254 0.282544 0.282544 0.959254 278.523 532.759)" fill="#EA96A9"/>
<circle cx="395.49" cy="563.424" r="16.4639" transform="rotate(-16.4121 395.49 563.424)" fill="#9BE5D7"/>
<circle cx="16.4639" cy="16.4639" r="16.4639" transform="matrix(-0.959254 0.282544 0.282544 0.959254 326.73 565.471)" fill="#EA96A9"/>
<circle cx="401.615" cy="640.848" r="16.4639" transform="rotate(-16.4121 401.615 640.848)" fill="#EA96A9"/>
<circle cx="16.4639" cy="16.4639" r="16.4639" transform="matrix(-0.959254 0.282544 0.282544 0.959254 363.552 633.854)" fill="#9BE5D7"/>
<circle cx="448.521" cy="665.604" r="16.4639" transform="rotate(-16.4121 448.521 665.604)" fill="#EA96A9"/>
<circle cx="16.4639" cy="16.4639" r="16.4639" transform="matrix(-0.959254 0.282544 0.282544 0.959254 337.554 680.083)" fill="#9BE5D7"/>
<circle cx="502.372" cy="699.781" r="16.4639" transform="rotate(-16.4121 502.372 699.781)" fill="#EA96A9"/>
<circle cx="16.4639" cy="16.4639" r="16.4639" transform="matrix(-0.959254 0.282544 0.282544 0.959254 310.828 737.994)" fill="#9BE5D7"/>
<path d="M108.891 106.312L493.377 352.354L301.086 758.828" stroke="black" stroke-width="3.5"/>
<path d="M308.997 47.3716L119.269 462.546L501.193 699.888" stroke="black" stroke-width="3.5"/>
<path d="M101.188 108.581C102.644 113.526 107.833 116.353 112.778 114.897C117.722 113.44 120.55 108.251 119.094 103.307C117.637 98.3621 112.448 95.5344 107.504 96.9908C102.559 98.4472 99.7312 103.636 101.188 108.581ZM299.753 50.0943C301.21 55.039 306.399 57.8667 311.343 56.4103C316.288 54.9539 319.116 49.7648 317.659 44.8202C316.203 39.8756 311.014 37.0478 306.069 38.5042C301.125 39.9606 298.297 45.1497 299.753 50.0943ZM110.635 107.623L309.201 49.136L308.212 45.7786L109.646 104.265L110.635 107.623Z" fill="black"/>
<path d="M151.879 142.646C153.335 147.591 158.524 150.419 163.469 148.962C168.413 147.506 171.241 142.317 169.785 137.372C168.328 132.428 163.139 129.6 158.194 131.056C153.25 132.513 150.422 137.702 151.879 142.646ZM273.704 106.763C275.16 111.708 280.349 114.536 285.294 113.079C290.239 111.623 293.066 106.434 291.61 101.489C290.153 96.5445 284.964 93.7167 280.02 95.1732C275.075 96.6296 272.247 101.819 273.704 106.763ZM161.326 141.688L283.151 105.805L282.162 102.448L160.337 138.331L161.326 141.688Z" fill="black"/>
<path d="M198.955 171.522C200.412 176.466 205.601 179.294 210.545 177.838C215.49 176.381 218.318 171.192 216.861 166.248C215.405 161.303 210.216 158.475 205.271 159.932C200.326 161.388 197.499 166.577 198.955 171.522ZM248.836 156.83C250.293 161.774 255.482 164.602 260.427 163.146C265.371 161.689 268.199 156.5 266.742 151.555C265.286 146.611 260.097 143.783 255.152 145.239C250.208 146.696 247.38 151.885 248.836 156.83ZM208.403 170.563L258.284 155.871L257.295 152.514L207.414 167.206L208.403 170.563Z" fill="black"/>
<path d="M218.674 231.39C220.13 236.334 225.319 239.162 230.264 237.705C235.209 236.249 238.036 231.06 236.58 226.115C235.124 221.171 229.935 218.343 224.99 219.799C220.045 221.256 217.217 226.445 218.674 231.39ZM266.637 217.262C268.093 222.207 273.282 225.035 278.227 223.578C283.171 222.122 285.999 216.933 284.543 211.988C283.086 207.044 277.897 204.216 272.953 205.672C268.008 207.129 265.18 212.318 266.637 217.262ZM228.121 230.431L276.084 216.304L275.095 212.947L227.133 227.074L228.121 230.431Z" fill="black"/>
<path d="M197.867 274.005C199.323 278.949 204.512 281.777 209.457 280.321C214.402 278.864 217.229 273.675 215.773 268.731C214.316 263.786 209.127 260.958 204.183 262.415C199.238 263.871 196.41 269.06 197.867 274.005ZM307.222 241.795C308.678 246.739 313.867 249.567 318.812 248.111C323.757 246.654 326.584 241.465 325.128 236.521C323.671 231.576 318.482 228.748 313.538 230.205C308.593 231.661 305.765 236.85 307.222 241.795ZM207.314 273.046L316.669 240.836L315.68 237.479L206.325 269.689L207.314 273.046Z" fill="black"/>
<path d="M175.594 322.264C177.051 327.209 182.24 330.036 187.184 328.58C192.129 327.124 194.957 321.935 193.5 316.99C192.044 312.045 186.855 309.217 181.91 310.674C176.966 312.13 174.138 317.319 175.594 322.264ZM352.097 270.276C353.554 275.221 358.743 278.048 363.687 276.592C368.632 275.135 371.46 269.946 370.003 265.002C368.547 260.057 363.358 257.229 358.413 258.686C353.468 260.142 350.641 265.331 352.097 270.276ZM185.042 321.306L361.545 269.318L360.556 265.96L184.053 317.948L185.042 321.306Z" fill="black"/>
<path d="M153.605 371.483C155.061 376.427 160.251 379.255 165.195 377.799C170.14 376.342 172.968 371.153 171.511 366.209C170.055 361.264 164.866 358.436 159.921 359.893C154.976 361.349 152.149 366.538 153.605 371.483ZM396.296 299.999C397.753 304.944 402.942 307.772 407.887 306.315C412.831 304.859 415.659 299.67 414.203 294.725C412.746 289.78 407.557 286.953 402.612 288.409C397.668 289.865 394.84 295.055 396.296 299.999ZM163.053 370.524L405.744 299.041L404.755 295.683L162.064 367.167L163.053 370.524Z" fill="black"/>
<path d="M129.303 423.467C130.759 428.412 135.948 431.24 140.893 429.783C145.838 428.327 148.665 423.138 147.209 418.193C145.752 413.248 140.563 410.421 135.619 411.877C130.674 413.333 127.846 418.523 129.303 423.467ZM445.857 330.228C447.313 335.172 452.502 338 457.447 336.544C462.392 335.087 465.219 329.898 463.763 324.954C462.306 320.009 457.117 317.181 452.173 318.638C447.228 320.094 444.4 325.283 445.857 330.228ZM138.75 422.509L455.304 329.269L454.315 325.912L137.761 419.151L138.75 422.509Z" fill="black"/>
<path d="M484.241 354.366C485.697 359.311 490.886 362.139 495.831 360.682C500.775 359.226 503.603 354.037 502.147 349.092C500.69 344.148 495.501 341.32 490.557 342.776C485.612 344.233 482.784 349.422 484.241 354.366ZM110.131 464.558C111.588 469.503 116.777 472.331 121.722 470.874C126.666 469.418 129.494 464.229 128.038 459.284C126.581 454.34 121.392 451.512 116.447 452.968C111.503 454.425 108.675 459.614 110.131 464.558ZM492.699 350.051L118.59 460.243L119.579 463.6L493.688 353.408L492.699 350.051Z" fill="black"/>
<path d="M154.613 495.241C156.069 500.185 161.258 503.013 166.203 501.557C171.148 500.1 173.975 494.911 172.519 489.966C171.063 485.022 165.873 482.194 160.929 483.65C155.984 485.107 153.156 490.296 154.613 495.241ZM462.534 404.544C463.99 409.489 469.179 412.316 474.124 410.86C479.068 409.404 481.896 404.214 480.44 399.27C478.983 394.325 473.794 391.497 468.849 392.954C463.905 394.41 461.077 399.599 462.534 404.544ZM164.06 494.282L471.981 403.586L470.992 400.228L163.071 490.925L164.06 494.282Z" fill="black"/>
<path d="M437.272 456.811C438.728 461.756 443.917 464.583 448.862 463.127C453.807 461.671 456.634 456.482 455.178 451.537C453.722 446.592 448.532 443.765 443.588 445.221C438.643 446.677 435.815 451.866 437.272 456.811ZM208.969 524.057C210.426 529.001 215.615 531.829 220.559 530.372C225.504 528.916 228.332 523.727 226.875 518.782C225.419 513.838 220.23 511.01 215.285 512.466C210.341 513.923 207.513 519.112 208.969 524.057ZM445.73 452.495L217.428 519.741L218.417 523.098L446.719 455.853L445.73 452.495Z" fill="black"/>
<path d="M257.741 558.687C259.198 563.632 264.387 566.46 269.331 565.003C274.276 563.547 277.104 558.358 275.647 553.413C274.191 548.469 269.002 545.641 264.057 547.097C259.113 548.554 256.285 553.743 257.741 558.687ZM409.303 514.045C410.76 518.99 415.949 521.818 420.894 520.361C425.838 518.905 428.666 513.716 427.21 508.771C425.753 503.827 420.564 500.999 415.619 502.455C410.675 503.912 407.847 509.101 409.303 514.045ZM267.189 557.729L418.751 513.087L417.762 509.73L266.2 554.372L267.189 557.729Z" fill="black"/>
<path d="M385.961 565.747C387.417 570.692 392.606 573.52 397.551 572.063C402.496 570.607 405.323 565.418 403.867 560.473C402.411 555.528 397.221 552.701 392.277 554.157C387.332 555.614 384.504 560.803 385.961 565.747ZM310.18 588.068C311.636 593.013 316.825 595.841 321.77 594.384C326.715 592.928 329.542 587.739 328.086 582.794C326.629 577.849 321.44 575.022 316.496 576.478C311.551 577.935 308.723 583.124 310.18 588.068ZM394.419 561.431L318.638 583.752L319.627 587.11L395.408 564.789L394.419 561.431Z" fill="black"/>
<path d="M343.164 657.581C344.621 662.526 349.81 665.354 354.754 663.897C359.699 662.441 362.527 657.252 361.07 652.307C359.614 647.363 354.425 644.535 349.48 645.991C344.535 647.448 341.708 652.637 343.164 657.581ZM392.086 643.172C393.543 648.116 398.732 650.944 403.676 649.488C408.621 648.031 411.449 642.842 409.992 637.898C408.536 632.953 403.347 630.125 398.402 631.582C393.457 633.038 390.63 638.227 392.086 643.172ZM352.612 656.623L401.534 642.213L400.545 638.856L351.623 653.266L352.612 656.623Z" fill="black"/>
<path d="M438.992 667.927C440.448 672.872 445.637 675.7 450.582 674.243C455.526 672.787 458.354 667.598 456.898 662.653C455.441 657.708 450.252 654.881 445.308 656.337C440.363 657.793 437.535 662.983 438.992 667.927ZM318.126 703.528C319.582 708.472 324.771 711.3 329.716 709.844C334.66 708.387 337.488 703.198 336.032 698.254C334.575 693.309 329.386 690.481 324.442 691.938C319.497 693.394 316.669 698.583 318.126 703.528ZM447.45 663.611L326.584 699.212L327.573 702.569L448.439 666.969L447.45 663.611Z" fill="black"/>
<path d="M293.6 761.833C295.057 766.778 300.246 769.605 305.19 768.149C310.135 766.692 312.963 761.503 311.506 756.559C310.05 751.614 304.861 748.786 299.916 750.243C294.972 751.699 292.144 756.888 293.6 761.833ZM493.125 703.064C494.582 708.008 499.771 710.836 504.715 709.38C509.66 707.923 512.488 702.734 511.031 697.79C509.575 692.845 504.386 690.017 499.441 691.474C494.496 692.93 491.669 698.119 493.125 703.064ZM303.048 760.874L502.573 702.105L501.584 698.748L302.059 757.517L303.048 760.874Z" fill="black"/>
</svg>
