<svg width="671" height="481" viewBox="0 0 671 481" fill="none" xmlns="http://www.w3.org/2000/svg">
<path d="M241.873 59.0486C241.873 66.969 235.452 73.3898 227.532 73.3898C219.611 73.3898 213.19 66.969 213.19 59.0486C213.19 51.1282 219.611 44.7075 227.532 44.7075C235.452 44.7075 241.873 51.1282 241.873 59.0486Z" fill="#EA96A9"/>
<path d="M416.015 161.485C416.015 169.406 409.595 175.827 401.674 175.827C393.754 175.827 387.333 169.406 387.333 161.485C387.333 153.565 393.754 147.144 401.674 147.144C409.595 147.144 416.015 153.565 416.015 161.485Z" fill="#EA96A9"/>
<path d="M96.4128 352.018C96.4128 359.938 89.992 366.359 82.0716 366.359C74.1512 366.359 67.7305 359.938 67.7305 352.018C67.7305 344.097 74.1512 337.677 82.0716 337.677C89.992 337.677 96.4128 344.097 96.4128 352.018Z" fill="#EA96A9"/>
<path d="M536.89 323.336C536.89 331.256 530.47 337.677 522.549 337.677C514.629 337.677 508.208 331.256 508.208 323.336C508.208 315.415 514.629 308.994 522.549 308.994C530.47 308.994 536.89 315.415 536.89 323.336Z" fill="#EA96A9"/>
<path d="M172.216 161.485C172.216 169.406 165.795 175.827 157.874 175.827C149.954 175.827 143.533 169.406 143.533 161.485C143.533 153.565 149.954 147.144 157.874 147.144C165.795 147.144 172.216 153.565 172.216 161.485Z" fill="#9BE5D7"/>
<path d="M268.507 370.456C268.507 378.377 262.086 384.798 254.165 384.798C246.245 384.798 239.824 378.377 239.824 370.456C239.824 362.536 246.245 356.115 254.165 356.115C262.086 356.115 268.507 362.536 268.507 370.456Z" fill="#9BE5D7"/>
<path d="M459.039 423.724C459.039 431.644 452.618 438.065 444.698 438.065C436.777 438.065 430.356 431.644 430.356 423.724C430.356 415.803 436.777 409.382 444.698 409.382C452.618 409.382 459.039 415.803 459.039 423.724Z" fill="#9BE5D7"/>
<path d="M280.799 130.754C280.799 138.675 274.378 145.096 266.457 145.096C258.537 145.096 252.116 138.675 252.116 130.754C252.116 122.834 258.537 116.413 266.457 116.413C274.378 116.413 280.799 122.834 280.799 130.754Z" fill="#9BE5D7"/>
<path d="M643.424 147.144C643.424 155.065 637.004 161.485 629.083 161.485C621.163 161.485 614.742 155.065 614.742 147.144C614.742 139.224 621.163 132.803 629.083 132.803C637.004 132.803 643.424 139.224 643.424 147.144Z" fill="#9BE5D7"/>
<path fill-rule="evenodd" clip-rule="evenodd" d="M159.411 315.284L159.411 161.485L156.338 161.485L156.338 315.284C152.546 316.004 149.679 319.335 149.679 323.336C149.679 327.861 153.348 331.53 157.874 331.53C162.4 331.53 166.069 327.861 166.069 323.336C166.069 319.335 163.202 316.004 159.411 315.284Z" fill="black"/>
<path fill-rule="evenodd" clip-rule="evenodd" d="M247.493 365.696L152.371 321.94L151.086 324.731L246.209 368.488C245.278 372.233 247.106 376.23 250.741 377.901C254.852 379.793 259.719 377.993 261.61 373.881C263.502 369.769 261.702 364.903 257.59 363.011C253.955 361.339 249.731 362.552 247.493 365.696Z" fill="black"/>
<path fill-rule="evenodd" clip-rule="evenodd" d="M239.826 303.079L151.398 322.556L152.059 325.557L240.487 306.081C242.005 309.629 245.875 311.712 249.782 310.851C254.202 309.878 256.996 305.506 256.022 301.086C255.049 296.665 250.676 293.872 246.256 294.845C242.349 295.706 239.713 299.222 239.826 303.079Z" fill="black"/>
<path fill-rule="evenodd" clip-rule="evenodd" d="M317.804 369.001L254.149 369.641L254.18 372.714L317.835 372.074C318.592 375.858 321.952 378.691 325.953 378.651C330.478 378.606 334.11 374.9 334.065 370.374C334.019 365.848 330.313 362.216 325.788 362.262C321.787 362.302 318.485 365.202 317.804 369.001Z" fill="black"/>
<path fill-rule="evenodd" clip-rule="evenodd" d="M324.822 371.58L253.117 304.693L255.213 302.445L326.919 369.333L324.822 371.58Z" fill="black"/>
<path fill-rule="evenodd" clip-rule="evenodd" d="M246.491 302.687L265.251 124.447L268.308 124.769L249.547 303.009L246.491 302.687Z" fill="black"/>
<path fill-rule="evenodd" clip-rule="evenodd" d="M252.8 369.751L324.828 230.437L327.558 231.848L255.53 371.162L252.8 369.751Z" fill="black"/>
<path fill-rule="evenodd" clip-rule="evenodd" d="M324.437 369.906L404.659 160.935L407.528 162.036L327.306 371.007L324.437 369.906Z" fill="black"/>
<path fill-rule="evenodd" clip-rule="evenodd" d="M160.176 170.288C155.833 171.559 151.281 169.068 150.01 164.725C148.738 160.381 151.229 155.829 155.573 154.558C159.413 153.434 163.415 155.25 165.17 158.687L257.932 131.541C257.558 127.7 259.95 124.013 263.789 122.889C268.133 121.618 272.685 124.109 273.956 128.453C275.227 132.797 272.737 137.348 268.393 138.62C264.553 139.743 260.551 137.927 258.796 134.49L166.033 161.636C166.408 165.477 164.016 169.164 160.176 170.288Z" fill="black"/>
<path fill-rule="evenodd" clip-rule="evenodd" d="M319.042 226.61L160.518 160.069L159.328 162.902L317.852 229.443C317.048 233.217 319.01 237.15 322.699 238.699C326.872 240.45 331.675 238.487 333.427 234.314C335.179 230.141 333.216 225.338 329.042 223.586C325.353 222.038 321.172 223.392 319.042 226.61Z" fill="black"/>
<path fill-rule="evenodd" clip-rule="evenodd" d="M394.163 158.203L266.798 129.256L266.117 132.253L393.482 161.199C393.343 165.056 395.956 168.59 399.858 169.477C404.271 170.48 408.662 167.715 409.665 163.302C410.668 158.888 407.903 154.497 403.49 153.494C399.589 152.608 395.705 154.665 394.163 158.203Z" fill="black"/>
<path fill-rule="evenodd" clip-rule="evenodd" d="M620.953 146.111L401.579 159.774L401.77 162.841L621.144 149.178C622.098 152.918 625.6 155.572 629.593 155.323C634.111 155.042 637.545 151.152 637.263 146.635C636.982 142.118 633.092 138.684 628.575 138.965C624.582 139.214 621.435 142.282 620.953 146.111Z" fill="black"/>
<path fill-rule="evenodd" clip-rule="evenodd" d="M508.564 251.283L326.036 231.485L325.705 234.54L508.233 254.338C508.539 258.185 511.542 261.394 515.519 261.826C520.019 262.314 524.062 259.062 524.55 254.562C525.038 250.063 521.786 246.019 517.286 245.531C513.309 245.1 509.688 247.591 508.564 251.283Z" fill="black"/>
<path fill-rule="evenodd" clip-rule="evenodd" d="M437.286 420.224L254.549 373.066L253.781 376.042L436.518 423.2C436.267 427.051 438.776 430.659 442.65 431.659C447.032 432.79 451.502 430.154 452.633 425.771C453.764 421.389 451.128 416.92 446.745 415.789C442.871 414.789 438.93 416.733 437.286 420.224Z" fill="black"/>
<path fill-rule="evenodd" clip-rule="evenodd" d="M514.358 323.622L325.53 366.537L326.211 369.533L515.039 326.618C516.581 330.156 520.464 332.213 524.366 331.327C528.779 330.324 531.544 325.933 530.541 321.519C529.538 317.106 525.147 314.341 520.733 315.344C516.832 316.231 514.219 319.765 514.358 323.622Z" fill="black"/>
<path fill-rule="evenodd" clip-rule="evenodd" d="M230.264 66.7761L264.239 124.962L266.893 123.413L232.918 65.2265C235.83 62.6936 236.626 58.3713 234.608 54.9164C232.326 51.008 227.308 49.6896 223.399 51.9718C219.491 54.2539 218.172 59.2724 220.455 63.1808C222.472 66.6357 226.627 68.0668 230.264 66.7761Z" fill="black"/>
<path fill-rule="evenodd" clip-rule="evenodd" d="M90.113 349.937L152.612 324.761L151.463 321.91L88.9647 347.087C86.8809 343.839 82.7198 342.424 79.0088 343.919C74.8107 345.61 72.7784 350.384 74.4695 354.582C76.1607 358.781 80.9349 360.813 85.133 359.122C88.844 357.627 90.8626 353.723 90.113 349.937Z" fill="black"/>
<path fill-rule="evenodd" clip-rule="evenodd" d="M400.688 163.619L327.958 233.276L325.832 231.057L398.562 161.4L400.688 163.619Z" fill="black"/>
<path fill-rule="evenodd" clip-rule="evenodd" d="M630.15 148.251L519.518 254.785L517.387 252.572L628.018 146.037L630.15 148.251Z" fill="black"/>
<path fill-rule="evenodd" clip-rule="evenodd" d="M630.404 147.93L524.26 326.17L521.619 324.598L627.764 146.358L630.404 147.93Z" fill="black"/>
<path fill-rule="evenodd" clip-rule="evenodd" d="M517.812 254.292L443.729 424.337L440.911 423.11L514.994 253.065L517.812 254.292Z" fill="black"/>
<path fill-rule="evenodd" clip-rule="evenodd" d="M520.677 320.378L445.507 422.815L447.985 424.633L523.155 322.196L520.677 320.378Z" fill="black"/>
<path d="M437.677 196.711C435.99 196.711 434.496 196.373 433.195 195.698C431.893 195.024 430.881 194.084 430.158 192.879C429.435 191.65 429.073 190.228 429.073 188.613V171.478C429.073 171.237 429.194 171.116 429.435 171.116H431.279C431.52 171.116 431.64 171.237 431.64 171.478V188.685C431.64 190.396 432.194 191.794 433.303 192.879C434.412 193.939 435.87 194.469 437.677 194.469C439.485 194.469 440.943 193.939 442.051 192.879C443.16 191.794 443.714 190.396 443.714 188.685V171.478C443.714 171.237 443.835 171.116 444.076 171.116H445.919C446.16 171.116 446.281 171.237 446.281 171.478V188.613C446.281 190.228 445.919 191.65 445.196 192.879C444.497 194.084 443.497 195.024 442.196 195.698C440.894 196.373 439.388 196.711 437.677 196.711Z" fill="black"/>
<path d="M458.298 196.602C456.949 196.602 455.744 196.385 454.683 195.951C453.647 195.518 452.84 194.939 452.261 194.216C451.707 193.493 451.43 192.686 451.43 191.794V191.36C451.43 191.119 451.55 190.999 451.791 190.999H453.527C453.768 190.999 453.888 191.119 453.888 191.36V191.65C453.888 192.445 454.298 193.144 455.117 193.746C455.961 194.325 457.009 194.614 458.262 194.614C459.515 194.614 460.528 194.337 461.299 193.782C462.07 193.204 462.456 192.481 462.456 191.613C462.456 191.011 462.251 190.517 461.841 190.131C461.456 189.746 460.986 189.444 460.431 189.228C459.901 189.011 459.07 188.734 457.937 188.396C456.587 188.011 455.479 187.625 454.611 187.239C453.744 186.854 453.009 186.324 452.406 185.649C451.828 184.95 451.538 184.07 451.538 183.01C451.538 181.467 452.141 180.238 453.346 179.322C454.551 178.407 456.142 177.949 458.118 177.949C459.443 177.949 460.612 178.166 461.624 178.599C462.661 179.033 463.456 179.636 464.01 180.407C464.564 181.154 464.842 181.998 464.842 182.937V183.046C464.842 183.287 464.721 183.407 464.48 183.407H462.781C462.54 183.407 462.42 183.287 462.42 183.046V182.937C462.42 182.118 462.022 181.431 461.227 180.877C460.455 180.323 459.407 180.045 458.082 180.045C456.852 180.045 455.864 180.299 455.117 180.805C454.37 181.287 453.997 181.961 453.997 182.829C453.997 183.648 454.358 184.275 455.081 184.709C455.804 185.143 456.925 185.576 458.443 186.01C459.841 186.42 460.974 186.806 461.841 187.167C462.709 187.529 463.456 188.059 464.082 188.758C464.709 189.432 465.022 190.324 465.022 191.433C465.022 192.999 464.408 194.252 463.179 195.192C461.95 196.132 460.323 196.602 458.298 196.602Z" fill="black"/>
<path d="M483.728 184.203C483.824 184.878 483.873 185.721 483.873 186.733V187.89C483.873 188.131 483.752 188.252 483.511 188.252H471.835C471.738 188.252 471.69 188.3 471.69 188.396C471.738 189.722 471.811 190.577 471.907 190.963C472.172 192.047 472.738 192.903 473.606 193.529C474.474 194.156 475.582 194.469 476.932 194.469C477.944 194.469 478.836 194.24 479.607 193.782C480.378 193.325 480.981 192.674 481.414 191.83C481.559 191.613 481.728 191.565 481.921 191.686L483.33 192.517C483.523 192.638 483.571 192.806 483.475 193.023C482.872 194.18 481.969 195.096 480.764 195.771C479.559 196.421 478.173 196.747 476.606 196.747C474.895 196.723 473.461 196.313 472.305 195.518C471.148 194.722 470.316 193.614 469.81 192.192C469.376 191.035 469.16 189.372 469.16 187.203C469.16 186.191 469.172 185.372 469.196 184.745C469.244 184.094 469.34 183.516 469.485 183.01C469.895 181.443 470.714 180.19 471.943 179.25C473.196 178.31 474.703 177.84 476.462 177.84C478.655 177.84 480.342 178.395 481.523 179.503C482.704 180.612 483.439 182.178 483.728 184.203ZM476.462 180.082C475.281 180.082 474.293 180.395 473.498 181.022C472.726 181.624 472.22 182.443 471.979 183.48C471.835 183.986 471.738 184.805 471.69 185.938C471.69 186.034 471.738 186.083 471.835 186.083H481.198C481.294 186.083 481.342 186.034 481.342 185.938C481.294 184.853 481.222 184.082 481.125 183.624C480.86 182.54 480.318 181.684 479.498 181.058C478.703 180.407 477.691 180.082 476.462 180.082Z" fill="black"/>
<path d="M496.352 177.949C497.147 177.949 497.834 178.105 498.412 178.419C498.605 178.515 498.677 178.672 498.629 178.889L498.231 180.66C498.159 180.901 498.003 180.973 497.762 180.877C497.352 180.708 496.882 180.624 496.352 180.624L495.882 180.66C494.629 180.708 493.592 181.178 492.773 182.07C491.953 182.937 491.544 184.046 491.544 185.396V196.06C491.544 196.301 491.423 196.421 491.182 196.421H489.339C489.098 196.421 488.977 196.301 488.977 196.06V178.491C488.977 178.25 489.098 178.13 489.339 178.13H491.182C491.423 178.13 491.544 178.25 491.544 178.491V180.696C491.544 180.768 491.556 180.817 491.58 180.841C491.628 180.841 491.664 180.817 491.688 180.768C492.194 179.877 492.833 179.19 493.604 178.708C494.4 178.202 495.315 177.949 496.352 177.949Z" fill="black"/>
<path d="M437.512 455.405C437.632 455.236 437.777 455.152 437.946 455.152H439.825C440.066 455.152 440.187 455.273 440.187 455.514V480.096C440.187 480.337 440.066 480.457 439.825 480.457H437.982C437.741 480.457 437.62 480.337 437.62 480.096V459.996C437.62 459.924 437.596 459.876 437.548 459.852C437.5 459.828 437.464 459.852 437.44 459.924L431.547 468.961C431.427 469.13 431.282 469.215 431.113 469.215H430.173C430.005 469.215 429.86 469.142 429.74 468.998L423.847 460.032C423.823 459.96 423.787 459.936 423.739 459.96C423.691 459.984 423.666 460.032 423.666 460.105V480.096C423.666 480.337 423.546 480.457 423.305 480.457H421.461C421.22 480.457 421.1 480.337 421.1 480.096V455.514C421.1 455.273 421.22 455.152 421.461 455.152H423.341C423.534 455.152 423.678 455.224 423.775 455.369L430.571 465.672C430.595 465.696 430.631 465.708 430.68 465.708C430.728 465.708 430.764 465.696 430.788 465.672L437.512 455.405Z" fill="black"/>
<path d="M453.412 480.746C451.677 480.746 450.183 480.3 448.93 479.409C447.676 478.517 446.809 477.288 446.327 475.722C445.989 474.613 445.821 473.131 445.821 471.275C445.821 469.419 445.989 467.949 446.327 466.865C446.785 465.322 447.64 464.105 448.893 463.214C450.147 462.322 451.665 461.876 453.448 461.876C455.159 461.876 456.63 462.322 457.859 463.214C459.112 464.105 459.967 465.31 460.425 466.829C460.763 467.865 460.931 469.347 460.931 471.275C460.931 473.227 460.763 474.709 460.425 475.722C459.967 477.288 459.112 478.517 457.859 479.409C456.63 480.3 455.147 480.746 453.412 480.746ZM453.412 478.505C454.569 478.505 455.557 478.192 456.376 477.565C457.196 476.914 457.75 476.047 458.039 474.962C458.256 474.095 458.365 472.878 458.365 471.311C458.365 469.721 458.268 468.504 458.076 467.66C457.786 466.576 457.22 465.72 456.376 465.093C455.557 464.443 454.557 464.117 453.376 464.117C452.195 464.117 451.195 464.443 450.376 465.093C449.556 465.72 449.002 466.576 448.713 467.66C448.52 468.504 448.423 469.721 448.423 471.311C448.423 472.902 448.52 474.119 448.713 474.962C448.978 476.047 449.52 476.914 450.339 477.565C451.183 478.192 452.207 478.505 453.412 478.505Z" fill="black"/>
<path d="M466.496 480.457C466.255 480.457 466.134 480.337 466.134 480.096V455.514C466.134 455.273 466.255 455.152 466.496 455.152H468.339C468.58 455.152 468.701 455.273 468.701 455.514V480.096C468.701 480.337 468.58 480.457 468.339 480.457H466.496Z" fill="black"/>
<path d="M488.492 468.238C488.588 468.913 488.636 469.757 488.636 470.769V471.926C488.636 472.167 488.516 472.287 488.275 472.287H476.598C476.502 472.287 476.454 472.335 476.454 472.432C476.502 473.757 476.574 474.613 476.671 474.999C476.936 476.083 477.502 476.939 478.37 477.565C479.237 478.192 480.346 478.505 481.696 478.505C482.708 478.505 483.6 478.276 484.371 477.818C485.142 477.36 485.744 476.71 486.178 475.866C486.323 475.649 486.492 475.601 486.684 475.722L488.094 476.553C488.287 476.673 488.335 476.842 488.239 477.059C487.636 478.216 486.733 479.132 485.528 479.806C484.323 480.457 482.937 480.783 481.37 480.783C479.659 480.758 478.225 480.349 477.068 479.553C475.912 478.758 475.08 477.65 474.574 476.228C474.14 475.071 473.923 473.408 473.923 471.239C473.923 470.227 473.935 469.407 473.96 468.781C474.008 468.13 474.104 467.552 474.249 467.046C474.658 465.479 475.478 464.226 476.707 463.286C477.96 462.346 479.466 461.876 481.226 461.876C483.419 461.876 485.106 462.43 486.287 463.539C487.468 464.648 488.203 466.214 488.492 468.238ZM481.226 464.117C480.045 464.117 479.057 464.431 478.261 465.057C477.49 465.66 476.984 466.479 476.743 467.515C476.598 468.022 476.502 468.841 476.454 469.974C476.454 470.07 476.502 470.118 476.598 470.118H485.961C486.058 470.118 486.106 470.07 486.106 469.974C486.058 468.889 485.985 468.118 485.889 467.66C485.624 466.576 485.082 465.72 484.262 465.093C483.467 464.443 482.455 464.117 481.226 464.117Z" fill="black"/>
<path d="M500.646 480.746C498.91 480.746 497.416 480.3 496.163 479.409C494.934 478.493 494.09 477.264 493.632 475.722C493.319 474.661 493.163 473.167 493.163 471.239C493.163 469.504 493.319 468.034 493.632 466.829C494.066 465.334 494.91 464.141 496.163 463.25C497.416 462.334 498.91 461.876 500.646 461.876C502.405 461.876 503.923 462.322 505.2 463.214C506.502 464.105 507.345 465.214 507.731 466.539C507.851 466.973 507.924 467.335 507.948 467.624V467.696C507.948 467.865 507.839 467.973 507.623 468.022L505.815 468.275H505.743C505.574 468.275 505.466 468.166 505.417 467.949L505.309 467.407C505.092 466.491 504.562 465.72 503.718 465.093C502.875 464.443 501.851 464.117 500.646 464.117C499.441 464.117 498.428 464.443 497.609 465.093C496.814 465.72 496.296 466.564 496.055 467.624C495.838 468.54 495.729 469.757 495.729 471.275C495.729 472.866 495.838 474.095 496.055 474.962C496.296 476.047 496.814 476.914 497.609 477.565C498.428 478.192 499.441 478.505 500.646 478.505C501.826 478.505 502.839 478.204 503.682 477.601C504.55 476.975 505.092 476.179 505.309 475.215V475.071L505.345 474.926C505.369 474.685 505.514 474.589 505.779 474.637L507.55 474.926C507.791 474.974 507.9 475.107 507.876 475.324L507.731 476.047C507.369 477.445 506.538 478.577 505.237 479.445C503.935 480.313 502.405 480.746 500.646 480.746Z" fill="black"/>
<path d="M523.584 462.527C523.584 462.286 523.704 462.165 523.945 462.165H525.789C526.03 462.165 526.151 462.286 526.151 462.527V480.096C526.151 480.337 526.03 480.457 525.789 480.457H523.945C523.704 480.457 523.584 480.337 523.584 480.096V478.541C523.584 478.493 523.56 478.457 523.512 478.433C523.463 478.409 523.427 478.421 523.403 478.469C522.391 479.963 520.788 480.71 518.595 480.71C517.438 480.71 516.366 480.481 515.378 480.023C514.414 479.541 513.643 478.855 513.064 477.963C512.51 477.071 512.233 475.999 512.233 474.745V462.527C512.233 462.286 512.353 462.165 512.594 462.165H514.438C514.679 462.165 514.799 462.286 514.799 462.527V473.986C514.799 475.36 515.185 476.457 515.956 477.276C516.727 478.071 517.776 478.469 519.101 478.469C520.475 478.469 521.559 478.059 522.355 477.24C523.174 476.42 523.584 475.336 523.584 473.986V462.527Z" fill="black"/>
<path d="M532.265 480.457C532.024 480.457 531.903 480.337 531.903 480.096V455.514C531.903 455.273 532.024 455.152 532.265 455.152H534.108C534.349 455.152 534.47 455.273 534.47 455.514V480.096C534.47 480.337 534.349 480.457 534.108 480.457H532.265Z" fill="black"/>
<path d="M554.261 468.238C554.357 468.913 554.405 469.757 554.405 470.769V471.926C554.405 472.167 554.285 472.287 554.044 472.287H542.367C542.271 472.287 542.223 472.335 542.223 472.432C542.271 473.757 542.343 474.613 542.44 474.999C542.705 476.083 543.271 476.939 544.139 477.565C545.006 478.192 546.115 478.505 547.465 478.505C548.477 478.505 549.369 478.276 550.14 477.818C550.911 477.36 551.513 476.71 551.947 475.866C552.092 475.649 552.261 475.601 552.453 475.722L553.863 476.553C554.056 476.673 554.104 476.842 554.008 477.059C553.405 478.216 552.502 479.132 551.297 479.806C550.092 480.457 548.706 480.783 547.139 480.783C545.428 480.758 543.994 480.349 542.837 479.553C541.681 478.758 540.849 477.65 540.343 476.228C539.909 475.071 539.692 473.408 539.692 471.239C539.692 470.227 539.704 469.407 539.729 468.781C539.777 468.13 539.873 467.552 540.018 467.046C540.427 465.479 541.247 464.226 542.476 463.286C543.729 462.346 545.235 461.876 546.995 461.876C549.188 461.876 550.875 462.43 552.056 463.539C553.237 464.648 553.972 466.214 554.261 468.238ZM546.995 464.117C545.814 464.117 544.826 464.431 544.03 465.057C543.259 465.66 542.753 466.479 542.512 467.515C542.367 468.022 542.271 468.841 542.223 469.974C542.223 470.07 542.271 470.118 542.367 470.118H551.73C551.827 470.118 551.875 470.07 551.875 469.974C551.827 468.889 551.754 468.118 551.658 467.66C551.393 466.576 550.851 465.72 550.031 465.093C549.236 464.443 548.224 464.117 546.995 464.117Z" fill="black"/>
<path d="M565.193 480.638C563.844 480.638 562.638 480.421 561.578 479.987C560.542 479.553 559.734 478.975 559.156 478.252C558.602 477.529 558.325 476.722 558.325 475.83V475.396C558.325 475.155 558.445 475.035 558.686 475.035H560.421C560.662 475.035 560.783 475.155 560.783 475.396V475.685C560.783 476.481 561.193 477.18 562.012 477.782C562.855 478.36 563.904 478.65 565.157 478.65C566.41 478.65 567.422 478.373 568.194 477.818C568.965 477.24 569.35 476.517 569.35 475.649C569.35 475.047 569.145 474.553 568.736 474.167C568.35 473.781 567.88 473.48 567.326 473.263C566.796 473.046 565.964 472.769 564.832 472.432C563.482 472.046 562.373 471.661 561.506 471.275C560.638 470.889 559.903 470.359 559.301 469.684C558.722 468.986 558.433 468.106 558.433 467.046C558.433 465.503 559.036 464.274 560.241 463.358C561.446 462.442 563.036 461.985 565.012 461.985C566.338 461.985 567.507 462.201 568.519 462.635C569.555 463.069 570.35 463.671 570.905 464.443C571.459 465.19 571.736 466.033 571.736 466.973V467.082C571.736 467.323 571.616 467.443 571.375 467.443H569.676C569.435 467.443 569.314 467.323 569.314 467.082V466.973C569.314 466.154 568.917 465.467 568.121 464.913C567.35 464.358 566.302 464.081 564.976 464.081C563.747 464.081 562.759 464.334 562.012 464.84C561.265 465.322 560.891 465.997 560.891 466.865C560.891 467.684 561.253 468.311 561.976 468.745C562.699 469.178 563.819 469.612 565.338 470.046C566.736 470.456 567.868 470.841 568.736 471.203C569.603 471.564 570.351 472.094 570.977 472.793C571.604 473.468 571.917 474.36 571.917 475.468C571.917 477.035 571.302 478.288 570.073 479.228C568.844 480.168 567.218 480.638 565.193 480.638Z" fill="black"/>
<path d="M291.032 110.983C288.309 110.983 286.152 110.369 284.561 109.14C282.995 107.911 282.211 106.272 282.211 104.223V103.103C282.211 102.862 282.332 102.741 282.573 102.741H284.344C284.585 102.741 284.706 102.862 284.706 103.103V104.079C284.706 105.477 285.284 106.609 286.441 107.477C287.598 108.32 289.2 108.742 291.249 108.742C293.105 108.742 294.515 108.357 295.479 107.585C296.443 106.79 296.924 105.742 296.924 104.44C296.924 103.597 296.696 102.874 296.238 102.271C295.804 101.669 295.117 101.102 294.177 100.572C293.261 100.042 291.96 99.4275 290.273 98.7286C288.465 98.0056 287.056 97.379 286.043 96.8488C285.055 96.2945 284.248 95.5956 283.621 94.7521C283.019 93.8845 282.718 92.8 282.718 91.4986C282.718 89.4742 283.416 87.9077 284.814 86.7991C286.236 85.6664 288.176 85.1001 290.634 85.1001C293.309 85.1001 295.418 85.7267 296.961 86.9799C298.503 88.2331 299.274 89.896 299.274 91.9686V92.7639C299.274 93.0049 299.154 93.1254 298.913 93.1254H297.105C296.864 93.1254 296.744 93.0049 296.744 92.7639V92.1132C296.744 90.7154 296.189 89.5706 295.081 88.6789C293.996 87.7872 292.478 87.3414 290.526 87.3414C288.815 87.3414 287.501 87.6908 286.586 88.3897C285.67 89.0886 285.212 90.1008 285.212 91.4263C285.212 92.2939 285.429 93.0169 285.863 93.5953C286.321 94.1496 286.959 94.6437 287.779 95.0775C288.622 95.4872 289.911 96.0294 291.647 96.7042C293.406 97.4272 294.816 98.102 295.876 98.7286C296.961 99.3552 297.828 100.126 298.479 101.042C299.154 101.934 299.491 103.03 299.491 104.332C299.491 106.356 298.744 107.971 297.25 109.176C295.756 110.381 293.683 110.983 291.032 110.983Z" fill="black"/>
<path d="M311.239 110.983C309.504 110.983 308.01 110.538 306.757 109.646C305.528 108.73 304.684 107.501 304.226 105.959C303.913 104.898 303.756 103.404 303.756 101.476C303.756 99.7408 303.913 98.2707 304.226 97.0657C304.66 95.5715 305.504 94.3786 306.757 93.4869C308.01 92.5711 309.504 92.1132 311.239 92.1132C312.999 92.1132 314.517 92.559 315.794 93.4507C317.096 94.3424 317.939 95.451 318.325 96.7765C318.445 97.2103 318.518 97.5718 318.542 97.861V97.9333C318.542 98.102 318.433 98.2105 318.216 98.2587L316.409 98.5117H316.336C316.168 98.5117 316.059 98.4033 316.011 98.1864L315.903 97.6441C315.686 96.7283 315.156 95.9571 314.312 95.3305C313.469 94.6798 312.444 94.3545 311.239 94.3545C310.034 94.3545 309.022 94.6798 308.203 95.3305C307.407 95.9571 306.889 96.8006 306.648 97.861C306.431 98.7768 306.323 99.9939 306.323 101.512C306.323 103.103 306.431 104.332 306.648 105.199C306.889 106.284 307.407 107.152 308.203 107.802C309.022 108.429 310.034 108.742 311.239 108.742C312.42 108.742 313.432 108.441 314.276 107.838C315.144 107.212 315.686 106.417 315.903 105.453V105.308L315.939 105.163C315.963 104.922 316.108 104.826 316.373 104.874L318.144 105.163C318.385 105.212 318.493 105.344 318.469 105.561L318.325 106.284C317.963 107.682 317.132 108.814 315.83 109.682C314.529 110.55 312.999 110.983 311.239 110.983Z" fill="black"/>
<path d="M324.851 89.0766C324.273 89.0766 323.791 88.8838 323.405 88.4982C323.019 88.1126 322.827 87.6306 322.827 87.0522C322.827 86.4497 323.019 85.9677 323.405 85.6062C323.791 85.2206 324.273 85.0278 324.851 85.0278C325.429 85.0278 325.911 85.2206 326.297 85.6062C326.683 85.9677 326.875 86.4497 326.875 87.0522C326.875 87.6306 326.683 88.1126 326.297 88.4982C325.911 88.8838 325.429 89.0766 324.851 89.0766ZM323.839 110.658C323.598 110.658 323.477 110.538 323.477 110.297V92.7277C323.477 92.4867 323.598 92.3662 323.839 92.3662H325.682C325.923 92.3662 326.044 92.4867 326.044 92.7277V110.297C326.044 110.538 325.923 110.658 325.682 110.658H323.839Z" fill="black"/>
<path d="M346.356 98.4756C346.452 99.1504 346.501 99.9939 346.501 101.006V102.163C346.501 102.404 346.38 102.524 346.139 102.524H334.463C334.366 102.524 334.318 102.573 334.318 102.669C334.366 103.994 334.439 104.85 334.535 105.236C334.8 106.32 335.366 107.176 336.234 107.802C337.102 108.429 338.21 108.742 339.56 108.742C340.572 108.742 341.464 108.513 342.235 108.055C343.006 107.597 343.609 106.947 344.042 106.103C344.187 105.886 344.356 105.838 344.548 105.959L345.958 106.79C346.151 106.911 346.199 107.079 346.103 107.296C345.5 108.453 344.597 109.369 343.392 110.044C342.187 110.694 340.801 111.02 339.234 111.02C337.523 110.996 336.089 110.586 334.933 109.791C333.776 108.995 332.944 107.887 332.438 106.465C332.004 105.308 331.788 103.645 331.788 101.476C331.788 100.464 331.8 99.6444 331.824 99.0178C331.872 98.3671 331.968 97.7887 332.113 97.2826C332.523 95.7161 333.342 94.4629 334.571 93.523C335.824 92.5831 337.331 92.1132 339.09 92.1132C341.283 92.1132 342.97 92.6675 344.151 93.7761C345.332 94.8847 346.067 96.4512 346.356 98.4756ZM339.09 94.3545C337.909 94.3545 336.921 94.6678 336.126 95.2944C335.354 95.8969 334.848 96.7163 334.607 97.7526C334.463 98.2587 334.366 99.0781 334.318 100.211C334.318 100.307 334.366 100.355 334.463 100.355H343.825C343.922 100.355 343.97 100.307 343.97 100.211C343.922 99.1263 343.85 98.3551 343.753 97.8972C343.488 96.8127 342.946 95.9571 342.126 95.3305C341.331 94.6798 340.319 94.3545 339.09 94.3545Z" fill="black"/>
<path d="M359.197 92.1493C361.125 92.1493 362.655 92.7157 363.788 93.8484C364.944 94.9811 365.523 96.4994 365.523 98.4033V110.333C365.523 110.574 365.402 110.694 365.161 110.694H363.318C363.077 110.694 362.956 110.574 362.956 110.333V98.9094C362.956 97.5839 362.546 96.4994 361.727 95.6559C360.932 94.8124 359.895 94.3906 358.618 94.3906C357.293 94.3906 356.22 94.8003 355.401 95.6197C354.581 96.4391 354.172 97.5116 354.172 98.8371V110.333C354.172 110.574 354.051 110.694 353.81 110.694H351.967C351.726 110.694 351.605 110.574 351.605 110.333V92.7639C351.605 92.5229 351.726 92.4024 351.967 92.4024H353.81C354.051 92.4024 354.172 92.5229 354.172 92.7639V94.3183C354.172 94.3665 354.184 94.4027 354.208 94.4268C354.256 94.4509 354.292 94.4388 354.316 94.3906C355.377 92.8964 357.003 92.1493 359.197 92.1493Z" fill="black"/>
<path d="M377.75 110.983C376.014 110.983 374.52 110.538 373.267 109.646C372.038 108.73 371.195 107.501 370.737 105.959C370.423 104.898 370.267 103.404 370.267 101.476C370.267 99.7408 370.423 98.2707 370.737 97.0657C371.17 95.5715 372.014 94.3786 373.267 93.4869C374.52 92.5711 376.014 92.1132 377.75 92.1132C379.509 92.1132 381.027 92.559 382.305 93.4507C383.606 94.3424 384.45 95.451 384.835 96.7765C384.956 97.2103 385.028 97.5718 385.052 97.861V97.9333C385.052 98.102 384.944 98.2105 384.727 98.2587L382.919 98.5117H382.847C382.678 98.5117 382.57 98.4033 382.521 98.1864L382.413 97.6441C382.196 96.7283 381.666 95.9571 380.822 95.3305C379.979 94.6798 378.955 94.3545 377.75 94.3545C376.545 94.3545 375.533 94.6798 374.713 95.3305C373.918 95.9571 373.4 96.8006 373.159 97.861C372.942 98.7768 372.833 99.9939 372.833 101.512C372.833 103.103 372.942 104.332 373.159 105.199C373.4 106.284 373.918 107.152 374.713 107.802C375.533 108.429 376.545 108.742 377.75 108.742C378.931 108.742 379.943 108.441 380.786 107.838C381.654 107.212 382.196 106.417 382.413 105.453V105.308L382.449 105.163C382.473 104.922 382.618 104.826 382.883 104.874L384.654 105.163C384.895 105.212 385.004 105.344 384.98 105.561L384.835 106.284C384.474 107.682 383.642 108.814 382.341 109.682C381.039 110.55 379.509 110.983 377.75 110.983Z" fill="black"/>
<path d="M403.546 98.4756C403.643 99.1504 403.691 99.9939 403.691 101.006V102.163C403.691 102.404 403.57 102.524 403.329 102.524H391.653C391.557 102.524 391.508 102.573 391.508 102.669C391.557 103.994 391.629 104.85 391.725 105.236C391.99 106.32 392.557 107.176 393.424 107.802C394.292 108.429 395.401 108.742 396.75 108.742C397.762 108.742 398.654 108.513 399.425 108.055C400.196 107.597 400.799 106.947 401.233 106.103C401.377 105.886 401.546 105.838 401.739 105.959L403.149 106.79C403.342 106.911 403.39 107.079 403.293 107.296C402.691 108.453 401.787 109.369 400.582 110.044C399.377 110.694 397.991 111.02 396.425 111.02C394.714 110.996 393.28 110.586 392.123 109.791C390.966 108.995 390.135 107.887 389.629 106.465C389.195 105.308 388.978 103.645 388.978 101.476C388.978 100.464 388.99 99.6444 389.014 99.0178C389.062 98.3671 389.159 97.7887 389.303 97.2826C389.713 95.7161 390.532 94.4629 391.762 93.523C393.015 92.5831 394.521 92.1132 396.28 92.1132C398.473 92.1132 400.16 92.6675 401.341 93.7761C402.522 94.8847 403.257 96.4512 403.546 98.4756ZM396.28 94.3545C395.099 94.3545 394.111 94.6678 393.316 95.2944C392.545 95.8969 392.039 96.7163 391.798 97.7526C391.653 98.2587 391.557 99.0781 391.508 100.211C391.508 100.307 391.557 100.355 391.653 100.355H401.016C401.112 100.355 401.16 100.307 401.16 100.211C401.112 99.1263 401.04 98.3551 400.944 97.8972C400.679 96.8127 400.136 95.9571 399.317 95.3305C398.522 94.6798 397.509 94.3545 396.28 94.3545Z" fill="black"/>
<path d="M37.4192 134.45C37.2023 134.45 37.0577 134.354 36.9854 134.161L35.5394 129.606C35.5153 129.534 35.4671 129.497 35.3948 129.497H24.5859C24.5136 129.497 24.4654 129.534 24.4413 129.606L22.9953 134.161C22.923 134.354 22.7784 134.45 22.5615 134.45H20.6094C20.3443 134.45 20.2479 134.317 20.3202 134.052L28.3094 109.434C28.3817 109.241 28.5263 109.145 28.7432 109.145H31.2014C31.4183 109.145 31.5629 109.241 31.6352 109.434L39.6605 134.052L39.6966 134.197C39.6966 134.366 39.5882 134.45 39.3713 134.45H37.4192ZM25.1643 127.22C25.1402 127.268 25.1402 127.316 25.1643 127.365C25.2125 127.389 25.2607 127.401 25.3089 127.401H34.6356C34.6838 127.401 34.72 127.389 34.7441 127.365C34.7923 127.316 34.8043 127.268 34.7802 127.22L30.0807 112.471C30.0566 112.423 30.0205 112.398 29.9723 112.398C29.9241 112.398 29.8879 112.423 29.8638 112.471L25.1643 127.22Z" fill="black"/>
<path d="M50.3148 134.739C48.5796 134.739 47.0854 134.293 45.8322 133.402C44.6031 132.486 43.7596 131.257 43.3017 129.714C42.9884 128.654 42.8318 127.16 42.8318 125.232C42.8318 123.497 42.9884 122.026 43.3017 120.821C43.7355 119.327 44.579 118.134 45.8322 117.243C47.0854 116.327 48.5796 115.869 50.3148 115.869C52.0741 115.869 53.5924 116.315 54.8697 117.206C56.1711 118.098 57.0146 119.207 57.4002 120.532C57.5207 120.966 57.593 121.328 57.6171 121.617V121.689C57.6171 121.858 57.5087 121.966 57.2918 122.014L55.4843 122.267H55.412C55.2433 122.267 55.1348 122.159 55.0866 121.942L54.9782 121.4C54.7613 120.484 54.2311 119.713 53.3876 119.086C52.5441 118.436 51.5198 118.11 50.3148 118.11C49.1098 118.11 48.0976 118.436 47.2782 119.086C46.4829 119.713 45.9648 120.556 45.7238 121.617C45.5069 122.533 45.3984 123.75 45.3984 125.268C45.3984 126.858 45.5069 128.088 45.7238 128.955C45.9648 130.04 46.4829 130.907 47.2782 131.558C48.0976 132.185 49.1098 132.498 50.3148 132.498C51.4957 132.498 52.5079 132.197 53.3514 131.594C54.219 130.968 54.7613 130.172 54.9782 129.208V129.064L55.0143 128.919C55.0384 128.678 55.183 128.582 55.4481 128.63L57.2195 128.919C57.4605 128.967 57.5689 129.1 57.5448 129.317L57.4002 130.04C57.0387 131.437 56.2073 132.57 54.9059 133.438C53.6045 134.305 52.0741 134.739 50.3148 134.739Z" fill="black"/>
<path d="M68.5175 115.869C70.6865 115.869 72.3614 116.423 73.5423 117.532C74.7232 118.64 75.3137 120.111 75.3137 121.942V134.088C75.3137 134.329 75.1932 134.45 74.9522 134.45H73.1085C72.8675 134.45 72.747 134.329 72.747 134.088V132.606C72.747 132.558 72.7229 132.522 72.6747 132.498C72.6506 132.474 72.6145 132.486 72.5663 132.534C71.9638 133.257 71.1805 133.811 70.2165 134.197C69.2525 134.558 68.1801 134.739 66.9992 134.739C65.2881 134.739 63.8541 134.305 62.6973 133.438C61.5405 132.57 60.9621 131.245 60.9621 129.461C60.9621 127.654 61.6128 126.232 62.9142 125.196C64.2397 124.135 66.0713 123.605 68.409 123.605H72.6024C72.6988 123.605 72.747 123.557 72.747 123.46V122.087C72.747 120.858 72.3976 119.894 71.6987 119.195C71.0239 118.472 69.9635 118.11 68.5175 118.11C67.3607 118.11 66.4208 118.339 65.6978 118.797C64.9748 119.231 64.5289 119.845 64.3602 120.641C64.2879 120.882 64.1433 120.99 63.9264 120.966L61.9743 120.713C61.7092 120.665 61.6008 120.568 61.649 120.424C61.8418 119.074 62.5648 117.978 63.818 117.134C65.0712 116.291 66.6377 115.869 68.5175 115.869ZM67.5053 132.534C68.9272 132.534 70.1563 132.185 71.1926 131.486C72.2289 130.763 72.747 129.799 72.747 128.594V125.774C72.747 125.678 72.6988 125.629 72.6024 125.629H68.8067C67.2161 125.629 65.9388 125.955 64.9748 126.605C64.0108 127.256 63.5288 128.16 63.5288 129.317C63.5288 130.377 63.8903 131.184 64.6133 131.739C65.3604 132.269 66.3244 132.534 67.5053 132.534Z" fill="black"/>
<path d="M92.0057 109.506C92.0057 109.265 92.1262 109.145 92.3672 109.145H94.2108C94.4518 109.145 94.5723 109.265 94.5723 109.506V134.088C94.5723 134.329 94.4518 134.45 94.2108 134.45H92.3672C92.1262 134.45 92.0057 134.329 92.0057 134.088V132.57C92.0057 132.522 91.9816 132.498 91.9334 132.498C91.9093 132.474 91.8731 132.486 91.8249 132.534C91.2947 133.233 90.632 133.775 89.8367 134.161C89.0655 134.546 88.1979 134.739 87.2339 134.739C85.5469 134.739 84.125 134.305 82.9682 133.438C81.8355 132.57 81.0522 131.389 80.6184 129.895C80.281 128.811 80.1123 127.28 80.1123 125.304C80.1123 123.304 80.2569 121.81 80.5461 120.821C80.9799 119.279 81.7752 118.074 82.932 117.206C84.0888 116.315 85.5228 115.869 87.2339 115.869C88.1738 115.869 89.0414 116.062 89.8367 116.447C90.632 116.809 91.2947 117.339 91.8249 118.038C91.8731 118.086 91.9093 118.11 91.9334 118.11C91.9816 118.086 92.0057 118.05 92.0057 118.002V109.506ZM91.355 129.714C91.5719 129.232 91.7285 128.666 91.8249 128.015C91.9213 127.365 91.9695 126.461 91.9695 125.304C91.9695 124.147 91.9213 123.243 91.8249 122.593C91.7285 121.918 91.5598 121.328 91.3188 120.821C91.0296 120.002 90.5476 119.351 89.8728 118.869C89.2221 118.363 88.4389 118.11 87.5231 118.11C86.5591 118.11 85.7276 118.351 85.0287 118.833C84.3298 119.315 83.8237 119.954 83.5104 120.749C83.2212 121.279 83.0043 121.882 82.8597 122.557C82.7392 123.207 82.679 124.123 82.679 125.304C82.679 126.437 82.7272 127.328 82.8236 127.979C82.92 128.606 83.0887 129.172 83.3297 129.678C83.6189 130.546 84.125 131.233 84.848 131.739C85.5951 132.245 86.4747 132.498 87.4869 132.498C88.4509 132.498 89.2583 132.245 89.909 131.739C90.5597 131.233 91.0417 130.558 91.355 129.714Z" fill="black"/>
<path d="M114.415 122.231C114.511 122.906 114.56 123.75 114.56 124.762V125.919C114.56 126.16 114.439 126.28 114.198 126.28H102.522C102.425 126.28 102.377 126.328 102.377 126.425C102.425 127.75 102.498 128.606 102.594 128.991C102.859 130.076 103.425 130.931 104.293 131.558C105.161 132.185 106.269 132.498 107.619 132.498C108.631 132.498 109.523 132.269 110.294 131.811C111.065 131.353 111.668 130.702 112.101 129.859C112.246 129.642 112.415 129.594 112.607 129.714L114.017 130.546C114.21 130.666 114.258 130.835 114.162 131.052C113.559 132.209 112.656 133.124 111.451 133.799C110.246 134.45 108.86 134.775 107.293 134.775C105.582 134.751 104.148 134.342 102.992 133.546C101.835 132.751 101.003 131.642 100.497 130.22C100.063 129.064 99.8465 127.401 99.8465 125.232C99.8465 124.22 99.8586 123.4 99.8827 122.774C99.9309 122.123 100.027 121.544 100.172 121.038C100.582 119.472 101.401 118.219 102.63 117.279C103.883 116.339 105.39 115.869 107.149 115.869C109.342 115.869 111.029 116.423 112.21 117.532C113.391 118.64 114.126 120.207 114.415 122.231ZM107.149 118.11C105.968 118.11 104.98 118.423 104.185 119.05C103.413 119.653 102.907 120.472 102.666 121.508C102.522 122.014 102.425 122.834 102.377 123.966C102.377 124.063 102.425 124.111 102.522 124.111H111.884C111.981 124.111 112.029 124.063 112.029 123.966C111.981 122.882 111.909 122.111 111.812 121.653C111.547 120.568 111.005 119.713 110.185 119.086C109.39 118.436 108.378 118.11 107.149 118.11Z" fill="black"/>
<path d="M138.173 115.905C139.98 115.905 141.402 116.447 142.439 117.532C143.499 118.616 144.029 120.098 144.029 121.978V134.088C144.029 134.329 143.909 134.45 143.668 134.45H141.86C141.619 134.45 141.499 134.329 141.499 134.088V122.484C141.499 121.159 141.113 120.11 140.342 119.339C139.595 118.544 138.607 118.146 137.378 118.146C136.1 118.146 135.064 118.532 134.269 119.303C133.497 120.074 133.112 121.111 133.112 122.412V134.088C133.112 134.329 132.991 134.45 132.75 134.45H130.907C130.666 134.45 130.545 134.329 130.545 134.088V122.484C130.545 121.159 130.172 120.11 129.425 119.339C128.677 118.544 127.677 118.146 126.424 118.146C125.147 118.146 124.123 118.532 123.351 119.303C122.604 120.074 122.231 121.111 122.231 122.412V134.088C122.231 134.329 122.11 134.45 121.869 134.45H120.026C119.785 134.45 119.664 134.329 119.664 134.088V116.52C119.664 116.279 119.785 116.158 120.026 116.158H121.869C122.11 116.158 122.231 116.279 122.231 116.52V117.966C122.231 118.014 122.243 118.05 122.267 118.074C122.315 118.074 122.363 118.05 122.411 118.002C122.942 117.303 123.616 116.785 124.436 116.447C125.279 116.086 126.207 115.905 127.219 115.905C128.473 115.905 129.545 116.158 130.437 116.664C131.328 117.17 132.003 117.905 132.461 118.869C132.509 118.99 132.57 118.99 132.642 118.869C133.172 117.881 133.919 117.146 134.883 116.664C135.847 116.158 136.944 115.905 138.173 115.905Z" fill="black"/>
<path d="M151.301 112.832C150.722 112.832 150.24 112.639 149.855 112.254C149.469 111.868 149.276 111.386 149.276 110.808C149.276 110.205 149.469 109.723 149.855 109.362C150.24 108.976 150.722 108.783 151.301 108.783C151.879 108.783 152.361 108.976 152.747 109.362C153.132 109.723 153.325 110.205 153.325 110.808C153.325 111.386 153.132 111.868 152.747 112.254C152.361 112.639 151.879 112.832 151.301 112.832ZM150.288 134.414C150.047 134.414 149.927 134.293 149.927 134.052V116.483C149.927 116.242 150.047 116.122 150.288 116.122H152.132C152.373 116.122 152.494 116.242 152.494 116.483V134.052C152.494 134.293 152.373 134.414 152.132 134.414H150.288Z" fill="black"/>
<path d="M165.106 115.869C167.275 115.869 168.95 116.423 170.131 117.532C171.312 118.64 171.902 120.111 171.902 121.942V134.088C171.902 134.329 171.781 134.45 171.54 134.45H169.697C169.456 134.45 169.335 134.329 169.335 134.088V132.606C169.335 132.558 169.311 132.522 169.263 132.498C169.239 132.474 169.203 132.486 169.155 132.534C168.552 133.257 167.769 133.811 166.805 134.197C165.841 134.558 164.768 134.739 163.587 134.739C161.876 134.739 160.442 134.305 159.286 133.438C158.129 132.57 157.55 131.245 157.55 129.461C157.55 127.654 158.201 126.232 159.503 125.196C160.828 124.135 162.66 123.605 164.997 123.605H169.191C169.287 123.605 169.335 123.557 169.335 123.46V122.087C169.335 120.858 168.986 119.894 168.287 119.195C167.612 118.472 166.552 118.11 165.106 118.11C163.949 118.11 163.009 118.339 162.286 118.797C161.563 119.231 161.117 119.845 160.949 120.641C160.876 120.882 160.732 120.99 160.515 120.966L158.563 120.713C158.298 120.665 158.189 120.568 158.237 120.424C158.43 119.074 159.153 117.978 160.406 117.134C161.659 116.291 163.226 115.869 165.106 115.869ZM164.094 132.534C165.515 132.534 166.745 132.185 167.781 131.486C168.817 130.763 169.335 129.799 169.335 128.594V125.774C169.335 125.678 169.287 125.629 169.191 125.629H165.395C163.804 125.629 162.527 125.955 161.563 126.605C160.599 127.256 160.117 128.16 160.117 129.317C160.117 130.377 160.479 131.184 161.202 131.739C161.949 132.269 162.913 132.534 164.094 132.534Z" fill="black"/>
<path d="M95.8221 26.2892C93.0988 26.2892 90.9418 25.6747 89.3512 24.4456C87.7847 23.2165 87.0015 21.5777 87.0015 19.5292V18.4085C87.0015 18.1675 87.122 18.047 87.363 18.047H89.1343C89.3753 18.047 89.4958 18.1675 89.4958 18.4085V19.3846C89.4958 20.7824 90.0742 21.915 91.231 22.7826C92.3878 23.6262 93.9905 24.0479 96.039 24.0479C97.8947 24.0479 99.3045 23.6623 100.269 22.8911C101.233 22.0958 101.715 21.0475 101.715 19.746C101.715 18.9025 101.486 18.1796 101.028 17.5771C100.594 16.9746 99.907 16.4082 98.9671 15.878C98.0513 15.3478 96.7499 14.7332 95.0629 14.0343C93.2554 13.3113 91.8456 12.6847 90.8334 12.1545C89.8453 11.6002 89.0379 10.9013 88.4113 10.0578C87.8088 9.19025 87.5076 8.10575 87.5076 6.80435C87.5076 4.77995 88.2065 3.21345 89.6043 2.10485C91.0262 0.97215 92.9662 0.4058 95.4244 0.4058C98.0995 0.4058 100.208 1.0324 101.751 2.2856C103.293 3.5388 104.064 5.2017 104.064 7.2743V8.0696C104.064 8.3106 103.944 8.4311 103.703 8.4311H101.895C101.654 8.4311 101.534 8.3106 101.534 8.0696V7.4189C101.534 6.0211 100.979 4.87635 99.8709 3.98465C98.7864 3.09295 97.2681 2.6471 95.316 2.6471C93.6049 2.6471 92.2914 2.99655 91.3756 3.69545C90.4598 4.39435 90.0019 5.40655 90.0019 6.73205C90.0019 7.59965 90.2188 8.32265 90.6526 8.90105C91.1105 9.45535 91.7492 9.9494 92.5686 10.3832C93.4121 10.7929 94.7014 11.3351 96.4366 12.0099C98.1959 12.7329 99.6058 13.4077 100.666 14.0343C101.751 14.661 102.618 15.4322 103.269 16.3479C103.944 17.2397 104.281 18.3362 104.281 19.6376C104.281 21.662 103.534 23.2767 102.04 24.4817C100.546 25.6867 98.4731 26.2892 95.8221 26.2892Z" fill="black"/>
<path d="M116.102 26.2892C114.366 26.2892 112.872 25.8434 111.619 24.9517C110.366 24.06 109.498 22.8309 109.016 21.2644C108.679 20.1558 108.51 18.6736 108.51 16.8179C108.51 14.9622 108.679 13.4921 109.016 12.4076C109.474 10.8652 110.33 9.64815 111.583 8.75645C112.836 7.86475 114.354 7.4189 116.138 7.4189C117.849 7.4189 119.319 7.86475 120.548 8.75645C121.801 9.64815 122.657 10.8531 123.115 12.3715C123.452 13.4078 123.621 14.8899 123.621 16.8179C123.621 18.77 123.452 20.2522 123.115 21.2644C122.657 22.8309 121.801 24.06 120.548 24.9517C119.319 25.8434 117.837 26.2892 116.102 26.2892ZM116.102 24.0479C117.258 24.0479 118.247 23.7346 119.066 23.108C119.885 22.4573 120.44 21.5897 120.729 20.5052C120.946 19.6376 121.054 18.4206 121.054 16.854C121.054 15.2635 120.958 14.0464 120.765 13.2029C120.476 12.1184 119.909 11.2629 119.066 10.6363C118.247 9.98555 117.246 9.6602 116.065 9.6602C114.885 9.6602 113.884 9.98555 113.065 10.6363C112.246 11.2629 111.691 12.1184 111.402 13.2029C111.209 14.0464 111.113 15.2635 111.113 16.854C111.113 18.4447 111.209 19.6617 111.402 20.5052C111.667 21.5897 112.21 22.4573 113.029 23.108C113.872 23.7346 114.897 24.0479 116.102 24.0479Z" fill="black"/>
<path d="M135.842 2.9363C134.516 2.9363 133.613 3.23755 133.131 3.84005C132.649 4.41845 132.408 5.4186 132.408 6.8405V7.5635C132.408 7.6599 132.456 7.7081 132.552 7.7081H136.601C136.842 7.7081 136.962 7.8286 136.962 8.0696V9.69635C136.962 9.93735 136.842 10.0578 136.601 10.0578H132.552C132.456 10.0578 132.408 10.106 132.408 10.2024V25.6385C132.408 25.8795 132.287 26 132.046 26H130.239C129.998 26 129.877 25.8795 129.877 25.6385V10.2024C129.877 10.106 129.829 10.0578 129.732 10.0578H127.31C127.069 10.0578 126.949 9.93735 126.949 9.69635V8.0696C126.949 7.8286 127.069 7.7081 127.31 7.7081H129.732C129.829 7.7081 129.877 7.6599 129.877 7.5635V6.6959C129.877 5.2017 130.046 4.03285 130.383 3.18935C130.721 2.32175 131.299 1.69515 132.118 1.30955C132.962 0.899849 134.131 0.694998 135.625 0.694998H136.673C136.914 0.694998 137.035 0.815498 137.035 1.0565V2.5748C137.035 2.8158 136.914 2.9363 136.673 2.9363H135.842Z" fill="black"/>
<path d="M149.703 9.47945C149.703 9.72045 149.583 9.84095 149.342 9.84095H145.257C145.161 9.84095 145.112 9.88915 145.112 9.98555V20.6498C145.112 21.8066 145.365 22.626 145.871 23.108C146.402 23.5659 147.221 23.7949 148.33 23.7949H149.233C149.474 23.7949 149.595 23.9154 149.595 24.1564V25.6385C149.595 25.8795 149.474 26 149.233 26C148.944 26.0241 148.498 26.0362 147.896 26.0362C146.161 26.0362 144.847 25.7108 143.956 25.0601C143.064 24.4094 142.618 23.2044 142.618 21.4451V9.98555C142.618 9.88915 142.57 9.84095 142.473 9.84095H140.268C140.027 9.84095 139.907 9.72045 139.907 9.47945V8.0696C139.907 7.8286 140.027 7.7081 140.268 7.7081H142.473C142.57 7.7081 142.618 7.6599 142.618 7.5635V3.3701C142.618 3.1291 142.738 3.0086 142.979 3.0086H144.751C144.992 3.0086 145.112 3.1291 145.112 3.3701V7.5635C145.112 7.6599 145.161 7.7081 145.257 7.7081H149.342C149.583 7.7081 149.703 7.8286 149.703 8.0696V9.47945Z" fill="black"/>
<path d="M158.461 26C158.268 26 158.136 25.9036 158.063 25.7108L152.93 8.10575L152.894 7.9973C152.894 7.8045 153.014 7.7081 153.255 7.7081H155.135C155.352 7.7081 155.485 7.81655 155.533 8.03345L159.365 22.2766C159.389 22.3248 159.413 22.3489 159.437 22.3489C159.485 22.3489 159.521 22.3248 159.545 22.2766L163.45 8.03345C163.498 7.81655 163.63 7.7081 163.847 7.7081H165.583C165.799 7.7081 165.932 7.8045 165.98 7.9973L169.921 22.2404C169.945 22.2886 169.981 22.3127 170.029 22.3127C170.077 22.3127 170.113 22.2886 170.137 22.2404L174.078 8.03345C174.126 7.81655 174.259 7.7081 174.475 7.7081L176.355 7.74425C176.476 7.74425 176.56 7.7804 176.608 7.8527C176.681 7.925 176.705 8.0214 176.681 8.1419L171.475 25.7108C171.403 25.9036 171.27 26 171.077 26H169.161C168.969 26 168.836 25.9036 168.764 25.7108L164.823 12.1907C164.799 12.1425 164.763 12.1184 164.715 12.1184C164.691 12.1184 164.667 12.1425 164.643 12.1907L160.811 25.7108C160.738 25.9036 160.606 26 160.413 26H158.461Z" fill="black"/>
<path d="M186.657 7.4189C188.826 7.4189 190.501 7.9732 191.681 9.0818C192.862 10.1904 193.453 11.6605 193.453 13.4921V25.6385C193.453 25.8795 193.332 26 193.091 26H191.248C191.007 26 190.886 25.8795 190.886 25.6385V24.1564C190.886 24.1082 190.862 24.072 190.814 24.0479C190.79 24.0238 190.754 24.0359 190.705 24.0841C190.103 24.8071 189.32 25.3614 188.356 25.747C187.392 26.1085 186.319 26.2892 185.138 26.2892C183.427 26.2892 181.993 25.8554 180.836 24.9878C179.68 24.1202 179.101 22.7947 179.101 21.0113C179.101 19.2038 179.752 17.7819 181.053 16.7456C182.379 15.6852 184.21 15.155 186.548 15.155H190.742C190.838 15.155 190.886 15.1068 190.886 15.0104V13.6367C190.886 12.4076 190.537 11.4436 189.838 10.7447C189.163 10.0217 188.103 9.6602 186.657 9.6602C185.5 9.6602 184.56 9.88915 183.837 10.347C183.114 10.7808 182.668 11.3954 182.499 12.1907C182.427 12.4317 182.282 12.5401 182.066 12.516L180.113 12.263C179.848 12.2148 179.74 12.1184 179.788 11.9738C179.981 10.6242 180.704 9.52765 181.957 8.68415C183.21 7.84065 184.777 7.4189 186.657 7.4189ZM185.644 24.0841C187.066 24.0841 188.295 23.7346 189.332 23.0357C190.368 22.3127 190.886 21.3487 190.886 20.1437V17.324C190.886 17.2276 190.838 17.1794 190.742 17.1794H186.946C185.355 17.1794 184.078 17.5048 183.114 18.1555C182.15 18.8062 181.668 19.7099 181.668 20.8667C181.668 21.9271 182.029 22.7345 182.752 23.2888C183.499 23.819 184.463 24.0841 185.644 24.0841Z" fill="black"/>
<path d="M206.168 7.52735C206.964 7.52735 207.65 7.684 208.229 7.9973C208.422 8.0937 208.494 8.25035 208.446 8.46725L208.048 10.2386C207.976 10.4796 207.819 10.5519 207.578 10.4555C207.168 10.2868 206.698 10.2024 206.168 10.2024L205.698 10.2386C204.445 10.2868 203.409 10.7567 202.589 11.6484C201.77 12.516 201.36 13.6247 201.36 14.9743V25.6385C201.36 25.8795 201.24 26 200.999 26H199.155C198.914 26 198.794 25.8795 198.794 25.6385V8.0696C198.794 7.8286 198.914 7.7081 199.155 7.7081H200.999C201.24 7.7081 201.36 7.8286 201.36 8.0696V10.2747C201.36 10.347 201.372 10.3952 201.396 10.4193C201.445 10.4193 201.481 10.3952 201.505 10.347C202.011 9.45535 202.65 8.7685 203.421 8.2865C204.216 7.7804 205.132 7.52735 206.168 7.52735Z" fill="black"/>
<path d="M225.811 13.7813C225.908 14.4561 225.956 15.2996 225.956 16.3118V17.4686C225.956 17.7096 225.835 17.8301 225.594 17.8301H213.918C213.822 17.8301 213.773 17.8783 213.773 17.9747C213.822 19.3002 213.894 20.1558 213.99 20.5414C214.255 21.6259 214.822 22.4814 215.689 23.108C216.557 23.7346 217.665 24.0479 219.015 24.0479C220.027 24.0479 220.919 23.819 221.69 23.3611C222.461 22.9032 223.064 22.2525 223.498 21.409C223.642 21.1921 223.811 21.1439 224.004 21.2644L225.414 22.0958C225.606 22.2163 225.655 22.385 225.558 22.6019C224.956 23.7587 224.052 24.6745 222.847 25.3493C221.642 26 220.256 26.3254 218.69 26.3254C216.979 26.3013 215.545 25.8916 214.388 25.0963C213.231 24.301 212.4 23.1924 211.894 21.7705C211.46 20.6137 211.243 18.9508 211.243 16.7817C211.243 15.7695 211.255 14.9502 211.279 14.3236C211.327 13.6728 211.424 13.0944 211.568 12.5883C211.978 11.0218 212.797 9.76865 214.026 8.82875C215.28 7.88885 216.786 7.4189 218.545 7.4189C220.738 7.4189 222.425 7.9732 223.606 9.0818C224.787 10.1904 225.522 11.7569 225.811 13.7813ZM218.545 9.6602C217.364 9.6602 216.376 9.9735 215.581 10.6001C214.81 11.2026 214.304 12.022 214.063 13.0583C213.918 13.5644 213.822 14.3838 213.773 15.5165C213.773 15.6129 213.822 15.6611 213.918 15.6611H223.281C223.377 15.6611 223.425 15.6129 223.425 15.5165C223.377 14.432 223.305 13.6608 223.208 13.2029C222.943 12.1184 222.401 11.2629 221.582 10.6363C220.786 9.98555 219.774 9.6602 218.545 9.6602Z" fill="black"/>
<path d="M540.24 105.53C539.999 105.53 539.878 105.41 539.878 105.169V80.5865C539.878 80.3455 539.999 80.225 540.24 80.225H542.083C542.324 80.225 542.445 80.3455 542.445 80.5865V105.169C542.445 105.41 542.324 105.53 542.083 105.53H540.24Z" fill="black"/>
<path d="M556.319 86.985C558.247 86.985 559.777 87.5514 560.91 88.6841C562.067 89.8168 562.645 91.3351 562.645 93.239V105.169C562.645 105.41 562.525 105.53 562.284 105.53H560.44C560.199 105.53 560.079 105.41 560.079 105.169V93.7451C560.079 92.4196 559.669 91.3351 558.849 90.4916C558.054 89.6481 557.018 89.2263 555.741 89.2263C554.415 89.2263 553.343 89.6361 552.523 90.4555C551.704 91.2749 551.294 92.3473 551.294 93.6728V105.169C551.294 105.41 551.174 105.53 550.933 105.53H549.089C548.848 105.53 548.727 105.41 548.727 105.169V87.5996C548.727 87.3586 548.848 87.2381 549.089 87.2381H550.933C551.174 87.2381 551.294 87.3586 551.294 87.5996V89.154C551.294 89.2022 551.306 89.2384 551.33 89.2625C551.378 89.2866 551.415 89.2745 551.439 89.2263C552.499 87.7321 554.126 86.985 556.319 86.985Z" fill="black"/>
<path d="M579.319 80.5865C579.319 80.3455 579.439 80.225 579.68 80.225H581.524C581.765 80.225 581.885 80.3455 581.885 80.5865V105.169C581.885 105.41 581.765 105.53 581.524 105.53H579.68C579.439 105.53 579.319 105.41 579.319 105.169V103.65C579.319 103.602 579.294 103.578 579.246 103.578C579.222 103.554 579.186 103.566 579.138 103.614C578.608 104.313 577.945 104.855 577.15 105.241C576.378 105.626 575.511 105.819 574.547 105.819C572.86 105.819 571.438 105.385 570.281 104.518C569.148 103.65 568.365 102.469 567.931 100.975C567.594 99.8906 567.425 98.3602 567.425 96.384C567.425 94.3837 567.57 92.8896 567.859 91.9015C568.293 90.3591 569.088 89.154 570.245 88.2864C571.402 87.3947 572.836 86.9489 574.547 86.9489C575.487 86.9489 576.354 87.1417 577.15 87.5273C577.945 87.8888 578.608 88.419 579.138 89.1179C579.186 89.1661 579.222 89.1902 579.246 89.1902C579.294 89.1661 579.319 89.1299 579.319 89.0817V80.5865ZM578.668 100.794C578.885 100.312 579.041 99.746 579.138 99.0953C579.234 98.4446 579.282 97.5408 579.282 96.384C579.282 95.2272 579.234 94.3235 579.138 93.6728C579.041 92.998 578.873 92.4076 578.632 91.9015C578.342 91.0821 577.86 90.4313 577.186 89.9493C576.535 89.4432 575.752 89.1902 574.836 89.1902C573.872 89.1902 573.04 89.4312 572.342 89.9132C571.643 90.3952 571.137 91.0338 570.823 91.8291C570.534 92.3593 570.317 92.9619 570.173 93.6367C570.052 94.2874 569.992 95.2031 569.992 96.384C569.992 97.5167 570.04 98.4085 570.136 99.0592C570.233 99.6858 570.402 100.252 570.643 100.758C570.932 101.626 571.438 102.313 572.161 102.819C572.908 103.325 573.788 103.578 574.8 103.578C575.764 103.578 576.571 103.325 577.222 102.819C577.873 102.313 578.355 101.638 578.668 100.794Z" fill="black"/>
<path d="M598.764 87.5996C598.764 87.3586 598.884 87.2381 599.125 87.2381H600.969C601.21 87.2381 601.33 87.3586 601.33 87.5996V105.169C601.33 105.41 601.21 105.53 600.969 105.53H599.125C598.884 105.53 598.764 105.41 598.764 105.169V103.614C598.764 103.566 598.739 103.53 598.691 103.506C598.643 103.481 598.607 103.494 598.583 103.542C597.571 105.036 595.968 105.783 593.775 105.783C592.618 105.783 591.546 105.554 590.557 105.096C589.593 104.614 588.822 103.927 588.244 103.036C587.69 102.144 587.412 101.071 587.412 99.8183V87.5996C587.412 87.3586 587.533 87.2381 587.774 87.2381H589.618C589.859 87.2381 589.979 87.3586 589.979 87.5996V99.0592C589.979 100.433 590.365 101.529 591.136 102.349C591.907 103.144 592.955 103.542 594.281 103.542C595.655 103.542 596.739 103.132 597.534 102.313C598.354 101.493 598.764 100.409 598.764 99.0592V87.5996Z" fill="black"/>
<path d="M613.084 105.711C611.734 105.711 610.529 105.494 609.469 105.06C608.432 104.626 607.625 104.048 607.047 103.325C606.492 102.602 606.215 101.795 606.215 100.903V100.469C606.215 100.228 606.336 100.107 606.577 100.107H608.312C608.553 100.107 608.673 100.228 608.673 100.469V100.758C608.673 101.554 609.083 102.252 609.903 102.855C610.746 103.433 611.794 103.722 613.048 103.722C614.301 103.722 615.313 103.445 616.084 102.891C616.855 102.313 617.241 101.59 617.241 100.722C617.241 100.12 617.036 99.6255 616.626 99.2399C616.241 98.8543 615.771 98.5531 615.217 98.3362C614.686 98.1193 613.855 97.8421 612.722 97.5047C611.373 97.1191 610.264 96.7335 609.396 96.3479C608.529 95.9623 607.794 95.4321 607.191 94.7573C606.613 94.0584 606.324 93.1787 606.324 92.1183C606.324 90.5759 606.926 89.3468 608.131 88.431C609.336 87.5152 610.927 87.0574 612.903 87.0574C614.229 87.0574 615.397 87.2742 616.41 87.708C617.446 88.1418 618.241 88.7443 618.795 89.5155C619.35 90.2626 619.627 91.1062 619.627 92.0461V92.1545C619.627 92.3955 619.506 92.516 619.265 92.516H617.566C617.325 92.516 617.205 92.3955 617.205 92.1545V92.0461C617.205 91.2267 616.807 90.5398 616.012 89.9855C615.241 89.4312 614.192 89.154 612.867 89.154C611.638 89.154 610.65 89.4071 609.903 89.9132C609.155 90.3952 608.782 91.07 608.782 91.9376C608.782 92.757 609.143 93.3836 609.866 93.8174C610.589 94.2512 611.71 94.685 613.228 95.1188C614.626 95.5285 615.759 95.9141 616.626 96.2756C617.494 96.6371 618.241 97.1673 618.868 97.8662C619.494 98.541 619.808 99.4327 619.808 100.541C619.808 102.108 619.193 103.361 617.964 104.301C616.735 105.241 615.108 105.711 613.084 105.711Z" fill="black"/>
<path d="M632.658 89.0094C632.658 89.2504 632.537 89.3709 632.296 89.3709H628.211C628.115 89.3709 628.067 89.4191 628.067 89.5155V100.18C628.067 101.337 628.32 102.156 628.826 102.638C629.356 103.096 630.176 103.325 631.284 103.325H632.188C632.429 103.325 632.549 103.445 632.549 103.686V105.169C632.549 105.41 632.429 105.53 632.188 105.53C631.899 105.554 631.453 105.566 630.85 105.566C629.115 105.566 627.802 105.241 626.91 104.59C626.018 103.939 625.572 102.734 625.572 100.975V89.5155C625.572 89.4191 625.524 89.3709 625.428 89.3709H623.223C622.982 89.3709 622.861 89.2504 622.861 89.0094V87.5996C622.861 87.3586 622.982 87.2381 623.223 87.2381H625.428C625.524 87.2381 625.572 87.1899 625.572 87.0935V82.9001C625.572 82.6591 625.693 82.5386 625.934 82.5386H627.705C627.946 82.5386 628.067 82.6591 628.067 82.9001V87.0935C628.067 87.1899 628.115 87.2381 628.211 87.2381H632.296C632.537 87.2381 632.658 87.3586 632.658 87.5996V89.0094Z" fill="black"/>
<path d="M644.994 87.0574C645.79 87.0574 646.476 87.214 647.055 87.5273C647.248 87.6237 647.32 87.7803 647.272 87.9972L646.874 89.7686C646.802 90.0096 646.645 90.0819 646.404 89.9855C645.994 89.8168 645.525 89.7325 644.994 89.7325L644.524 89.7686C643.271 89.8168 642.235 90.2868 641.415 91.1785C640.596 92.0461 640.186 93.1546 640.186 94.5042V105.169C640.186 105.41 640.066 105.53 639.825 105.53H637.981C637.74 105.53 637.62 105.41 637.62 105.169V87.5996C637.62 87.3586 637.74 87.2381 637.981 87.2381H639.825C640.066 87.2381 640.186 87.3586 640.186 87.5996V89.8047C640.186 89.877 640.198 89.9252 640.223 89.9493C640.271 89.9493 640.307 89.9252 640.331 89.877C640.837 88.9853 641.476 88.2985 642.247 87.8165C643.042 87.3104 643.958 87.0574 644.994 87.0574Z" fill="black"/>
<path d="M650.98 112.76C650.811 112.76 650.727 112.639 650.727 112.398V110.952C650.727 110.711 650.847 110.591 651.088 110.591H651.233C652.173 110.567 652.896 110.422 653.402 110.157C653.932 109.916 654.378 109.446 654.74 108.747C655.125 108.073 655.535 107.036 655.969 105.638C656.017 105.542 656.017 105.47 655.969 105.422L649.859 87.6357L649.823 87.4911C649.823 87.3224 649.932 87.2381 650.149 87.2381H652.064C652.281 87.2381 652.426 87.3345 652.498 87.5273L657.198 102.132C657.222 102.18 657.258 102.204 657.306 102.204C657.354 102.204 657.391 102.18 657.415 102.132L662.042 87.5273C662.114 87.3345 662.259 87.2381 662.476 87.2381H664.355C664.621 87.2381 664.717 87.3706 664.645 87.6357L657.957 107.121C657.379 108.735 656.836 109.928 656.33 110.699C655.824 111.471 655.185 112.001 654.414 112.29C653.667 112.603 652.607 112.76 651.233 112.76H650.98Z" fill="black"/>
<path d="M566.547 315.531C566.547 315.772 566.426 315.892 566.185 315.892H552.918C552.822 315.892 552.774 315.94 552.774 316.037V324.966C552.774 325.062 552.822 325.11 552.918 325.11H562.209C562.45 325.11 562.57 325.231 562.57 325.472V326.99C562.57 327.231 562.45 327.352 562.209 327.352H552.918C552.822 327.352 552.774 327.4 552.774 327.496V338.594C552.774 338.835 552.653 338.956 552.412 338.956H550.568C550.327 338.956 550.207 338.835 550.207 338.594V314.012C550.207 313.771 550.327 313.651 550.568 313.651H566.185C566.426 313.651 566.547 313.771 566.547 314.012V315.531Z" fill="black"/>
<path d="M580.779 321.025C580.779 320.784 580.9 320.664 581.141 320.664H582.985C583.226 320.664 583.346 320.784 583.346 321.025V338.594C583.346 338.835 583.226 338.956 582.985 338.956H581.141C580.9 338.956 580.779 338.835 580.779 338.594V337.04C580.779 336.992 580.755 336.955 580.707 336.931C580.659 336.907 580.623 336.919 580.599 336.967C579.586 338.462 577.984 339.209 575.791 339.209C574.634 339.209 573.561 338.98 572.573 338.522C571.609 338.04 570.838 337.353 570.26 336.461C569.705 335.57 569.428 334.497 569.428 333.244V321.025C569.428 320.784 569.549 320.664 569.79 320.664H571.633C571.874 320.664 571.995 320.784 571.995 321.025V332.485C571.995 333.859 572.381 334.955 573.152 335.775C573.923 336.57 574.971 336.967 576.297 336.967C577.67 336.967 578.755 336.558 579.55 335.738C580.37 334.919 580.779 333.834 580.779 332.485V321.025Z" fill="black"/>
<path d="M596.69 320.411C598.618 320.411 600.149 320.977 601.281 322.11C602.438 323.243 603.016 324.761 603.016 326.665V338.594C603.016 338.835 602.896 338.956 602.655 338.956H600.811C600.57 338.956 600.45 338.835 600.45 338.594V327.171C600.45 325.845 600.04 324.761 599.221 323.917C598.425 323.074 597.389 322.652 596.112 322.652C594.786 322.652 593.714 323.062 592.894 323.881C592.075 324.701 591.665 325.773 591.665 327.099V338.594C591.665 338.835 591.545 338.956 591.304 338.956H589.46C589.219 338.956 589.099 338.835 589.099 338.594V321.025C589.099 320.784 589.219 320.664 589.46 320.664H591.304C591.545 320.664 591.665 320.784 591.665 321.025V322.58C591.665 322.628 591.677 322.664 591.701 322.688C591.75 322.712 591.786 322.7 591.81 322.652C592.87 321.158 594.497 320.411 596.69 320.411Z" fill="black"/>
<path d="M619.69 314.012C619.69 313.771 619.81 313.651 620.051 313.651H621.895C622.136 313.651 622.256 313.771 622.256 314.012V338.594C622.256 338.835 622.136 338.956 621.895 338.956H620.051C619.81 338.956 619.69 338.835 619.69 338.594V337.076C619.69 337.028 619.666 337.004 619.617 337.004C619.593 336.98 619.557 336.992 619.509 337.04C618.979 337.739 618.316 338.281 617.521 338.667C616.75 339.052 615.882 339.245 614.918 339.245C613.231 339.245 611.809 338.811 610.652 337.944C609.52 337.076 608.736 335.895 608.303 334.401C607.965 333.316 607.796 331.786 607.796 329.81C607.796 327.809 607.941 326.315 608.23 325.327C608.664 323.785 609.459 322.58 610.616 321.712C611.773 320.82 613.207 320.375 614.918 320.375C615.858 320.375 616.725 320.567 617.521 320.953C618.316 321.315 618.979 321.845 619.509 322.544C619.557 322.592 619.593 322.616 619.617 322.616C619.666 322.592 619.69 322.556 619.69 322.507V314.012ZM619.039 334.22C619.256 333.738 619.413 333.172 619.509 332.521C619.605 331.87 619.654 330.967 619.654 329.81C619.654 328.653 619.605 327.749 619.509 327.099C619.413 326.424 619.244 325.833 619.003 325.327C618.714 324.508 618.232 323.857 617.557 323.375C616.906 322.869 616.123 322.616 615.207 322.616C614.243 322.616 613.412 322.857 612.713 323.339C612.014 323.821 611.508 324.46 611.195 325.255C610.905 325.785 610.688 326.388 610.544 327.062C610.423 327.713 610.363 328.629 610.363 329.81C610.363 330.942 610.411 331.834 610.508 332.485C610.604 333.111 610.773 333.678 611.014 334.184C611.303 335.052 611.809 335.738 612.532 336.244C613.279 336.751 614.159 337.004 615.171 337.004C616.135 337.004 616.942 336.751 617.593 336.244C618.244 335.738 618.726 335.064 619.039 334.22Z" fill="black"/>
<path d="M629.808 317.338C629.23 317.338 628.748 317.145 628.362 316.76C627.977 316.374 627.784 315.892 627.784 315.314C627.784 314.711 627.977 314.229 628.362 313.868C628.748 313.482 629.23 313.289 629.808 313.289C630.387 313.289 630.868 313.482 631.254 313.868C631.64 314.229 631.833 314.711 631.833 315.314C631.833 315.892 631.64 316.374 631.254 316.76C630.868 317.145 630.387 317.338 629.808 317.338ZM628.796 338.92C628.555 338.92 628.434 338.799 628.434 338.558V320.989C628.434 320.748 628.555 320.628 628.796 320.628H630.64C630.881 320.628 631.001 320.748 631.001 320.989V338.558C631.001 338.799 630.881 338.92 630.64 338.92H628.796Z" fill="black"/>
<path d="M644.878 320.411C646.806 320.411 648.337 320.977 649.469 322.11C650.626 323.243 651.205 324.761 651.205 326.665V338.594C651.205 338.835 651.084 338.956 650.843 338.956H649C648.759 338.956 648.638 338.835 648.638 338.594V327.171C648.638 325.845 648.228 324.761 647.409 323.917C646.614 323.074 645.577 322.652 644.3 322.652C642.975 322.652 641.902 323.062 641.083 323.881C640.263 324.701 639.854 325.773 639.854 327.099V338.594C639.854 338.835 639.733 338.956 639.492 338.956H637.648C637.407 338.956 637.287 338.835 637.287 338.594V321.025C637.287 320.784 637.407 320.664 637.648 320.664H639.492C639.733 320.664 639.854 320.784 639.854 321.025V322.58C639.854 322.628 639.866 322.664 639.89 322.688C639.938 322.712 639.974 322.7 639.998 322.652C641.059 321.158 642.685 320.411 644.878 320.411Z" fill="black"/>
<path d="M668.053 321.025C668.053 320.784 668.173 320.664 668.414 320.664H670.258C670.499 320.664 670.62 320.784 670.62 321.025V338.341C670.62 341.04 669.836 343.017 668.27 344.27C666.727 345.523 664.594 346.15 661.871 346.15C661.317 346.15 660.895 346.138 660.606 346.113C660.365 346.089 660.244 345.957 660.244 345.716L660.317 344.053C660.317 343.932 660.353 343.836 660.425 343.764C660.497 343.715 660.582 343.703 660.678 343.728L661.654 343.764C663.896 343.764 665.522 343.318 666.535 342.426C667.547 341.559 668.053 340.173 668.053 338.269V336.931C668.053 336.883 668.029 336.859 667.981 336.859C667.956 336.835 667.92 336.847 667.872 336.895C666.763 338.341 665.185 339.064 663.136 339.064C661.57 339.064 660.172 338.642 658.943 337.799C657.738 336.955 656.931 335.762 656.521 334.22C656.232 333.232 656.087 331.762 656.087 329.81C656.087 328.749 656.111 327.858 656.159 327.135C656.232 326.412 656.364 325.761 656.557 325.183C656.991 323.737 657.774 322.58 658.907 321.712C660.04 320.82 661.401 320.375 662.992 320.375C665.137 320.375 666.763 321.086 667.872 322.507C667.92 322.556 667.956 322.568 667.981 322.544C668.029 322.52 668.053 322.483 668.053 322.435V321.025ZM667.872 333.425C667.944 333.063 667.993 332.617 668.017 332.087C668.041 331.557 668.053 330.786 668.053 329.774C668.053 328.545 668.041 327.725 668.017 327.315C667.993 326.882 667.932 326.484 667.836 326.122C667.643 325.11 667.161 324.279 666.39 323.628C665.643 322.953 664.691 322.616 663.534 322.616C662.401 322.616 661.437 322.941 660.642 323.592C659.871 324.243 659.329 325.086 659.015 326.122C658.774 326.894 658.654 328.099 658.654 329.737C658.654 331.497 658.774 332.714 659.015 333.389C659.256 334.401 659.774 335.244 660.57 335.919C661.389 336.57 662.377 336.895 663.534 336.895C664.715 336.895 665.679 336.57 666.426 335.919C667.197 335.268 667.679 334.437 667.872 333.425Z" fill="black"/>
<path d="M22.7321 272.109C21.021 272.109 19.5148 271.76 18.2134 271.061C16.912 270.362 15.8998 269.386 15.1768 268.133C14.4779 266.855 14.1284 265.385 14.1284 263.722V254.613C14.1284 252.95 14.4779 251.492 15.1768 250.238C15.8998 248.961 16.912 247.973 18.2134 247.274C19.5148 246.575 21.021 246.226 22.7321 246.226C24.4432 246.226 25.9495 246.575 27.2509 247.274C28.5764 247.973 29.5886 248.961 30.2875 250.238C31.0105 251.492 31.372 252.95 31.372 254.613V263.722C31.372 265.385 31.0105 266.855 30.2875 268.133C29.5886 269.386 28.5764 270.362 27.2509 271.061C25.9495 271.76 24.4432 272.109 22.7321 272.109ZM22.7321 269.904C24.5637 269.904 26.0339 269.35 27.1425 268.241C28.2511 267.133 28.8053 265.662 28.8053 263.831V254.576C28.8053 252.745 28.2511 251.275 27.1425 250.166C26.0339 249.033 24.5637 248.467 22.7321 248.467C20.9246 248.467 19.4666 249.033 18.358 250.166C17.2494 251.275 16.6951 252.745 16.6951 254.576V263.831C16.6951 265.662 17.2494 267.133 18.358 268.241C19.4666 269.35 20.9246 269.904 22.7321 269.904Z" fill="black"/>
<path d="M51.1124 258.083C51.4739 259.24 51.6547 260.77 51.6547 262.674C51.6547 264.602 51.498 266.096 51.1847 267.157C50.7509 268.699 49.9556 269.916 48.7988 270.808C47.6661 271.675 46.2322 272.109 44.497 272.109C43.5571 272.109 42.6895 271.928 41.8942 271.567C41.0989 271.181 40.4361 270.639 39.9059 269.94C39.8577 269.892 39.8095 269.88 39.7613 269.904C39.7372 269.904 39.7252 269.928 39.7252 269.976V278.472C39.7252 278.713 39.6047 278.833 39.3637 278.833H37.52C37.279 278.833 37.1585 278.713 37.1585 278.472V253.89C37.1585 253.649 37.279 253.528 37.52 253.528H39.3637C39.6047 253.528 39.7252 253.649 39.7252 253.89V255.408C39.7252 255.456 39.7372 255.492 39.7613 255.516C39.8095 255.516 39.8577 255.492 39.9059 255.444C40.4361 254.745 41.0868 254.203 41.858 253.817C42.6533 253.432 43.533 253.239 44.497 253.239C46.184 253.239 47.5938 253.673 48.7265 254.54C49.8833 255.408 50.6786 256.589 51.1124 258.083ZM48.2566 267.229C48.5217 266.699 48.7145 266.108 48.835 265.458C48.9796 264.783 49.0519 263.855 49.0519 262.674C49.0519 261.541 49.0037 260.662 48.9073 260.035C48.8109 259.384 48.6422 258.806 48.4012 258.3C48.112 257.432 47.5938 256.745 46.8467 256.239C46.1237 255.733 45.2561 255.48 44.2439 255.48C43.2799 255.48 42.4726 255.733 41.8219 256.239C41.1712 256.745 40.6892 257.42 40.3759 258.264C40.159 258.746 40.0023 259.312 39.9059 259.963C39.8095 260.614 39.7613 261.517 39.7613 262.674C39.7613 263.831 39.8095 264.747 39.9059 265.421C40.0023 266.072 40.171 266.651 40.412 267.157C40.7012 267.976 41.1712 268.639 41.8219 269.145C42.4967 269.627 43.292 269.868 44.2078 269.868C45.1718 269.868 46.0032 269.627 46.7021 269.145C47.4251 268.663 47.9433 268.024 48.2566 267.229Z" fill="black"/>
<path d="M70.6306 259.601C70.727 260.276 70.7752 261.12 70.7752 262.132V263.289C70.7752 263.53 70.6547 263.65 70.4137 263.65H58.7373C58.6409 263.65 58.5927 263.698 58.5927 263.795C58.6409 265.12 58.7132 265.976 58.8096 266.361C59.0747 267.446 59.641 268.301 60.5086 268.928C61.3762 269.555 62.4848 269.868 63.8344 269.868C64.8466 269.868 65.7383 269.639 66.5095 269.181C67.2807 268.723 67.8832 268.072 68.317 267.229C68.4616 267.012 68.6303 266.964 68.8231 267.084L70.233 267.916C70.4258 268.036 70.474 268.205 70.3776 268.422C69.7751 269.579 68.8713 270.495 67.6663 271.169C66.4613 271.82 65.0756 272.145 63.5091 272.145C61.798 272.121 60.364 271.712 59.2072 270.916C58.0504 270.121 57.219 269.012 56.7129 267.59C56.2791 266.434 56.0622 264.771 56.0622 262.602C56.0622 261.59 56.0742 260.77 56.0983 260.144C56.1465 259.493 56.2429 258.914 56.3875 258.408C56.7972 256.842 57.6166 255.589 58.8457 254.649C60.0989 253.709 61.6052 253.239 63.3645 253.239C65.5576 253.239 67.2446 253.793 68.4255 254.902C69.6064 256.01 70.3414 257.577 70.6306 259.601ZM63.3645 255.48C62.1836 255.48 61.1955 255.794 60.4002 256.42C59.629 257.023 59.1229 257.842 58.8819 258.878C58.7373 259.384 58.6409 260.204 58.5927 261.336C58.5927 261.433 58.6409 261.481 58.7373 261.481H68.1001C68.1965 261.481 68.2447 261.433 68.2447 261.336C68.1965 260.252 68.1242 259.481 68.0278 259.023C67.7627 257.938 67.2205 257.083 66.4011 256.456C65.6058 255.806 64.5936 255.48 63.3645 255.48Z" fill="black"/>
<path d="M83.4712 253.275C85.3992 253.275 86.9296 253.841 88.0623 254.974C89.2191 256.107 89.7975 257.625 89.7975 259.529V271.459C89.7975 271.7 89.677 271.82 89.436 271.82H87.5923C87.3513 271.82 87.2308 271.7 87.2308 271.459V260.035C87.2308 258.71 86.8211 257.625 86.0017 256.782C85.2064 255.938 84.1701 255.516 82.8928 255.516C81.5673 255.516 80.4949 255.926 79.6755 256.745C78.8561 257.565 78.4464 258.637 78.4464 259.963V271.459C78.4464 271.7 78.3259 271.82 78.0849 271.82H76.2412C76.0002 271.82 75.8797 271.7 75.8797 271.459V253.89C75.8797 253.649 76.0002 253.528 76.2412 253.528H78.0849C78.3259 253.528 78.4464 253.649 78.4464 253.89V255.444C78.4464 255.492 78.4584 255.528 78.4825 255.553C78.5307 255.577 78.5669 255.565 78.591 255.516C79.6514 254.022 81.2781 253.275 83.4712 253.275Z" fill="black"/>
<path d="M7.18002 315.001C5.83042 315.001 4.62542 314.784 3.56502 314.35C2.52872 313.916 1.72137 313.338 1.14297 312.615C0.588673 311.892 0.311523 311.085 0.311523 310.193V309.759C0.311523 309.518 0.432023 309.397 0.673023 309.397H2.40822C2.64922 309.397 2.76972 309.518 2.76972 309.759V310.048C2.76972 310.843 3.17942 311.542 3.99882 312.145C4.84232 312.723 5.89067 313.013 7.14387 313.013C8.39707 313.013 9.40927 312.735 10.1805 312.181C10.9517 311.603 11.3373 310.88 11.3373 310.012C11.3373 309.41 11.1324 308.916 10.7227 308.53C10.3371 308.144 9.86717 307.843 9.31287 307.626C8.78267 307.409 7.95122 307.132 6.81852 306.795C5.46892 306.409 4.36032 306.024 3.49272 305.638C2.62512 305.252 1.89007 304.722 1.28757 304.047C0.709174 303.348 0.419974 302.469 0.419974 301.408C0.419974 299.866 1.02247 298.637 2.22747 297.721C3.43247 296.805 5.02307 296.347 6.99927 296.347C8.32477 296.347 9.49362 296.564 10.5058 296.998C11.5421 297.432 12.3374 298.034 12.8917 298.806C13.446 299.553 13.7232 300.396 13.7232 301.336V301.444C13.7232 301.685 13.6027 301.806 13.3617 301.806H11.6626C11.4216 301.806 11.3011 301.685 11.3011 301.444V301.336C11.3011 300.517 10.9035 299.83 10.1082 299.276C9.33697 298.721 8.28862 298.444 6.96312 298.444C5.73402 298.444 4.74592 298.697 3.99882 299.203C3.25172 299.685 2.87817 300.36 2.87817 301.228C2.87817 302.047 3.23967 302.674 3.96267 303.107C4.68567 303.541 5.80632 303.975 7.32462 304.409C8.72242 304.819 9.85512 305.204 10.7227 305.566C11.5903 305.927 12.3374 306.457 12.964 307.156C13.5906 307.831 13.9039 308.723 13.9039 309.831C13.9039 311.398 13.2894 312.651 12.0603 313.591C10.8312 314.531 9.20442 315.001 7.18002 315.001Z" fill="black"/>
<path d="M25.5603 315.109C23.8251 315.109 22.3309 314.663 21.0777 313.772C19.8245 312.88 18.9569 311.651 18.4749 310.084C18.1375 308.976 17.9688 307.494 17.9688 305.638C17.9688 303.782 18.1375 302.312 18.4749 301.228C18.9328 299.685 19.7884 298.468 21.0416 297.576C22.2948 296.685 23.8131 296.239 25.5965 296.239C27.3076 296.239 28.7777 296.685 30.0068 297.576C31.26 298.468 32.1155 299.673 32.5734 301.191C32.9108 302.228 33.0795 303.71 33.0795 305.638C33.0795 307.59 32.9108 309.072 32.5734 310.084C32.1155 311.651 31.26 312.88 30.0068 313.772C28.7777 314.663 27.2955 315.109 25.5603 315.109ZM25.5603 312.868C26.7171 312.868 27.7052 312.555 28.5246 311.928C29.344 311.277 29.8983 310.41 30.1875 309.325C30.4044 308.458 30.5129 307.241 30.5129 305.674C30.5129 304.083 30.4165 302.866 30.2237 302.023C29.9345 300.938 29.3681 300.083 28.5246 299.456C27.7052 298.806 26.7051 298.48 25.5242 298.48C24.3433 298.48 23.3431 298.806 22.5237 299.456C21.7043 300.083 21.15 300.938 20.8608 302.023C20.668 302.866 20.5716 304.083 20.5716 305.674C20.5716 307.265 20.668 308.482 20.8608 309.325C21.1259 310.41 21.6682 311.277 22.4876 311.928C23.3311 312.555 24.3553 312.868 25.5603 312.868Z" fill="black"/>
<path d="M49.3442 296.89C49.3442 296.649 49.4647 296.528 49.7057 296.528H51.5494C51.7904 296.528 51.9109 296.649 51.9109 296.89V314.459C51.9109 314.7 51.7904 314.82 51.5494 314.82H49.7057C49.4647 314.82 49.3442 314.7 49.3442 314.459V312.904C49.3442 312.856 49.3201 312.82 49.2719 312.796C49.2237 312.772 49.1876 312.784 49.1635 312.832C48.1513 314.326 46.5486 315.073 44.3555 315.073C43.1987 315.073 42.1262 314.844 41.1381 314.386C40.1741 313.904 39.403 313.217 38.8246 312.326C38.2703 311.434 37.9931 310.362 37.9931 309.108V296.89C37.9931 296.649 38.1136 296.528 38.3546 296.528H40.1982C40.4392 296.528 40.5597 296.649 40.5597 296.89V308.349C40.5597 309.723 40.9453 310.819 41.7165 311.639C42.4877 312.434 43.5361 312.832 44.8616 312.832C46.2353 312.832 47.3198 312.422 48.1151 311.603C48.9345 310.783 49.3442 309.699 49.3442 308.349V296.89Z" fill="black"/>
<path d="M65.0381 296.347C65.8334 296.347 66.5203 296.504 67.0987 296.817C67.2915 296.914 67.3638 297.07 67.3156 297.287L66.9179 299.059C66.8456 299.3 66.689 299.372 66.448 299.276C66.0383 299.107 65.5683 299.022 65.0381 299.022L64.5682 299.059C63.315 299.107 62.2787 299.577 61.4593 300.468C60.6399 301.336 60.2302 302.445 60.2302 303.794V314.459C60.2302 314.7 60.1097 314.82 59.8687 314.82H58.025C57.784 314.82 57.6635 314.7 57.6635 314.459V296.89C57.6635 296.649 57.784 296.528 58.025 296.528H59.8687C60.1097 296.528 60.2302 296.649 60.2302 296.89V299.095C60.2302 299.167 60.2422 299.215 60.2663 299.239C60.3145 299.239 60.3507 299.215 60.3748 299.167C60.8809 298.275 61.5195 297.589 62.2907 297.107C63.086 296.6 64.0018 296.347 65.0381 296.347Z" fill="black"/>
<path d="M77.5596 315.109C75.8244 315.109 74.3302 314.663 73.077 313.772C71.8479 312.856 71.0044 311.627 70.5465 310.084C70.2332 309.024 70.0765 307.53 70.0765 305.602C70.0765 303.867 70.2332 302.396 70.5465 301.191C70.9803 299.697 71.8238 298.504 73.077 297.613C74.3302 296.697 75.8244 296.239 77.5596 296.239C79.3189 296.239 80.8372 296.685 82.1145 297.576C83.4159 298.468 84.2594 299.577 84.645 300.902C84.7655 301.336 84.8378 301.698 84.8619 301.987V302.059C84.8619 302.228 84.7534 302.336 84.5365 302.384L82.729 302.637H82.6567C82.488 302.637 82.3796 302.529 82.3314 302.312L82.2229 301.77C82.006 300.854 81.4758 300.083 80.6323 299.456C79.7888 298.806 78.7646 298.48 77.5596 298.48C76.3546 298.48 75.3424 298.806 74.523 299.456C73.7277 300.083 73.2095 300.926 72.9685 301.987C72.7516 302.903 72.6432 304.12 72.6432 305.638C72.6432 307.229 72.7516 308.458 72.9685 309.325C73.2095 310.41 73.7277 311.277 74.523 311.928C75.3424 312.555 76.3546 312.868 77.5596 312.868C78.7405 312.868 79.7527 312.567 80.5962 311.964C81.4638 311.338 82.006 310.542 82.2229 309.578V309.434L82.2591 309.289C82.2832 309.048 82.4278 308.952 82.6929 309L84.4642 309.289C84.7052 309.337 84.8137 309.47 84.7896 309.687L84.645 310.41C84.2835 311.808 83.452 312.94 82.1506 313.808C80.8492 314.675 79.3189 315.109 77.5596 315.109Z" fill="black"/>
<path d="M103.356 302.601C103.453 303.276 103.501 304.12 103.501 305.132V306.289C103.501 306.53 103.38 306.65 103.139 306.65H91.4629C91.3665 306.65 91.3183 306.698 91.3183 306.795C91.3665 308.12 91.4388 308.976 91.5352 309.361C91.8003 310.446 92.3667 311.301 93.2343 311.928C94.1019 312.555 95.2105 312.868 96.5601 312.868C97.5723 312.868 98.464 312.639 99.2352 312.181C100.006 311.723 100.609 311.072 101.043 310.229C101.187 310.012 101.356 309.964 101.549 310.084L102.959 310.916C103.151 311.036 103.2 311.205 103.103 311.422C102.501 312.579 101.597 313.495 100.392 314.169C99.187 314.82 97.8012 315.145 96.2347 315.145C94.5236 315.121 93.0897 314.712 91.9329 313.916C90.7761 313.121 89.9446 312.012 89.4385 310.59C89.0047 309.434 88.7878 307.771 88.7878 305.602C88.7878 304.59 88.7999 303.77 88.824 303.144C88.8722 302.493 88.9686 301.914 89.1132 301.408C89.5229 299.842 90.3423 298.589 91.5714 297.649C92.8246 296.709 94.3308 296.239 96.0901 296.239C98.2832 296.239 99.9702 296.793 101.151 297.902C102.332 299.01 103.067 300.577 103.356 302.601ZM96.0901 298.48C94.9092 298.48 93.9211 298.794 93.1258 299.42C92.3546 300.023 91.8485 300.842 91.6075 301.878C91.4629 302.384 91.3665 303.204 91.3183 304.336C91.3183 304.433 91.3665 304.481 91.4629 304.481H100.826C100.922 304.481 100.97 304.433 100.97 304.336C100.922 303.252 100.85 302.481 100.753 302.023C100.488 300.938 99.9461 300.083 99.1267 299.456C98.3314 298.806 97.3192 298.48 96.0901 298.48Z" fill="black"/>
<path d="M88.8813 418.486C88.6403 418.486 88.5198 418.365 88.5198 418.124V393.542C88.5198 393.301 88.6403 393.181 88.8813 393.181H97.4127C99.7986 393.181 101.69 393.807 103.088 395.061C104.51 396.314 105.221 398.013 105.221 400.158V411.509C105.221 413.654 104.51 415.353 103.088 416.606C101.69 417.859 99.7986 418.486 97.4127 418.486H88.8813ZM91.0864 416.1C91.0864 416.196 91.1346 416.244 91.231 416.244H97.5211C99.0876 416.244 100.329 415.787 101.245 414.871C102.184 413.955 102.654 412.726 102.654 411.183V400.519C102.654 398.953 102.197 397.712 101.281 396.796C100.365 395.88 99.1117 395.422 97.5211 395.422H91.231C91.1346 395.422 91.0864 395.47 91.0864 395.567V416.1Z" fill="black"/>
<path d="M124.386 406.267C124.483 406.942 124.531 407.785 124.531 408.798V409.954C124.531 410.195 124.411 410.316 124.17 410.316H112.493C112.397 410.316 112.349 410.364 112.349 410.46C112.397 411.786 112.469 412.641 112.565 413.027C112.831 414.112 113.397 414.967 114.264 415.594C115.132 416.22 116.241 416.534 117.59 416.534C118.602 416.534 119.494 416.305 120.265 415.847C121.037 415.389 121.639 414.738 122.073 413.895C122.217 413.678 122.386 413.63 122.579 413.75L123.989 414.582C124.182 414.702 124.23 414.871 124.133 415.088C123.531 416.244 122.627 417.16 121.422 417.835C120.217 418.486 118.831 418.811 117.265 418.811C115.554 418.787 114.12 418.377 112.963 417.582C111.806 416.787 110.975 415.678 110.469 414.256C110.035 413.099 109.818 411.436 109.818 409.267C109.818 408.255 109.83 407.436 109.854 406.809C109.902 406.159 109.999 405.58 110.143 405.074C110.553 403.508 111.373 402.254 112.602 401.314C113.855 400.375 115.361 399.905 117.12 399.905C119.313 399.905 121 400.459 122.181 401.568C123.362 402.676 124.097 404.243 124.386 406.267ZM117.12 402.146C115.939 402.146 114.951 402.459 114.156 403.086C113.385 403.688 112.879 404.508 112.638 405.544C112.493 406.05 112.397 406.87 112.349 408.002C112.349 408.099 112.397 408.147 112.493 408.147H121.856C121.952 408.147 122.001 408.099 122.001 408.002C121.952 406.918 121.88 406.147 121.784 405.689C121.519 404.604 120.976 403.749 120.157 403.122C119.362 402.471 118.349 402.146 117.12 402.146Z" fill="black"/>
<path d="M133.84 418.486C133.623 418.486 133.479 418.389 133.406 418.197L127.478 400.591L127.441 400.447C127.441 400.278 127.55 400.194 127.767 400.194H129.827C130.044 400.194 130.189 400.29 130.261 400.483L134.78 414.654C134.804 414.702 134.84 414.726 134.888 414.726C134.937 414.726 134.973 414.702 134.997 414.654L139.516 400.483C139.588 400.29 139.732 400.194 139.949 400.194L142.01 400.23C142.275 400.23 142.371 400.363 142.299 400.628L136.37 418.197C136.298 418.389 136.154 418.486 135.937 418.486H133.84Z" fill="black"/>
<path d="M159.76 406.267C159.856 406.942 159.904 407.785 159.904 408.798V409.954C159.904 410.195 159.784 410.316 159.543 410.316H147.866C147.77 410.316 147.722 410.364 147.722 410.46C147.77 411.786 147.842 412.641 147.939 413.027C148.204 414.112 148.77 414.967 149.638 415.594C150.505 416.22 151.614 416.534 152.964 416.534C153.976 416.534 154.868 416.305 155.639 415.847C156.41 415.389 157.012 414.738 157.446 413.895C157.591 413.678 157.76 413.63 157.952 413.75L159.362 414.582C159.555 414.702 159.603 414.871 159.507 415.088C158.904 416.244 158.001 417.16 156.796 417.835C155.591 418.486 154.205 418.811 152.638 418.811C150.927 418.787 149.493 418.377 148.336 417.582C147.18 416.787 146.348 415.678 145.842 414.256C145.408 413.099 145.191 411.436 145.191 409.267C145.191 408.255 145.203 407.436 145.228 406.809C145.276 406.159 145.372 405.58 145.517 405.074C145.926 403.508 146.746 402.254 147.975 401.314C149.228 400.375 150.734 399.905 152.494 399.905C154.687 399.905 156.374 400.459 157.555 401.568C158.736 402.676 159.471 404.243 159.76 406.267ZM152.494 402.146C151.313 402.146 150.325 402.459 149.529 403.086C148.758 403.688 148.252 404.508 148.011 405.544C147.866 406.05 147.77 406.87 147.722 408.002C147.722 408.099 147.77 408.147 147.866 408.147H157.229C157.326 408.147 157.374 408.099 157.374 408.002C157.326 406.918 157.253 406.147 157.157 405.689C156.892 404.604 156.35 403.749 155.53 403.122C154.735 402.471 153.723 402.146 152.494 402.146Z" fill="black"/>
<path d="M165.37 418.486C165.129 418.486 165.009 418.365 165.009 418.124V393.542C165.009 393.301 165.129 393.181 165.37 393.181H167.214C167.455 393.181 167.576 393.301 167.576 393.542V418.124C167.576 418.365 167.455 418.486 167.214 418.486H165.37Z" fill="black"/>
<path d="M180.317 418.775C178.582 418.775 177.088 418.329 175.835 417.437C174.582 416.546 173.714 415.317 173.232 413.75C172.895 412.641 172.726 411.159 172.726 409.304C172.726 407.448 172.895 405.978 173.232 404.893C173.69 403.351 174.545 402.134 175.799 401.242C177.052 400.35 178.57 399.905 180.353 399.905C182.065 399.905 183.535 400.35 184.764 401.242C186.017 402.134 186.873 403.339 187.33 404.857C187.668 405.893 187.837 407.376 187.837 409.304C187.837 411.256 187.668 412.738 187.33 413.75C186.873 415.317 186.017 416.546 184.764 417.437C183.535 418.329 182.053 418.775 180.317 418.775ZM180.317 416.534C181.474 416.534 182.462 416.22 183.282 415.594C184.101 414.943 184.655 414.075 184.945 412.991C185.161 412.123 185.27 410.906 185.27 409.34C185.27 407.749 185.173 406.532 184.981 405.689C184.691 404.604 184.125 403.749 183.282 403.122C182.462 402.471 181.462 402.146 180.281 402.146C179.1 402.146 178.1 402.471 177.281 403.122C176.461 403.749 175.907 404.604 175.618 405.689C175.425 406.532 175.329 407.749 175.329 409.34C175.329 410.93 175.425 412.147 175.618 412.991C175.883 414.075 176.425 414.943 177.245 415.594C178.088 416.22 179.112 416.534 180.317 416.534Z" fill="black"/>
<path d="M207.246 404.749C207.608 405.906 207.789 407.436 207.789 409.34C207.789 411.268 207.632 412.762 207.319 413.822C206.885 415.365 206.089 416.582 204.933 417.474C203.8 418.341 202.366 418.775 200.631 418.775C199.691 418.775 198.823 418.594 198.028 418.233C197.233 417.847 196.57 417.305 196.04 416.606C195.992 416.558 195.943 416.546 195.895 416.57C195.871 416.57 195.859 416.594 195.859 416.642V425.137C195.859 425.378 195.739 425.499 195.498 425.499H193.654C193.413 425.499 193.292 425.378 193.292 425.137V400.555C193.292 400.314 193.413 400.194 193.654 400.194H195.498C195.739 400.194 195.859 400.314 195.859 400.555V402.074C195.859 402.122 195.871 402.158 195.895 402.182C195.943 402.182 195.992 402.158 196.04 402.11C196.57 401.411 197.221 400.869 197.992 400.483C198.787 400.097 199.667 399.905 200.631 399.905C202.318 399.905 203.728 400.338 204.86 401.206C206.017 402.074 206.812 403.255 207.246 404.749ZM204.39 413.895C204.656 413.364 204.848 412.774 204.969 412.123C205.113 411.449 205.186 410.521 205.186 409.34C205.186 408.207 205.138 407.327 205.041 406.701C204.945 406.05 204.776 405.472 204.535 404.966C204.246 404.098 203.728 403.411 202.981 402.905C202.258 402.399 201.39 402.146 200.378 402.146C199.414 402.146 198.606 402.399 197.956 402.905C197.305 403.411 196.823 404.086 196.51 404.929C196.293 405.411 196.136 405.978 196.04 406.629C195.943 407.279 195.895 408.183 195.895 409.34C195.895 410.497 195.943 411.412 196.04 412.087C196.136 412.738 196.305 413.316 196.546 413.822C196.835 414.642 197.305 415.305 197.956 415.811C198.631 416.293 199.426 416.534 200.342 416.534C201.306 416.534 202.137 416.293 202.836 415.811C203.559 415.329 204.077 414.69 204.39 413.895Z" fill="black"/>
<path d="M226.764 406.267C226.861 406.942 226.909 407.785 226.909 408.798V409.954C226.909 410.195 226.789 410.316 226.548 410.316H214.871C214.775 410.316 214.726 410.364 214.726 410.46C214.775 411.786 214.847 412.641 214.943 413.027C215.208 414.112 215.775 414.967 216.642 415.594C217.51 416.22 218.619 416.534 219.968 416.534C220.98 416.534 221.872 416.305 222.643 415.847C223.415 415.389 224.017 414.738 224.451 413.895C224.595 413.678 224.764 413.63 224.957 413.75L226.367 414.582C226.56 414.702 226.608 414.871 226.511 415.088C225.909 416.244 225.005 417.16 223.8 417.835C222.595 418.486 221.209 418.811 219.643 418.811C217.932 418.787 216.498 418.377 215.341 417.582C214.184 416.787 213.353 415.678 212.847 414.256C212.413 413.099 212.196 411.436 212.196 409.267C212.196 408.255 212.208 407.436 212.232 406.809C212.28 406.159 212.377 405.58 212.521 405.074C212.931 403.508 213.75 402.254 214.98 401.314C216.233 400.375 217.739 399.905 219.498 399.905C221.691 399.905 223.378 400.459 224.559 401.568C225.74 402.676 226.475 404.243 226.764 406.267ZM219.498 402.146C218.317 402.146 217.329 402.459 216.534 403.086C215.763 403.688 215.257 404.508 215.016 405.544C214.871 406.05 214.775 406.87 214.726 408.002C214.726 408.099 214.775 408.147 214.871 408.147H224.234C224.33 408.147 224.379 408.099 224.379 408.002C224.33 406.918 224.258 406.147 224.162 405.689C223.897 404.604 223.354 403.749 222.535 403.122C221.74 402.471 220.727 402.146 219.498 402.146Z" fill="black"/>
<path d="M239.388 400.013C240.183 400.013 240.87 400.17 241.449 400.483C241.641 400.579 241.714 400.736 241.666 400.953L241.268 402.724C241.196 402.965 241.039 403.038 240.798 402.941C240.388 402.773 239.918 402.688 239.388 402.688L238.918 402.724C237.665 402.773 236.629 403.242 235.809 404.134C234.99 405.002 234.58 406.11 234.58 407.46V418.124C234.58 418.365 234.46 418.486 234.219 418.486H232.375C232.134 418.486 232.014 418.365 232.014 418.124V400.555C232.014 400.314 232.134 400.194 232.375 400.194H234.219C234.46 400.194 234.58 400.314 234.58 400.555V402.76C234.58 402.833 234.592 402.881 234.616 402.905C234.665 402.905 234.701 402.881 234.725 402.833C235.231 401.941 235.87 401.254 236.641 400.772C237.436 400.266 238.352 400.013 239.388 400.013Z" fill="black"/>
<path d="M251.076 418.666C249.727 418.666 248.522 418.45 247.461 418.016C246.425 417.582 245.618 417.004 245.039 416.281C244.485 415.558 244.208 414.75 244.208 413.859V413.425C244.208 413.184 244.328 413.063 244.569 413.063H246.305C246.546 413.063 246.666 413.184 246.666 413.425V413.714C246.666 414.509 247.076 415.208 247.895 415.811C248.739 416.389 249.787 416.678 251.04 416.678C252.293 416.678 253.306 416.401 254.077 415.847C254.848 415.268 255.234 414.545 255.234 413.678C255.234 413.075 255.029 412.581 254.619 412.196C254.234 411.81 253.764 411.509 253.209 411.292C252.679 411.075 251.848 410.798 250.715 410.46C249.365 410.075 248.257 409.689 247.389 409.304C246.522 408.918 245.786 408.388 245.184 407.713C244.606 407.014 244.316 406.134 244.316 405.074C244.316 403.532 244.919 402.303 246.124 401.387C247.329 400.471 248.919 400.013 250.896 400.013C252.221 400.013 253.39 400.23 254.402 400.664C255.439 401.098 256.234 401.7 256.788 402.471C257.342 403.218 257.62 404.062 257.62 405.002V405.11C257.62 405.351 257.499 405.472 257.258 405.472H255.559C255.318 405.472 255.198 405.351 255.198 405.11V405.002C255.198 404.182 254.8 403.496 254.005 402.941C253.233 402.387 252.185 402.11 250.86 402.11C249.63 402.11 248.642 402.363 247.895 402.869C247.148 403.351 246.775 404.026 246.775 404.893C246.775 405.713 247.136 406.339 247.859 406.773C248.582 407.207 249.703 407.641 251.221 408.075C252.619 408.484 253.752 408.87 254.619 409.231C255.487 409.593 256.234 410.123 256.86 410.822C257.487 411.497 257.8 412.388 257.8 413.497C257.8 415.064 257.186 416.317 255.957 417.257C254.728 418.197 253.101 418.666 251.076 418.666Z" fill="black"/>
</svg>
