<svg width="205" height="31" viewBox="0 0 205 31" fill="none" xmlns="http://www.w3.org/2000/svg">
<path d="M202.225 8.79346C203.138 8.79346 203.926 8.97329 204.59 9.33297C204.812 9.44364 204.895 9.62347 204.84 9.87248L204.383 11.906C204.3 12.1827 204.12 12.2657 203.843 12.155C203.373 11.9614 202.834 11.8645 202.225 11.8645L201.685 11.906C200.247 11.9614 199.057 12.5009 198.116 13.5246C197.176 14.5206 196.705 15.7933 196.705 17.3426V29.5854C196.705 29.862 196.567 30.0004 196.29 30.0004H194.174C193.897 30.0004 193.759 29.862 193.759 29.5854V9.41597C193.759 9.1393 193.897 9.00096 194.174 9.00096H196.29C196.567 9.00096 196.705 9.1393 196.705 9.41597V11.9475C196.705 12.0305 196.719 12.0859 196.747 12.1135C196.802 12.1135 196.844 12.0859 196.871 12.0305C197.452 11.0068 198.186 10.2183 199.071 9.66498C199.984 9.08396 201.035 8.79346 202.225 8.79346Z" fill="black"/>
<path d="M179.154 30.3324C177.162 30.3324 175.446 29.8205 174.008 28.7968C172.569 27.7732 171.573 26.3621 171.019 24.5638C170.632 23.2911 170.438 21.5895 170.438 19.4592C170.438 17.3288 170.632 15.6411 171.019 14.3961C171.545 12.6254 172.527 11.2282 173.966 10.2045C175.405 9.18079 177.148 8.66895 179.195 8.66895C181.16 8.66895 182.847 9.18079 184.258 10.2045C185.697 11.2282 186.679 12.6115 187.205 14.3546C187.592 15.5442 187.786 17.2458 187.786 19.4592C187.786 21.7002 187.592 23.4017 187.205 24.5638C186.679 26.3621 185.697 27.7732 184.258 28.7968C182.847 29.8205 181.146 30.3324 179.154 30.3324ZM179.154 27.7593C180.482 27.7593 181.616 27.3996 182.557 26.6803C183.497 25.9333 184.134 24.9373 184.466 23.6922C184.715 22.6962 184.839 21.299 184.839 19.5007C184.839 17.6746 184.729 16.2774 184.507 15.3091C184.175 14.0641 183.525 13.0819 182.557 12.3625C181.616 11.6155 180.468 11.242 179.112 11.242C177.756 11.242 176.608 11.6155 175.668 12.3625C174.727 13.0819 174.091 14.0641 173.759 15.3091C173.537 16.2774 173.427 17.6746 173.427 19.5007C173.427 21.3267 173.537 22.7239 173.759 23.6922C174.063 24.9373 174.685 25.9333 175.626 26.6803C176.594 27.3996 177.77 27.7593 179.154 27.7593Z" fill="black"/>
<path d="M166.055 11.0341C166.055 11.3108 165.917 11.4491 165.64 11.4491H160.951C160.84 11.4491 160.785 11.5045 160.785 11.6151V23.8579C160.785 25.1859 161.075 26.1266 161.656 26.6799C162.265 27.2056 163.206 27.4684 164.478 27.4684H165.516C165.792 27.4684 165.931 27.6068 165.931 27.8835V29.585C165.931 29.8617 165.792 30 165.516 30C165.184 30.0277 164.672 30.0415 163.98 30.0415C161.988 30.0415 160.48 29.668 159.457 28.921C158.433 28.174 157.921 26.7906 157.921 24.7709V11.6151C157.921 11.5045 157.866 11.4491 157.755 11.4491H155.224C154.947 11.4491 154.809 11.3108 154.809 11.0341V9.41559C154.809 9.13891 154.947 9.00058 155.224 9.00058H157.755C157.866 9.00058 157.921 8.94524 157.921 8.83457V4.02048C157.921 3.7438 158.059 3.60547 158.336 3.60547H160.37C160.646 3.60547 160.785 3.7438 160.785 4.02048V8.83457C160.785 8.94524 160.84 9.00058 160.951 9.00058H165.64C165.917 9.00058 166.055 9.13891 166.055 9.41559V11.0341Z" fill="black"/>
<path d="M147.084 9.41599C147.084 9.13931 147.222 9.00098 147.499 9.00098H149.616C149.892 9.00098 150.031 9.13931 150.031 9.41599V29.5854C150.031 29.8621 149.892 30.0004 149.616 30.0004H147.499C147.222 30.0004 147.084 29.8621 147.084 29.5854V27.8009C147.084 27.7455 147.056 27.704 147.001 27.6763C146.946 27.6487 146.904 27.6625 146.876 27.7178C145.714 29.4332 143.875 30.2909 141.357 30.2909C140.029 30.2909 138.798 30.0281 137.663 29.5024C136.557 28.949 135.671 28.1605 135.007 27.1368C134.371 26.1132 134.053 24.882 134.053 23.4433V9.41599C134.053 9.13931 134.191 9.00098 134.468 9.00098H136.584C136.861 9.00098 136.999 9.13931 136.999 9.41599V22.5717C136.999 24.1488 137.442 25.4076 138.327 26.3483C139.213 27.2613 140.416 27.7178 141.938 27.7178C143.515 27.7178 144.76 27.2475 145.673 26.3068C146.614 25.3661 147.084 24.1211 147.084 22.5717V9.41599Z" fill="black"/>
<path d="M127.873 14.3545C128.205 15.5995 128.371 17.3149 128.371 19.5006C128.371 21.7693 128.178 23.5262 127.79 24.7712C127.265 26.4866 126.352 27.8422 125.051 28.8383C123.751 29.8343 122.132 30.3323 120.196 30.3323C119.089 30.3323 118.079 30.111 117.166 29.6683C116.253 29.2256 115.492 28.5893 114.884 27.7592C114.856 27.7039 114.814 27.6901 114.759 27.7177C114.704 27.7177 114.676 27.7454 114.676 27.8007V29.5853C114.676 29.862 114.538 30.0003 114.261 30.0003H112.145C111.868 30.0003 111.729 29.862 111.729 29.5853V1.36471C111.729 1.08804 111.868 0.949707 112.145 0.949707H114.261C114.538 0.949707 114.676 1.08804 114.676 1.36471V11.1589C114.676 11.2142 114.69 11.2557 114.718 11.2834C114.773 11.2834 114.828 11.2557 114.884 11.2004C115.492 10.3981 116.253 9.77555 117.166 9.33287C118.079 8.8902 119.089 8.66886 120.196 8.66886C122.16 8.66886 123.806 9.18071 125.134 10.2044C126.462 11.2004 127.375 12.5838 127.873 14.3545ZM124.678 24.5222C124.954 23.9412 125.148 23.291 125.259 22.5716C125.369 21.8246 125.425 20.8009 125.425 19.5006C125.425 18.1449 125.342 17.0935 125.176 16.3465C125.037 15.5718 124.802 14.8802 124.47 14.2715C124.111 13.3585 123.53 12.6253 122.727 12.0719C121.925 11.5186 120.97 11.2419 119.864 11.2419C118.812 11.2419 117.899 11.5324 117.125 12.1134C116.378 12.6668 115.838 13.4138 115.506 14.3545C115.229 14.9355 115.022 15.5995 114.884 16.3465C114.773 17.0935 114.718 18.1449 114.718 19.5006C114.718 20.8286 114.773 21.8661 114.884 22.6131C115.022 23.3325 115.216 23.9827 115.465 24.5637C115.824 25.532 116.378 26.3067 117.125 26.8877C117.872 27.4687 118.798 27.7592 119.905 27.7592C121.067 27.7592 122.063 27.4687 122.893 26.8877C123.751 26.3067 124.346 25.5182 124.678 24.5222Z" fill="black"/>
<path d="M103.144 5.18276C102.48 5.18276 101.927 4.96142 101.484 4.51875C101.042 4.07607 100.82 3.52273 100.82 2.85871C100.82 2.16703 101.042 1.61369 101.484 1.19868C101.927 0.756006 102.48 0.534668 103.144 0.534668C103.808 0.534668 104.362 0.756006 104.804 1.19868C105.247 1.61369 105.468 2.16703 105.468 2.85871C105.468 3.52273 105.247 4.07607 104.804 4.51875C104.362 4.96142 103.808 5.18276 103.144 5.18276ZM101.982 29.9588C101.706 29.9588 101.567 29.8204 101.567 29.5437V9.37435C101.567 9.09767 101.706 8.95934 101.982 8.95934H104.099C104.376 8.95934 104.514 9.09767 104.514 9.37435V29.5437C104.514 29.8204 104.376 29.9588 104.099 29.9588H101.982Z" fill="black"/>
<path d="M94.5013 8.79346C95.4143 8.79346 96.2029 8.97329 96.8669 9.33297C97.0882 9.44364 97.1712 9.62347 97.1159 9.87248L96.6594 11.906C96.5764 12.1827 96.3965 12.2657 96.1199 12.155C95.6495 11.9614 95.11 11.8645 94.5013 11.8645L93.9618 11.906C92.5231 11.9614 91.3334 12.5009 90.3927 13.5246C89.4521 14.5206 88.9817 15.7933 88.9817 17.3426V29.5854C88.9817 29.862 88.8434 30.0004 88.5667 30.0004H86.4502C86.1735 30.0004 86.0352 29.862 86.0352 29.5854V9.41597C86.0352 9.1393 86.1735 9.00096 86.4502 9.00096H88.5667C88.8434 9.00096 88.9817 9.1393 88.9817 9.41597V11.9475C88.9817 12.0305 88.9955 12.0859 89.0232 12.1135C89.0786 12.1135 89.12 12.0859 89.1477 12.0305C89.7287 11.0068 90.4619 10.2183 91.3473 9.66498C92.2603 9.08396 93.3116 8.79346 94.5013 8.79346Z" fill="black"/>
<path d="M80.3385 11.0341C80.3385 11.3108 80.2002 11.4491 79.9235 11.4491H75.2339C75.1233 11.4491 75.0679 11.5045 75.0679 11.6151V23.8579C75.0679 25.1859 75.3584 26.1266 75.9394 26.6799C76.5481 27.2056 77.4888 27.4684 78.7615 27.4684H79.799C80.0757 27.4684 80.214 27.6068 80.214 27.8835V29.585C80.214 29.8617 80.0757 30 79.799 30C79.467 30.0277 78.9552 30.0415 78.2635 30.0415C76.2714 30.0415 74.7636 29.668 73.7399 28.921C72.7162 28.174 72.2044 26.7906 72.2044 24.7709V11.6151C72.2044 11.5045 72.149 11.4491 72.0384 11.4491H69.5068C69.2301 11.4491 69.0918 11.3108 69.0918 11.0341V9.41559C69.0918 9.13891 69.2301 9.00058 69.5068 9.00058H72.0384C72.149 9.00058 72.2044 8.94524 72.2044 8.83457V4.02048C72.2044 3.7438 72.3427 3.60547 72.6194 3.60547H74.6529C74.9296 3.60547 75.0679 3.7438 75.0679 4.02048V8.83457C75.0679 8.94524 75.1233 9.00058 75.2339 9.00058H79.9235C80.2002 9.00058 80.3385 9.13891 80.3385 9.41559V11.0341Z" fill="black"/>
<path d="M57.2611 8.71045C59.4744 8.71045 61.2313 9.36063 62.5317 10.661C63.8597 11.9613 64.5237 13.7044 64.5237 15.8901V29.5854C64.5237 29.862 64.3854 30.0004 64.1087 30.0004H61.9922C61.7155 30.0004 61.5772 29.862 61.5772 29.5854V16.4711C61.5772 14.9494 61.1068 13.7044 60.1661 12.736C59.2531 11.7677 58.0634 11.2835 56.5971 11.2835C55.0754 11.2835 53.8442 11.7538 52.9035 12.6945C51.9628 13.6352 51.4925 14.8664 51.4925 16.3881V29.5854C51.4925 29.862 51.3541 30.0004 51.0774 30.0004H48.9609C48.6842 30.0004 48.5459 29.862 48.5459 29.5854V9.41596C48.5459 9.13929 48.6842 9.00095 48.9609 9.00095H51.0774C51.3541 9.00095 51.4925 9.13929 51.4925 9.41596V11.2005C51.4925 11.2558 51.5063 11.2973 51.534 11.325C51.5893 11.3527 51.6308 11.3388 51.6585 11.2835C52.8758 9.56813 54.7434 8.71045 57.2611 8.71045Z" fill="black"/>
<path d="M33.9417 30.3324C31.9497 30.3324 30.2343 29.8205 28.7956 28.7968C27.3569 27.7732 26.3609 26.3621 25.8076 24.5638C25.4202 23.2911 25.2266 21.5895 25.2266 19.4592C25.2266 17.3288 25.4202 15.6411 25.8076 14.3961C26.3333 12.6254 27.3154 11.2282 28.7541 10.2045C30.1928 9.18079 31.9359 8.66895 33.9832 8.66895C35.9476 8.66895 37.6353 9.18079 39.0463 10.2045C40.485 11.2282 41.4672 12.6115 41.9929 14.3546C42.3802 15.5442 42.5739 17.2458 42.5739 19.4592C42.5739 21.7002 42.3802 23.4017 41.9929 24.5638C41.4672 26.3621 40.485 27.7732 39.0463 28.7968C37.6353 29.8205 35.9338 30.3324 33.9417 30.3324ZM33.9417 27.7593C35.2698 27.7593 36.4041 27.3996 37.3448 26.6803C38.2855 25.9333 38.9218 24.9373 39.2538 23.6922C39.5028 22.6962 39.6274 21.299 39.6274 19.5007C39.6274 17.6746 39.5167 16.2774 39.2953 15.3091C38.9633 14.0641 38.3132 13.0819 37.3448 12.3625C36.4041 11.6155 35.2559 11.242 33.9002 11.242C32.5445 11.242 31.3964 11.6155 30.4557 12.3625C29.515 13.0819 28.8786 14.0641 28.5466 15.3091C28.3253 16.2774 28.2146 17.6746 28.2146 19.5007C28.2146 21.3267 28.3253 22.7239 28.5466 23.6922C28.851 24.9373 29.4735 25.9333 30.4142 26.6803C31.3825 27.3996 32.5584 27.7593 33.9417 27.7593Z" fill="black"/>
<path d="M10.1843 30.3738C8.24763 30.3738 6.5461 30.0003 5.07973 29.2533C3.61337 28.4786 2.46518 27.3995 1.63516 26.0162C0.832815 24.6052 0.431641 22.9866 0.431641 21.1606V9.74786C0.431641 7.94949 0.832815 6.35862 1.63516 4.97526C2.46518 3.5919 3.61337 2.52671 5.07973 1.7797C6.5461 1.00502 8.24763 0.617676 10.1843 0.617676C12.121 0.617676 13.8226 0.991183 15.2889 1.7382C16.7553 2.48521 17.8897 3.53657 18.692 4.89226C19.522 6.24795 19.937 7.81115 19.937 9.58185C19.937 9.72019 19.8955 9.83086 19.8125 9.91386C19.7295 9.99686 19.6327 10.0384 19.522 10.0384L17.4055 10.1629C17.1288 10.1629 16.9905 10.0384 16.9905 9.78936V9.66486C16.9905 7.70048 16.368 6.13728 15.1229 4.97526C13.8779 3.78557 12.2317 3.19073 10.1843 3.19073C8.13696 3.19073 6.49076 3.78557 5.24574 4.97526C4.00071 6.16495 3.3782 7.72815 3.3782 9.66486V21.2851C3.3782 23.2218 4.00071 24.785 5.24574 25.9747C6.49076 27.1644 8.13696 27.7592 10.1843 27.7592C12.2317 27.7592 13.8779 27.1782 15.1229 26.0162C16.368 24.8265 16.9905 23.2495 16.9905 21.2851V21.2021C16.9905 20.9531 17.1288 20.8286 17.4055 20.8286L19.522 20.9531C19.7987 20.9531 19.937 21.0776 19.937 21.3266C19.937 23.125 19.522 24.7158 18.692 26.0992C17.8897 27.4549 16.7553 28.5062 15.2889 29.2533C13.8226 30.0003 12.121 30.3738 10.1843 30.3738Z" fill="black"/>
</svg>
