<svg viewBox="0 0 146 148" fill="none" xmlns="http://www.w3.org/2000/svg">
<path d="M51 24.5L98 121L45 117.5L42 115L20.5 71L22 64.5L48.5 25.5L54.5 22.5L102 25.5L107 31L127.5 73L126.5 75.5H123.5L18 69" stroke="black"/>
<path d="M98 122L126.5 76" stroke="black"/>
<path d="M103 30L41.5 121" stroke="black"/>
<path d="M79.5564 71.7907C79.3458 75.005 76.5693 77.4399 73.355 77.2293C70.1406 77.0186 67.7057 74.2421 67.9164 71.0278C68.1271 67.8135 70.9036 65.3785 74.1179 65.5892C77.3322 65.7999 79.7671 68.5764 79.5564 71.7907Z" fill="black"/>
<path d="M110.253 27.0424C110.043 30.2567 107.266 32.6916 104.052 32.481C100.837 32.2703 98.4025 29.4938 98.6132 26.2795C98.8238 23.0652 101.6 20.6303 104.815 20.8409C108.029 21.0516 110.464 23.8281 110.253 27.0424Z" fill="black"/>
<path d="M25.626 69.7171C25.4153 72.9314 22.6388 75.3663 19.4245 75.1557C16.2102 74.945 13.7753 72.1685 13.986 68.9542C14.1966 65.7399 16.9731 63.3049 20.1875 63.5156C23.4018 63.7263 25.8367 66.5028 25.626 69.7171Z" fill="black"/>
<path d="M56.418 23.5141C56.2073 26.7284 53.4308 29.1633 50.2165 28.9526C47.0022 28.742 44.5673 25.9655 44.778 22.7512C44.9886 19.5369 47.7651 17.1019 50.9794 17.3126C54.1937 17.5233 56.6287 20.2998 56.418 23.5141Z" fill="black"/>
<path d="M50.2195 118.089C50.0088 121.304 47.2323 123.739 44.018 123.528C40.8037 123.317 38.3688 120.541 38.5795 117.326C38.7902 114.112 41.5666 111.677 44.781 111.888C47.9953 112.098 50.4302 114.875 50.2195 118.089Z" fill="black"/>
<path d="M104.055 121.618C103.844 124.832 101.068 127.267 97.8532 127.056C94.6389 126.846 92.204 124.069 92.4147 120.855C92.6254 117.641 95.4019 115.206 98.6162 115.416C101.83 115.627 104.265 118.404 104.055 121.618Z" fill="black"/>
<path d="M133.392 75.3193C133.181 78.5336 130.404 80.9685 127.19 80.7578C123.976 80.5472 121.541 77.7707 121.752 74.5563C121.962 71.342 124.739 68.9071 127.953 69.1178C131.167 69.3285 133.602 72.105 133.392 75.3193Z" fill="black"/>
<path fill-rule="evenodd" clip-rule="evenodd" d="M52.3499 23.85L52.9999 25L51.2588 25.9841L50.6088 24.8341L52.3499 23.85ZM49.7499 19.25L51.0499 21.55L49.3088 22.5341L48.0088 20.2341L49.7499 19.25ZM47.1499 14.65L48.4499 16.95L46.7088 17.9341L45.4088 15.6341L47.1499 14.65ZM44.5499 10.05L45.8499 12.35L44.1088 13.3341L42.8088 11.0341L44.5499 10.05ZM41.9499 5.45001L43.2499 7.75001L41.5088 8.73413L40.2088 6.43413L41.9499 5.45001ZM39.9999 2.00002L40.6499 3.15001L38.9088 4.13413L38.2588 2.98413L39.9999 2.00002Z" fill="black"/>
<path fill-rule="evenodd" clip-rule="evenodd" d="M110.804 144.773L111.477 146.182L109.673 147.045L108.999 145.635L110.804 144.773ZM108.108 139.136L109.456 141.954L107.652 142.817L106.304 139.999L108.108 139.136ZM105.413 133.5L106.76 136.318L104.956 137.181L103.608 134.363L105.413 133.5ZM102.717 127.864L104.065 130.682L102.261 131.545L100.913 128.726L102.717 127.864ZM100.022 122.227L101.369 125.045L99.5651 125.908L98.2174 123.09L100.022 122.227ZM98.0001 118L98.674 119.409L96.8697 120.272L96.1958 118.863L98.0001 118Z" fill="black"/>
<path fill-rule="evenodd" clip-rule="evenodd" d="M103.833 27.875L103 29L101.393 27.8096L102.226 26.6846L103.833 27.875ZM107.167 23.375L105.5 25.625L103.893 24.4346L105.559 22.1846L107.167 23.375ZM110.5 18.875L108.833 21.125L107.226 19.9346L108.893 17.6846L110.5 18.875ZM113.833 14.375L112.167 16.625L110.559 15.4346L112.226 13.1846L113.833 14.375ZM117.167 9.87502L115.5 12.125L113.893 10.9346L115.559 8.68457L117.167 9.87502ZM120.5 5.37502L118.833 7.62502L117.226 6.43457L118.893 4.18457L120.5 5.37502ZM123 2.00002L122.167 3.12503L120.559 1.93457L121.393 0.809568L123 2.00002Z" fill="black"/>
<path fill-rule="evenodd" clip-rule="evenodd" d="M27.5507 142.266L26.6323 143.543L25.0085 142.376L25.9269 141.098L27.5507 142.266ZM31.2242 137.157L29.3875 139.712L27.7637 138.544L29.6005 135.99L31.2242 137.157ZM34.8978 132.049L33.061 134.603L31.4372 133.435L33.274 130.881L34.8978 132.049ZM38.5713 126.94L36.7345 129.494L35.1108 128.327L36.9475 125.773L38.5713 126.94ZM42.2448 121.832L40.4081 124.386L38.7843 123.218L40.6211 120.664L42.2448 121.832ZM45 118L44.0816 119.277L42.4578 118.11L43.3762 116.832L45 118Z" fill="black"/>
<path fill-rule="evenodd" clip-rule="evenodd" d="M1.3865 67.4233L5.46277e-05 67.3324L0.130859 65.3367L1.5173 65.4275L1.3865 67.4233ZM6.93227 67.7867L4.15938 67.605L4.29019 65.6093L7.06308 65.791L6.93227 67.7867ZM12.478 68.1502L9.70516 67.9685L9.83596 65.9728L12.6088 66.1545L12.478 68.1502ZM18.0238 68.5137L15.2509 68.332L15.3817 66.3363L18.1546 66.518L18.0238 68.5137ZM22.1831 68.7863L20.7967 68.6955L20.9275 66.6997L22.314 66.7906L22.1831 68.7863Z" fill="black"/>
<path fill-rule="evenodd" clip-rule="evenodd" d="M129.249 75.7339L127.817 75.7097L127.851 73.71L129.283 73.7342L129.249 75.7339ZM134.976 75.8306L132.113 75.7822L132.146 73.7825L135.01 73.8309L134.976 75.8306ZM140.704 75.9274L137.84 75.879L137.874 73.8793L140.738 73.9277L140.704 75.9274ZM145 76L143.568 75.9758L143.602 73.9761L145.034 74.0002L145 76Z" fill="black"/>
</svg>
