<svg viewBox="0 0 288 288" fill="none" xmlns="http://www.w3.org/2000/svg">
<path fill-rule="evenodd" clip-rule="evenodd" d="M183.754 234.556C184.469 223.7 182.733 209.356 178.308 194.141C173.883 178.925 167.655 165.888 161.229 157.108C158.011 152.711 154.81 149.473 151.843 147.539C148.869 145.6 146.364 145.111 144.338 145.7C142.312 146.289 140.46 148.046 138.989 151.277C137.522 154.501 136.557 158.951 136.199 164.388C135.484 175.244 137.22 189.588 141.645 204.803C146.07 220.019 152.298 233.056 158.723 241.836C161.941 246.233 165.143 249.471 168.11 251.405C171.084 253.344 173.589 253.833 175.615 253.244C177.641 252.655 179.493 250.898 180.963 247.667C182.43 244.443 183.396 239.993 183.754 234.556ZM176.174 255.164C187.358 251.911 189.174 224.34 180.228 193.582C171.283 162.824 154.964 140.527 143.779 143.78C132.594 147.032 130.779 174.604 139.725 205.362C148.67 236.12 164.989 258.417 176.174 255.164Z" fill="black"/>
<path fill-rule="evenodd" clip-rule="evenodd" d="M151.36 123.171C152.074 112.315 150.338 97.9711 145.913 82.7557C141.488 67.5404 135.261 54.5028 128.835 45.723C125.617 41.3261 122.415 38.0881 119.448 36.1541C116.474 34.2155 113.969 33.7259 111.943 34.3151C109.917 34.9043 108.066 36.6609 106.595 39.8923C105.128 43.116 104.162 47.5659 103.804 53.0028C103.089 63.8592 104.825 78.2032 109.251 93.4185C113.676 108.634 119.903 121.672 126.329 130.451C129.547 134.848 132.748 138.086 135.716 140.02C138.69 141.959 141.195 142.448 143.221 141.859C145.247 141.27 147.098 139.513 148.569 136.282C150.036 133.058 151.002 128.608 151.36 123.171ZM143.779 143.78C154.964 140.527 156.779 112.955 147.834 82.1972C138.888 51.4391 122.569 29.1418 111.385 32.3947C100.2 35.6476 98.3846 63.219 107.33 93.977C116.276 124.735 132.594 147.032 143.779 143.78Z" fill="black"/>
<path fill-rule="evenodd" clip-rule="evenodd" d="M150.583 167.174C163.504 163.416 170.931 149.896 167.174 136.976C163.416 124.055 149.896 116.627 136.976 120.385C124.055 124.143 116.627 137.663 120.385 150.583C124.143 163.504 137.663 170.931 150.583 167.174ZM151.142 169.094C165.123 165.028 173.16 150.398 169.094 136.417C165.028 122.436 150.398 114.399 136.417 118.465C122.436 122.531 114.399 137.161 118.465 151.142C122.531 165.123 137.161 173.16 151.142 169.094Z" fill="black"/>
<path fill-rule="evenodd" clip-rule="evenodd" d="M234.556 103.805C223.7 103.09 209.356 104.826 194.141 109.251C178.925 113.676 165.888 119.904 157.108 126.329C152.711 129.547 149.473 132.749 147.539 135.716C145.6 138.69 145.111 141.195 145.7 143.221C146.289 145.247 148.046 147.099 151.277 148.569C154.501 150.036 158.951 151.002 164.388 151.36C175.244 152.075 189.588 150.339 204.803 145.914C220.019 141.489 233.056 135.261 241.836 128.835C246.233 125.617 249.471 122.416 251.405 119.449C253.344 116.474 253.833 113.969 253.244 111.944C252.655 109.918 250.898 108.066 247.667 106.595C244.443 105.128 239.993 104.163 234.556 103.805ZM255.164 111.385C251.911 100.2 224.34 98.385 193.582 107.33C162.824 116.276 140.527 132.595 143.78 143.78C147.032 154.964 174.604 156.78 205.362 147.834C236.12 138.889 258.417 122.57 255.164 111.385Z" fill="black"/>
<path fill-rule="evenodd" clip-rule="evenodd" d="M123.171 136.199C112.315 135.484 97.9709 137.22 82.7555 141.645C67.5402 146.071 54.5026 152.298 45.7228 158.724C41.3259 161.942 38.088 165.143 36.154 168.11C34.2153 171.085 33.7257 173.59 34.3149 175.616C34.9041 177.641 36.6608 179.493 39.8922 180.964C43.1158 182.431 47.5657 183.397 53.0026 183.755C63.8591 184.469 78.203 182.733 93.4183 178.308C108.634 173.883 121.671 167.656 130.451 161.23C134.848 158.012 138.086 154.81 140.02 151.843C141.959 148.869 142.448 146.364 141.859 144.338C141.27 142.312 139.513 140.46 136.282 138.99C133.058 137.523 128.608 136.557 123.171 136.199ZM143.779 143.78C140.526 132.595 112.955 130.78 82.197 139.725C51.4389 148.671 29.1416 164.989 32.3945 176.174C35.6474 187.359 63.2188 189.174 93.9769 180.229C124.735 171.283 147.032 154.964 143.779 143.78Z" fill="black"/>
<path fill-rule="evenodd" clip-rule="evenodd" d="M179.702 51.3241C171.52 58.4953 162.605 69.8656 154.975 83.7535C147.345 97.6414 142.53 111.264 140.865 122.016C140.032 127.4 140.006 131.954 140.736 135.419C141.469 138.893 142.894 141.011 144.743 142.027C146.592 143.043 149.144 143.11 152.468 141.865C155.785 140.623 159.615 138.159 163.712 134.568C171.894 127.396 180.809 116.026 188.439 102.138C196.069 88.2503 200.885 74.6277 202.549 63.8759C203.383 58.4914 203.409 53.9379 202.678 50.4723C201.946 46.9984 200.521 44.8809 198.671 43.865C196.822 42.8491 194.271 42.7819 190.946 44.0269C187.629 45.269 183.8 47.7327 179.702 51.3241ZM199.634 42.1121C189.426 36.5035 168.646 54.7158 153.222 82.7905C137.798 110.865 133.571 138.171 143.78 143.78C153.989 149.388 174.768 131.176 190.192 103.101C205.616 75.0265 209.843 47.7208 199.634 42.1121Z" fill="black"/>
<path fill-rule="evenodd" clip-rule="evenodd" d="M123.847 152.991C115.665 160.163 106.75 171.533 99.1204 185.421C91.4905 199.309 86.6751 212.931 85.0105 223.683C84.1768 229.068 84.1511 233.621 84.8816 237.087C85.6139 240.561 87.039 242.678 88.8882 243.694C90.7373 244.71 93.2888 244.777 96.6136 243.532C99.9305 242.29 103.76 239.826 107.857 236.235C116.04 229.064 124.955 217.693 132.585 203.806C140.214 189.918 145.03 176.295 146.694 165.543C147.528 160.159 147.554 155.605 146.823 152.14C146.091 148.666 144.666 146.548 142.817 145.532C140.968 144.516 138.416 144.449 135.091 145.694C131.774 146.936 127.945 149.4 123.847 152.991ZM143.78 143.779C133.571 138.171 112.791 156.383 97.3675 184.458C81.9437 212.533 77.7162 239.838 87.9252 245.447C98.1341 251.056 118.914 232.843 134.337 204.769C149.761 176.694 153.989 149.388 143.78 143.779Z" fill="black"/>
<path fill-rule="evenodd" clip-rule="evenodd" d="M63.8755 85.0104C74.6274 86.675 88.2499 91.4905 102.138 99.1203C116.026 106.75 127.396 115.665 134.567 123.847C138.159 127.945 140.622 131.774 141.864 135.091C143.109 138.416 143.042 140.967 142.026 142.817C141.01 144.666 138.893 146.091 135.419 146.823C131.953 147.554 127.4 147.528 122.015 146.694C111.264 145.03 97.641 140.214 83.7531 132.584C69.8652 124.955 58.4949 116.039 51.3237 107.857C47.7323 103.76 45.2686 99.9304 44.0266 96.6135C42.7815 93.2887 42.8487 90.7372 43.8646 88.8881C44.8805 87.0389 46.998 85.6138 50.4719 84.8815C53.9375 84.151 58.491 84.1767 63.8755 85.0104ZM42.1117 87.9251C47.7204 77.7161 75.0261 81.9436 103.101 97.3674C131.176 112.791 149.388 133.571 143.779 143.78C138.17 153.989 110.865 149.761 82.7901 134.337C54.7154 118.914 36.5031 98.134 42.1117 87.9251Z" fill="black"/>
<path fill-rule="evenodd" clip-rule="evenodd" d="M165.543 140.865C176.295 142.529 189.918 147.345 203.806 154.975C217.693 162.605 229.064 171.52 236.235 179.702C239.826 183.799 242.29 187.629 243.532 190.946C244.777 194.271 244.71 196.822 243.694 198.671C242.678 200.52 240.561 201.945 237.087 202.678C233.621 203.408 229.068 203.382 223.683 202.549C212.931 200.884 199.309 196.069 185.421 188.439C171.533 180.809 160.163 171.894 152.991 163.712C149.4 159.614 146.936 155.785 145.694 152.468C144.449 149.143 144.516 146.592 145.532 144.743C146.548 142.893 148.666 141.468 152.14 140.736C155.605 140.006 160.159 140.031 165.543 140.865ZM143.779 143.78C149.388 133.571 176.694 137.798 204.769 153.222C232.843 168.646 251.056 189.425 245.447 199.634C239.838 209.843 212.532 205.616 184.458 190.192C156.383 174.768 138.171 153.989 143.779 143.78Z" fill="black"/>
<path d="M46.1723 155.731C47.0243 158.66 50.0896 160.344 53.0189 159.492C55.9483 158.64 57.6323 155.575 56.7804 152.646C55.9284 149.716 52.8631 148.032 49.9338 148.884C47.0044 149.736 45.3204 152.801 46.1723 155.731Z" fill="black"/>
<path d="M209.641 203.519C210.493 206.448 213.558 208.132 216.487 207.28C219.417 206.428 221.101 203.363 220.249 200.434C219.397 197.504 216.331 195.82 213.402 196.672C210.473 197.524 208.789 200.589 209.641 203.519Z" fill="black"/>
<path d="M121.951 43.2925C122.803 46.2218 125.868 47.9059 128.797 47.0539C131.727 46.202 133.411 43.1366 132.559 40.2073C131.707 37.278 128.641 35.5939 125.712 36.4459C122.783 37.2978 121.099 40.3632 121.951 43.2925Z" fill="black"/>
</svg>
