<svg width="712" height="786" viewBox="0 0 712 786" fill="none" xmlns="http://www.w3.org/2000/svg">
<path d="M641.519 8.79321C642.432 8.79321 643.22 8.97305 643.884 9.33272C644.106 9.44339 644.189 9.62323 644.133 9.87223L643.677 11.9058C643.594 12.1824 643.414 12.2654 643.137 12.1548C642.667 11.9611 642.128 11.8643 641.519 11.8643L640.979 11.9058C639.541 11.9611 638.351 12.5006 637.41 13.5243C636.47 14.5203 635.999 15.793 635.999 17.3424V29.5851C635.999 29.8618 635.861 30.0001 635.584 30.0001H633.468C633.191 30.0001 633.053 29.8618 633.053 29.5851V9.41573C633.053 9.13905 633.191 9.00072 633.468 9.00072H635.584C635.861 9.00072 635.999 9.13905 635.999 9.41573V11.9473C635.999 12.0303 636.013 12.0856 636.041 12.1133C636.096 12.1133 636.138 12.0856 636.165 12.0303C636.746 11.0066 637.479 10.2181 638.365 9.66473C639.278 9.08372 640.329 8.79321 641.519 8.79321Z" fill="black"/>
<path d="M627.027 15.9728C627.137 16.7475 627.193 17.7159 627.193 18.8779V20.2059C627.193 20.4826 627.054 20.6209 626.778 20.6209H613.373C613.262 20.6209 613.207 20.6763 613.207 20.7869C613.262 22.3086 613.345 23.2908 613.456 23.7335C613.76 24.9785 614.41 25.9607 615.406 26.6801C616.402 27.3994 617.675 27.7591 619.224 27.7591C620.386 27.7591 621.41 27.4962 622.295 26.9706C623.181 26.4449 623.873 25.6979 624.371 24.7295C624.537 24.4805 624.73 24.4252 624.952 24.5635L626.57 25.518C626.791 25.6564 626.847 25.85 626.736 26.099C626.044 27.4271 625.007 28.4784 623.624 29.2531C622.24 30.0001 620.649 30.3736 618.851 30.3736C616.887 30.346 615.24 29.8756 613.912 28.9626C612.584 28.0496 611.63 26.7769 611.049 25.1445C610.551 23.8165 610.302 21.9075 610.302 19.4174C610.302 18.2554 610.316 17.3147 610.343 16.5954C610.399 15.8483 610.509 15.1843 610.675 14.6033C611.146 12.8049 612.086 11.3663 613.497 10.2872C614.936 9.20821 616.665 8.6687 618.685 8.6687C621.203 8.6687 623.139 9.30505 624.495 10.5777C625.851 11.8504 626.695 13.6488 627.027 15.9728ZM618.685 11.2418C617.329 11.2418 616.195 11.6014 615.282 12.3208C614.397 13.0125 613.815 13.9531 613.539 15.1428C613.373 15.7238 613.262 16.6645 613.207 17.9649C613.207 18.0756 613.262 18.1309 613.373 18.1309H624.122C624.232 18.1309 624.288 18.0756 624.288 17.9649C624.232 16.7199 624.149 15.8345 624.039 15.3088C623.734 14.0638 623.112 13.0816 622.171 12.3623C621.258 11.6153 620.096 11.2418 618.685 11.2418Z" fill="black"/>
<path d="M604.697 14.3542C605.029 15.5993 605.195 17.3146 605.195 19.5003C605.195 21.769 605.001 23.5259 604.614 24.7709C604.088 26.4863 603.175 27.842 601.874 28.838C600.574 29.834 598.956 30.3321 597.019 30.3321C595.912 30.3321 594.902 30.1107 593.989 29.668C593.076 29.2254 592.315 28.589 591.707 27.759C591.679 27.7037 591.638 27.6898 591.582 27.7175C591.527 27.7175 591.499 27.7452 591.499 27.8005V29.585C591.499 29.8617 591.361 30 591.084 30H588.968C588.691 30 588.553 29.8617 588.553 29.585V1.36447C588.553 1.0878 588.691 0.949463 588.968 0.949463H591.084C591.361 0.949463 591.499 1.0878 591.499 1.36447V11.1587C591.499 11.214 591.513 11.2555 591.541 11.2832C591.596 11.2832 591.651 11.2555 591.707 11.2002C592.315 10.3978 593.076 9.77531 593.989 9.33263C594.902 8.88996 595.912 8.66862 597.019 8.66862C598.983 8.66862 600.629 9.18046 601.958 10.2041C603.286 11.2002 604.199 12.5835 604.697 14.3542ZM601.501 24.5219C601.778 23.9409 601.971 23.2907 602.082 22.5714C602.193 21.8244 602.248 20.8007 602.248 19.5003C602.248 18.1446 602.165 17.0933 601.999 16.3463C601.861 15.5716 601.625 14.8799 601.293 14.2712C600.934 13.3582 600.353 12.625 599.55 12.0717C598.748 11.5183 597.794 11.2417 596.687 11.2417C595.636 11.2417 594.723 11.5322 593.948 12.1132C593.201 12.6665 592.661 13.4135 592.329 14.3542C592.053 14.9352 591.845 15.5993 591.707 16.3463C591.596 17.0933 591.541 18.1446 591.541 19.5003C591.541 20.8284 591.596 21.8659 591.707 22.6129C591.845 23.3322 592.039 23.9824 592.288 24.5634C592.647 25.5318 593.201 26.3065 593.948 26.8875C594.695 27.4685 595.622 27.759 596.728 27.759C597.89 27.759 598.886 27.4685 599.716 26.8875C600.574 26.3065 601.169 25.518 601.501 24.5219Z" fill="black"/>
<path d="M575.514 8.71021C577.589 8.71021 579.221 9.33272 580.411 10.5777C581.629 11.8228 582.237 13.5243 582.237 15.6823V29.5851C582.237 29.8618 582.099 30.0001 581.822 30.0001H579.747C579.47 30.0001 579.332 29.8618 579.332 29.5851V16.2634C579.332 14.7417 578.889 13.5381 578.004 12.6528C577.146 11.7398 576.012 11.2833 574.601 11.2833C573.135 11.2833 571.945 11.7259 571.032 12.6113C570.147 13.4966 569.704 14.6863 569.704 16.1804V29.5851C569.704 29.8618 569.566 30.0001 569.289 30.0001H567.172C566.896 30.0001 566.757 29.8618 566.757 29.5851V16.2634C566.757 14.7417 566.329 13.5381 565.471 12.6528C564.613 11.7398 563.465 11.2833 562.026 11.2833C560.56 11.2833 559.384 11.7259 558.499 12.6113C557.641 13.4966 557.212 14.6863 557.212 16.1804V29.5851C557.212 29.8618 557.074 30.0001 556.797 30.0001H554.681C554.404 30.0001 554.266 29.8618 554.266 29.5851V9.41572C554.266 9.13905 554.404 9.00071 554.681 9.00071H556.797C557.074 9.00071 557.212 9.13905 557.212 9.41572V11.0758C557.212 11.1311 557.226 11.1726 557.254 11.2003C557.309 11.2003 557.364 11.1726 557.42 11.1173C558.028 10.3149 558.803 9.72006 559.744 9.33272C560.712 8.91771 561.777 8.71021 562.939 8.71021C564.378 8.71021 565.609 9.00071 566.633 9.58172C567.657 10.1627 568.431 11.0066 568.957 12.1133C569.012 12.2516 569.081 12.2516 569.164 12.1133C569.773 10.9789 570.631 10.1351 571.737 9.58172C572.844 9.00071 574.103 8.71021 575.514 8.71021Z" fill="black"/>
<path d="M548.239 15.9728C548.35 16.7475 548.405 17.7159 548.405 18.8779V20.2059C548.405 20.4826 548.267 20.6209 547.99 20.6209H534.586C534.475 20.6209 534.42 20.6763 534.42 20.7869C534.475 22.3086 534.558 23.2908 534.669 23.7335C534.973 24.9785 535.623 25.9607 536.619 26.6801C537.615 27.3994 538.888 27.7591 540.437 27.7591C541.599 27.7591 542.623 27.4962 543.508 26.9706C544.394 26.4449 545.085 25.6979 545.583 24.7295C545.749 24.4805 545.943 24.4252 546.164 24.5635L547.783 25.518C548.004 25.6564 548.06 25.85 547.949 26.099C547.257 27.4271 546.22 28.4784 544.836 29.2531C543.453 30.0001 541.862 30.3736 540.064 30.3736C538.099 30.346 536.453 29.8756 535.125 28.9626C533.797 28.0496 532.843 26.7769 532.262 25.1445C531.764 23.8165 531.515 21.9075 531.515 19.4174C531.515 18.2554 531.528 17.3147 531.556 16.5954C531.611 15.8483 531.722 15.1843 531.888 14.6033C532.358 12.8049 533.299 11.3663 534.71 10.2872C536.149 9.20821 537.878 8.6687 539.898 8.6687C542.416 8.6687 544.352 9.30505 545.708 10.5777C547.064 11.8504 547.907 13.6488 548.239 15.9728ZM539.898 11.2418C538.542 11.2418 537.408 11.6014 536.495 12.3208C535.609 13.0125 535.028 13.9531 534.752 15.1428C534.586 15.7238 534.475 16.6645 534.42 17.9649C534.42 18.0756 534.475 18.1309 534.586 18.1309H545.334C545.445 18.1309 545.5 18.0756 545.5 17.9649C545.445 16.7199 545.362 15.8345 545.251 15.3088C544.947 14.0638 544.325 13.0816 543.384 12.3623C542.471 11.6153 541.309 11.2418 539.898 11.2418Z" fill="black"/>
<path d="M521.893 1.23997C522.031 1.0463 522.197 0.949463 522.391 0.949463H524.549C524.826 0.949463 524.964 1.0878 524.964 1.36447V29.585C524.964 29.8617 524.826 30 524.549 30H522.433C522.156 30 522.018 29.8617 522.018 29.585V6.51057C522.018 6.42757 521.99 6.37224 521.935 6.34457C521.879 6.3169 521.838 6.34457 521.81 6.42757L515.045 16.8028C514.907 16.9965 514.741 17.0933 514.547 17.0933H513.468C513.275 17.0933 513.109 17.0103 512.97 16.8443L506.206 6.55208C506.178 6.46907 506.137 6.44141 506.081 6.46907C506.026 6.49674 505.998 6.55207 505.998 6.63508V29.585C505.998 29.8617 505.86 30 505.583 30H503.467C503.19 30 503.052 29.8617 503.052 29.585V1.36447C503.052 1.0878 503.19 0.949463 503.467 0.949463H505.625C505.846 0.949463 506.012 1.03246 506.123 1.19847L513.925 13.0262C513.953 13.0539 513.994 13.0677 514.049 13.0677C514.105 13.0677 514.146 13.0539 514.174 13.0262L521.893 1.23997Z" fill="black"/>
<path d="M233.225 763.793C234.138 763.793 234.926 763.973 235.59 764.333C235.812 764.444 235.895 764.623 235.84 764.872L235.383 766.906C235.3 767.183 235.12 767.266 234.843 767.155C234.373 766.961 233.834 766.865 233.225 766.865L232.685 766.906C231.247 766.961 230.057 767.501 229.116 768.525C228.176 769.521 227.705 770.793 227.705 772.343V784.585C227.705 784.862 227.567 785 227.29 785H225.174C224.897 785 224.759 784.862 224.759 784.585V764.416C224.759 764.139 224.897 764.001 225.174 764.001H227.29C227.567 764.001 227.705 764.139 227.705 764.416V766.948C227.705 767.031 227.719 767.086 227.747 767.114C227.802 767.114 227.844 767.086 227.871 767.031C228.452 766.007 229.186 765.218 230.071 764.665C230.984 764.084 232.035 763.793 233.225 763.793Z" fill="black"/>
<path d="M210.154 785.332C208.162 785.332 206.446 784.821 205.008 783.797C203.569 782.773 202.573 781.362 202.019 779.564C201.632 778.291 201.438 776.59 201.438 774.459C201.438 772.329 201.632 770.641 202.019 769.396C202.545 767.625 203.527 766.228 204.966 765.204C206.405 764.181 208.148 763.669 210.195 763.669C212.16 763.669 213.847 764.181 215.258 765.204C216.697 766.228 217.679 767.612 218.205 769.355C218.592 770.544 218.786 772.246 218.786 774.459C218.786 776.7 218.592 778.402 218.205 779.564C217.679 781.362 216.697 782.773 215.258 783.797C213.847 784.821 212.146 785.332 210.154 785.332ZM210.154 782.759C211.482 782.759 212.616 782.4 213.557 781.68C214.497 780.933 215.134 779.937 215.466 778.692C215.715 777.696 215.839 776.299 215.839 774.501C215.839 772.675 215.729 771.277 215.507 770.309C215.175 769.064 214.525 768.082 213.557 767.363C212.616 766.616 211.468 766.242 210.112 766.242C208.756 766.242 207.608 766.616 206.668 767.363C205.727 768.082 205.091 769.064 204.759 770.309C204.537 771.277 204.427 772.675 204.427 774.501C204.427 776.327 204.537 777.724 204.759 778.692C205.063 779.937 205.685 780.933 206.626 781.68C207.594 782.4 208.77 782.759 210.154 782.759Z" fill="black"/>
<path d="M197.055 766.034C197.055 766.311 196.917 766.449 196.64 766.449H191.951C191.84 766.449 191.785 766.504 191.785 766.615V778.858C191.785 780.186 192.075 781.127 192.656 781.68C193.265 782.206 194.206 782.468 195.478 782.468H196.516C196.792 782.468 196.931 782.607 196.931 782.883V784.585C196.931 784.862 196.792 785 196.516 785C196.184 785.028 195.672 785.041 194.98 785.041C192.988 785.041 191.48 784.668 190.457 783.921C189.433 783.174 188.921 781.791 188.921 779.771V766.615C188.921 766.504 188.866 766.449 188.755 766.449H186.224C185.947 766.449 185.809 766.311 185.809 766.034V764.416C185.809 764.139 185.947 764.001 186.224 764.001H188.755C188.866 764.001 188.921 763.945 188.921 763.835V759.02C188.921 758.744 189.059 758.605 189.336 758.605H191.37C191.646 758.605 191.785 758.744 191.785 759.02V763.835C191.785 763.945 191.84 764.001 191.951 764.001H196.64C196.917 764.001 197.055 764.139 197.055 764.416V766.034Z" fill="black"/>
<path d="M178.084 764.416C178.084 764.139 178.222 764.001 178.499 764.001H180.616C180.892 764.001 181.031 764.139 181.031 764.416V784.585C181.031 784.862 180.892 785 180.616 785H178.499C178.222 785 178.084 784.862 178.084 784.585V782.801C178.084 782.746 178.056 782.704 178.001 782.676C177.946 782.649 177.904 782.663 177.876 782.718C176.714 784.433 174.875 785.291 172.357 785.291C171.029 785.291 169.798 785.028 168.663 784.502C167.557 783.949 166.671 783.161 166.007 782.137C165.371 781.113 165.053 779.882 165.053 778.443V764.416C165.053 764.139 165.191 764.001 165.468 764.001H167.584C167.861 764.001 167.999 764.139 167.999 764.416V777.572C167.999 779.149 168.442 780.408 169.327 781.348C170.213 782.261 171.416 782.718 172.938 782.718C174.515 782.718 175.76 782.248 176.673 781.307C177.614 780.366 178.084 779.121 178.084 777.572V764.416Z" fill="black"/>
<path d="M158.873 769.354C159.205 770.599 159.371 772.315 159.371 774.501C159.371 776.769 159.178 778.526 158.79 779.771C158.265 781.487 157.352 782.842 156.051 783.838C154.751 784.834 153.132 785.332 151.196 785.332C150.089 785.332 149.079 785.111 148.166 784.668C147.253 784.226 146.492 783.589 145.884 782.759C145.856 782.704 145.814 782.69 145.759 782.718C145.704 782.718 145.676 782.745 145.676 782.801V784.585C145.676 784.862 145.538 785 145.261 785H143.145C142.868 785 142.729 784.862 142.729 784.585V756.365C142.729 756.088 142.868 755.95 143.145 755.95H145.261C145.538 755.95 145.676 756.088 145.676 756.365V766.159C145.676 766.214 145.69 766.256 145.718 766.283C145.773 766.283 145.828 766.256 145.884 766.2C146.492 765.398 147.253 764.776 148.166 764.333C149.079 763.89 150.089 763.669 151.196 763.669C153.16 763.669 154.806 764.181 156.134 765.204C157.462 766.2 158.375 767.584 158.873 769.354ZM155.678 779.522C155.954 778.941 156.148 778.291 156.259 777.572C156.369 776.825 156.425 775.801 156.425 774.501C156.425 773.145 156.342 772.094 156.176 771.347C156.037 770.572 155.802 769.88 155.47 769.271C155.111 768.358 154.53 767.625 153.727 767.072C152.925 766.519 151.97 766.242 150.864 766.242C149.812 766.242 148.899 766.532 148.125 767.113C147.378 767.667 146.838 768.414 146.506 769.354C146.229 769.935 146.022 770.599 145.884 771.347C145.773 772.094 145.718 773.145 145.718 774.501C145.718 775.829 145.773 776.866 145.884 777.613C146.022 778.332 146.216 778.983 146.465 779.564C146.824 780.532 147.378 781.307 148.125 781.888C148.872 782.469 149.798 782.759 150.905 782.759C152.067 782.759 153.063 782.469 153.893 781.888C154.751 781.307 155.346 780.518 155.678 779.522Z" fill="black"/>
<path d="M134.144 760.183C133.48 760.183 132.927 759.961 132.484 759.519C132.042 759.076 131.82 758.523 131.82 757.859C131.82 757.167 132.042 756.614 132.484 756.199C132.927 755.756 133.48 755.535 134.144 755.535C134.808 755.535 135.362 755.756 135.804 756.199C136.247 756.614 136.468 757.167 136.468 757.859C136.468 758.523 136.247 759.076 135.804 759.519C135.362 759.961 134.808 760.183 134.144 760.183ZM132.982 784.959C132.706 784.959 132.567 784.82 132.567 784.544V764.374C132.567 764.098 132.706 763.959 132.982 763.959H135.099C135.376 763.959 135.514 764.098 135.514 764.374V784.544C135.514 784.82 135.376 784.959 135.099 784.959H132.982Z" fill="black"/>
<path d="M125.501 763.793C126.414 763.793 127.203 763.973 127.867 764.333C128.088 764.444 128.171 764.623 128.116 764.872L127.659 766.906C127.576 767.183 127.397 767.266 127.12 767.155C126.65 766.961 126.11 766.865 125.501 766.865L124.962 766.906C123.523 766.961 122.333 767.501 121.393 768.525C120.452 769.521 119.982 770.793 119.982 772.343V784.585C119.982 784.862 119.843 785 119.567 785H117.45C117.173 785 117.035 784.862 117.035 784.585V764.416C117.035 764.139 117.173 764.001 117.45 764.001H119.567C119.843 764.001 119.982 764.139 119.982 764.416V766.948C119.982 767.031 119.996 767.086 120.023 767.114C120.079 767.114 120.12 767.086 120.148 767.031C120.729 766.007 121.462 765.218 122.347 764.665C123.26 764.084 124.312 763.793 125.501 763.793Z" fill="black"/>
<path d="M111.339 766.034C111.339 766.311 111.2 766.449 110.924 766.449H106.234C106.123 766.449 106.068 766.504 106.068 766.615V778.858C106.068 780.186 106.358 781.127 106.939 781.68C107.548 782.206 108.489 782.468 109.761 782.468H110.799C111.076 782.468 111.214 782.607 111.214 782.883V784.585C111.214 784.862 111.076 785 110.799 785C110.467 785.028 109.955 785.041 109.263 785.041C107.271 785.041 105.764 784.668 104.74 783.921C103.716 783.174 103.204 781.791 103.204 779.771V766.615C103.204 766.504 103.149 766.449 103.038 766.449H100.507C100.23 766.449 100.092 766.311 100.092 766.034V764.416C100.092 764.139 100.23 764.001 100.507 764.001H103.038C103.149 764.001 103.204 763.945 103.204 763.835V759.02C103.204 758.744 103.343 758.605 103.619 758.605H105.653C105.93 758.605 106.068 758.744 106.068 759.02V763.835C106.068 763.945 106.123 764.001 106.234 764.001H110.924C111.2 764.001 111.339 764.139 111.339 764.416V766.034Z" fill="black"/>
<path d="M88.2611 763.71C90.4744 763.71 92.2313 764.361 93.5317 765.661C94.8597 766.961 95.5237 768.704 95.5237 770.89V784.585C95.5237 784.862 95.3854 785 95.1087 785H92.9922C92.7155 785 92.5772 784.862 92.5772 784.585V771.471C92.5772 769.949 92.1068 768.704 91.1661 767.736C90.2531 766.768 89.0634 766.283 87.5971 766.283C86.0754 766.283 84.8442 766.754 83.9035 767.695C82.9628 768.635 82.4925 769.866 82.4925 771.388V784.585C82.4925 784.862 82.3541 785 82.0774 785H79.9609C79.6842 785 79.5459 784.862 79.5459 784.585V764.416C79.5459 764.139 79.6842 764.001 79.9609 764.001H82.0774C82.3541 764.001 82.4925 764.139 82.4925 764.416V766.2C82.4925 766.256 82.5063 766.297 82.534 766.325C82.5893 766.353 82.6308 766.339 82.6585 766.283C83.8758 764.568 85.7434 763.71 88.2611 763.71Z" fill="black"/>
<path d="M64.9417 785.332C62.9497 785.332 61.2343 784.821 59.7956 783.797C58.3569 782.773 57.3609 781.362 56.8076 779.564C56.4202 778.291 56.2266 776.59 56.2266 774.459C56.2266 772.329 56.4202 770.641 56.8076 769.396C57.3333 767.625 58.3154 766.228 59.7541 765.204C61.1928 764.181 62.9359 763.669 64.9832 763.669C66.9476 763.669 68.6353 764.181 70.0463 765.204C71.485 766.228 72.4672 767.612 72.9929 769.355C73.3802 770.544 73.5739 772.246 73.5739 774.459C73.5739 776.7 73.3802 778.402 72.9929 779.564C72.4672 781.362 71.485 782.773 70.0463 783.797C68.6353 784.821 66.9338 785.332 64.9417 785.332ZM64.9417 782.759C66.2698 782.759 67.4041 782.4 68.3448 781.68C69.2855 780.933 69.9218 779.937 70.2538 778.692C70.5028 777.696 70.6274 776.299 70.6274 774.501C70.6274 772.675 70.5167 771.277 70.2953 770.309C69.9633 769.064 69.3132 768.082 68.3448 767.363C67.4041 766.616 66.2559 766.242 64.9002 766.242C63.5445 766.242 62.3964 766.616 61.4557 767.363C60.515 768.082 59.8786 769.064 59.5466 770.309C59.3253 771.277 59.2146 772.675 59.2146 774.501C59.2146 776.327 59.3253 777.724 59.5466 778.692C59.851 779.937 60.4735 780.933 61.4142 781.68C62.3825 782.4 63.5584 782.759 64.9417 782.759Z" fill="black"/>
<path d="M41.1843 785.374C39.2476 785.374 37.5461 785 36.0797 784.253C34.6134 783.479 33.4652 782.4 32.6352 781.016C31.8328 779.605 31.4316 777.987 31.4316 776.161V764.748C31.4316 762.949 31.8328 761.359 32.6352 759.975C33.4652 758.592 34.6134 757.527 36.0797 756.78C37.5461 756.005 39.2476 755.618 41.1843 755.618C43.121 755.618 44.8226 755.991 46.2889 756.738C47.7553 757.485 48.8897 758.537 49.692 759.892C50.522 761.248 50.937 762.811 50.937 764.582C50.937 764.72 50.8955 764.831 50.8125 764.914C50.7295 764.997 50.6327 765.038 50.522 765.038L48.4055 765.163C48.1288 765.163 47.9905 765.038 47.9905 764.789V764.665C47.9905 762.7 47.368 761.137 46.1229 759.975C44.8779 758.786 43.2317 758.191 41.1843 758.191C39.137 758.191 37.4908 758.786 36.2457 759.975C35.0007 761.165 34.3782 762.728 34.3782 764.665V776.285C34.3782 778.222 35.0007 779.785 36.2457 780.975C37.4908 782.164 39.137 782.759 41.1843 782.759C43.2317 782.759 44.8779 782.178 46.1229 781.016C47.368 779.826 47.9905 778.249 47.9905 776.285V776.202C47.9905 775.953 48.1288 775.829 48.4055 775.829L50.522 775.953C50.7987 775.953 50.937 776.078 50.937 776.327C50.937 778.125 50.522 779.716 49.692 781.099C48.8897 782.455 47.7553 783.506 46.2889 784.253C44.8226 785 43.121 785.374 41.1843 785.374Z" fill="black"/>
<path d="M692.627 717.793C693.54 717.793 694.329 717.973 694.993 718.332C695.214 718.443 695.297 718.623 695.242 718.872L694.785 720.906C694.702 721.182 694.523 721.265 694.246 721.155C693.775 720.961 693.236 720.864 692.627 720.864L692.088 720.906C690.649 720.961 689.459 721.5 688.519 722.524C687.578 723.52 687.108 724.793 687.108 726.342V738.585C687.108 738.862 686.969 739 686.693 739H684.576C684.299 739 684.161 738.862 684.161 738.585V718.415C684.161 718.139 684.299 718 684.576 718H686.693C686.969 718 687.108 718.139 687.108 718.415V720.947C687.108 721.03 687.122 721.085 687.149 721.113C687.205 721.113 687.246 721.085 687.274 721.03C687.855 720.006 688.588 719.218 689.473 718.664C690.386 718.083 691.438 717.793 692.627 717.793Z" fill="black"/>
<path d="M669.556 739.332C667.564 739.332 665.849 738.82 664.41 737.796C662.971 736.773 661.975 735.362 661.422 733.563C661.034 732.291 660.841 730.589 660.841 728.459C660.841 726.328 661.034 724.641 661.422 723.396C661.948 721.625 662.93 720.228 664.368 719.204C665.807 718.18 667.55 717.668 669.597 717.668C671.562 717.668 673.25 718.18 674.661 719.204C676.099 720.228 677.081 721.611 677.607 723.354C677.994 724.544 678.188 726.245 678.188 728.459C678.188 730.7 677.994 732.401 677.607 733.563C677.081 735.362 676.099 736.773 674.661 737.796C673.25 738.82 671.548 739.332 669.556 739.332ZM669.556 736.759C670.884 736.759 672.018 736.399 672.959 735.68C673.9 734.933 674.536 733.937 674.868 732.692C675.117 731.696 675.242 730.299 675.242 728.5C675.242 726.674 675.131 725.277 674.91 724.309C674.578 723.064 673.927 722.081 672.959 721.362C672.018 720.615 670.87 720.242 669.514 720.242C668.159 720.242 667.011 720.615 666.07 721.362C665.129 722.081 664.493 723.064 664.161 724.309C663.94 725.277 663.829 726.674 663.829 728.5C663.829 730.326 663.94 731.723 664.161 732.692C664.465 733.937 665.088 734.933 666.028 735.68C666.997 736.399 668.173 736.759 669.556 736.759Z" fill="black"/>
<path d="M656.458 720.034C656.458 720.311 656.319 720.449 656.043 720.449H651.353C651.242 720.449 651.187 720.504 651.187 720.615V732.858C651.187 734.186 651.478 735.127 652.059 735.68C652.667 736.206 653.608 736.468 654.881 736.468H655.918C656.195 736.468 656.333 736.607 656.333 736.883V738.585C656.333 738.862 656.195 739 655.918 739C655.586 739.028 655.074 739.041 654.383 739.041C652.391 739.041 650.883 738.668 649.859 737.921C648.835 737.174 648.324 735.791 648.324 733.771V720.615C648.324 720.504 648.268 720.449 648.158 720.449H645.626C645.349 720.449 645.211 720.311 645.211 720.034V718.416C645.211 718.139 645.349 718.001 645.626 718.001H648.158C648.268 718.001 648.324 717.945 648.324 717.835V713.02C648.324 712.744 648.462 712.605 648.739 712.605H650.772C651.049 712.605 651.187 712.744 651.187 713.02V717.835C651.187 717.945 651.242 718.001 651.353 718.001H656.043C656.319 718.001 656.458 718.139 656.458 718.416V720.034Z" fill="black"/>
<path d="M633.265 717.668C635.756 717.668 637.678 718.305 639.034 719.577C640.39 720.85 641.068 722.538 641.068 724.641V738.585C641.068 738.862 640.929 739 640.653 739H638.536C638.259 739 638.121 738.862 638.121 738.585V736.883C638.121 736.828 638.093 736.787 638.038 736.759C638.01 736.731 637.969 736.745 637.914 736.8C637.222 737.63 636.323 738.267 635.216 738.709C634.109 739.124 632.878 739.332 631.522 739.332C629.558 739.332 627.912 738.834 626.584 737.838C625.256 736.842 624.592 735.32 624.592 733.273C624.592 731.198 625.339 729.565 626.833 728.376C628.355 727.158 630.457 726.55 633.141 726.55H637.955C638.066 726.55 638.121 726.494 638.121 726.384V724.807C638.121 723.396 637.72 722.289 636.918 721.487C636.143 720.657 634.926 720.242 633.265 720.242C631.937 720.242 630.858 720.504 630.028 721.03C629.198 721.528 628.687 722.234 628.493 723.147C628.41 723.423 628.244 723.548 627.995 723.52L625.754 723.23C625.449 723.174 625.325 723.064 625.38 722.898C625.602 721.348 626.432 720.089 627.87 719.121C629.309 718.153 631.107 717.668 633.265 717.668ZM632.103 736.8C633.736 736.8 635.147 736.399 636.337 735.597C637.526 734.767 638.121 733.66 638.121 732.277V729.04C638.121 728.929 638.066 728.874 637.955 728.874H633.597C631.771 728.874 630.305 729.247 629.198 729.994C628.092 730.741 627.538 731.779 627.538 733.107C627.538 734.324 627.953 735.251 628.783 735.887C629.641 736.496 630.748 736.8 632.103 736.8Z" fill="black"/>
<path d="M612.346 717.71C614.559 717.71 616.316 718.36 617.617 719.66C618.945 720.961 619.609 722.704 619.609 724.89V738.585C619.609 738.862 619.47 739 619.194 739H617.077C616.8 739 616.662 738.862 616.662 738.585V725.471C616.662 723.949 616.192 722.704 615.251 721.736C614.338 720.767 613.148 720.283 611.682 720.283C610.16 720.283 608.929 720.753 607.988 721.694C607.048 722.635 606.577 723.866 606.577 725.388V738.585C606.577 738.862 606.439 739 606.162 739H604.046C603.769 739 603.631 738.862 603.631 738.585V718.415C603.631 718.139 603.769 718 604.046 718H606.162C606.439 718 606.577 718.139 606.577 718.415V720.2C606.577 720.255 606.591 720.297 606.619 720.325C606.674 720.352 606.716 720.338 606.743 720.283C607.961 718.568 609.828 717.71 612.346 717.71Z" fill="black"/>
<path d="M589.027 739.332C587.035 739.332 585.319 738.82 583.881 737.796C582.442 736.773 581.446 735.362 580.893 733.563C580.505 732.291 580.312 730.589 580.312 728.459C580.312 726.328 580.505 724.641 580.893 723.396C581.418 721.625 582.4 720.228 583.839 719.204C585.278 718.18 587.021 717.668 589.068 717.668C591.033 717.668 592.72 718.18 594.131 719.204C595.57 720.228 596.552 721.611 597.078 723.354C597.465 724.544 597.659 726.245 597.659 728.459C597.659 730.7 597.465 732.401 597.078 733.563C596.552 735.362 595.57 736.773 594.131 737.796C592.72 738.82 591.019 739.332 589.027 739.332ZM589.027 736.759C590.355 736.759 591.489 736.399 592.43 735.68C593.37 734.933 594.007 733.937 594.339 732.692C594.588 731.696 594.712 730.299 594.712 728.5C594.712 726.674 594.602 725.277 594.38 724.309C594.048 723.064 593.398 722.081 592.43 721.362C591.489 720.615 590.341 720.242 588.985 720.242C587.63 720.242 586.481 720.615 585.541 721.362C584.6 722.081 583.964 723.064 583.632 724.309C583.41 725.277 583.3 726.674 583.3 728.5C583.3 730.326 583.41 731.723 583.632 732.692C583.936 733.937 584.558 734.933 585.499 735.68C586.467 736.399 587.643 736.759 589.027 736.759Z" fill="black"/>
<path d="M556.358 739C556.082 739 555.943 738.861 555.943 738.585V710.364C555.943 710.088 556.082 709.949 556.358 709.949H566.153C568.892 709.949 571.063 710.669 572.668 712.107C574.301 713.546 575.117 715.496 575.117 717.959V730.99C575.117 733.453 574.301 735.403 572.668 736.842C571.063 738.28 568.892 739 566.153 739H556.358ZM558.89 736.261C558.89 736.371 558.945 736.427 559.056 736.427H566.277C568.075 736.427 569.5 735.901 570.552 734.85C571.631 733.798 572.17 732.387 572.17 730.617V718.374C572.17 716.576 571.645 715.151 570.593 714.099C569.542 713.048 568.103 712.522 566.277 712.522H559.056C558.945 712.522 558.89 712.578 558.89 712.688V736.261Z" fill="black"/>
<path fill-rule="evenodd" clip-rule="evenodd" d="M356 743.47C550.664 743.47 708.47 585.664 708.47 391C708.47 196.336 550.664 38.53 356 38.53C161.336 38.53 3.53 196.336 3.53 391C3.53 585.664 161.336 743.47 356 743.47ZM356 747C552.613 747 712 587.613 712 391C712 194.387 552.613 35 356 35C159.387 35 0 194.387 0 391C0 587.613 159.387 747 356 747Z" fill="black"/>
<path d="M689 588.5C689 611.972 669.972 631 646.5 631C623.028 631 604 611.972 604 588.5C604 565.028 623.028 546 646.5 546C669.972 546 689 565.028 689 588.5Z" fill="#9BE5D7"/>
<path d="M217 700.5C217 723.972 197.972 743 174.5 743C151.028 743 132 723.972 132 700.5C132 677.028 151.028 658 174.5 658C197.972 658 217 677.028 217 700.5Z" fill="#FAE56E"/>
<path d="M591 101.5C591 124.972 571.972 144 548.5 144C525.028 144 506 124.972 506 101.5C506 78.0279 525.028 59 548.5 59C571.972 59 591 78.0279 591 101.5Z" fill="#EA96A9"/>
<path d="M575 101.5C575 116.136 563.136 128 548.5 128C533.864 128 522 116.136 522 101.5C522 86.8645 533.864 75 548.5 75C563.136 75 575 86.8645 575 101.5Z" fill="black"/>
<path d="M673 588.5C673 603.136 661.136 615 646.5 615C631.864 615 620 603.136 620 588.5C620 573.864 631.864 562 646.5 562C661.136 562 673 573.864 673 588.5Z" fill="black"/>
<path d="M201 699.5C201 714.136 189.136 726 174.5 726C159.864 726 148 714.136 148 699.5C148 684.864 159.864 673 174.5 673C189.136 673 201 684.864 201 699.5Z" fill="black"/>
<path d="M490.276 344.8C490.276 345.133 490.142 345.433 489.876 345.7C489.676 345.9 489.409 346 489.076 346H455.076C454.742 346 454.576 346.167 454.576 346.5V365.2C454.576 365.533 454.742 365.7 455.076 365.7H477.976C478.309 365.7 478.576 365.833 478.776 366.1C479.042 366.3 479.176 366.567 479.176 366.9V374.5C479.176 374.833 479.042 375.133 478.776 375.4C478.576 375.6 478.309 375.7 477.976 375.7H455.076C454.742 375.7 454.576 375.867 454.576 376.2V404.8C454.576 405.133 454.442 405.433 454.176 405.7C453.976 405.9 453.709 406 453.376 406H444.176C443.842 406 443.542 405.9 443.276 405.7C443.076 405.433 442.976 405.133 442.976 404.8V337.2C442.976 336.867 443.076 336.6 443.276 336.4C443.542 336.133 443.842 336 444.176 336H489.076C489.409 336 489.676 336.133 489.876 336.4C490.142 336.6 490.276 336.867 490.276 337.2V344.8Z" fill="black"/>
<path d="M406.493 406.8C401.293 406.8 396.76 405.967 392.893 404.3C389.026 402.633 386.026 400.3 383.893 397.3C381.826 394.3 380.793 390.767 380.793 386.7V384.2C380.793 383.867 380.893 383.6 381.093 383.4C381.36 383.133 381.66 383 381.993 383H390.893C391.226 383 391.493 383.133 391.693 383.4C391.96 383.6 392.093 383.867 392.093 384.2V386.1C392.093 389.167 393.46 391.733 396.193 393.8C398.926 395.8 402.66 396.8 407.393 396.8C411.46 396.8 414.526 395.933 416.593 394.2C418.66 392.467 419.693 390.233 419.693 387.5C419.693 385.633 419.126 384.067 417.993 382.8C416.86 381.467 415.226 380.267 413.093 379.2C411.026 378.133 407.893 376.8 403.693 375.2C398.96 373.467 395.126 371.833 392.193 370.3C389.26 368.767 386.793 366.7 384.793 364.1C382.86 361.433 381.893 358.133 381.893 354.2C381.893 348.333 384.026 343.7 388.293 340.3C392.56 336.9 398.26 335.2 405.393 335.2C410.393 335.2 414.793 336.067 418.593 337.8C422.46 339.533 425.46 341.967 427.593 345.1C429.726 348.167 430.793 351.733 430.793 355.8V357.5C430.793 357.833 430.66 358.133 430.393 358.4C430.193 358.6 429.926 358.7 429.593 358.7H420.593C420.26 358.7 419.96 358.6 419.693 358.4C419.493 358.133 419.393 357.833 419.393 357.5V356.4C419.393 353.267 418.093 350.633 415.493 348.5C412.96 346.3 409.426 345.2 404.893 345.2C401.226 345.2 398.36 345.967 396.293 347.5C394.293 349.033 393.293 351.2 393.293 354C393.293 356 393.826 357.633 394.893 358.9C395.96 360.167 397.56 361.333 399.693 362.4C401.826 363.4 405.126 364.7 409.593 366.3C414.326 368.1 418.093 369.733 420.893 371.2C423.76 372.667 426.193 374.733 428.193 377.4C430.26 380 431.293 383.267 431.293 387.2C431.293 393.2 429.06 397.967 424.593 401.5C420.193 405.033 414.16 406.8 406.493 406.8Z" fill="black"/>
<path d="M357.509 336.8C357.843 336.267 358.309 336 358.909 336H368.109C368.443 336 368.709 336.133 368.909 336.4C369.176 336.6 369.309 336.867 369.309 337.2V404.8C369.309 405.133 369.176 405.433 368.909 405.7C368.709 405.9 368.443 406 368.109 406H358.909C358.576 406 358.276 405.9 358.009 405.7C357.809 405.433 357.709 405.133 357.709 404.8V357.1C357.709 356.9 357.609 356.767 357.409 356.7C357.276 356.633 357.176 356.7 357.109 356.9L344.609 376.1C344.276 376.633 343.809 376.9 343.209 376.9H338.609C338.009 376.9 337.543 376.633 337.209 376.1L324.609 357C324.543 356.8 324.409 356.733 324.209 356.8C324.076 356.867 324.009 357 324.009 357.2V404.8C324.009 405.133 323.876 405.433 323.609 405.7C323.409 405.9 323.143 406 322.809 406H313.609C313.276 406 312.976 405.9 312.709 405.7C312.509 405.433 312.409 405.133 312.409 404.8V337.2C312.409 336.867 312.509 336.6 312.709 336.4C312.976 336.133 313.276 336 313.609 336H322.809C323.409 336 323.876 336.267 324.209 336.8L340.509 361.5C340.643 361.633 340.776 361.7 340.909 361.7C341.043 361.7 341.143 361.633 341.209 361.5L357.509 336.8Z" fill="black"/>
<path d="M274 407C269 407 264.566 406 260.7 404C256.833 401.933 253.833 399.033 251.7 395.3C249.633 391.567 248.6 387.267 248.6 382.4V359.6C248.6 354.8 249.666 350.567 251.8 346.9C253.933 343.167 256.9 340.3 260.7 338.3C264.566 336.233 269 335.2 274 335.2C279.066 335.2 283.5 336.233 287.3 338.3C291.166 340.3 294.166 343.167 296.3 346.9C298.433 350.567 299.5 354.8 299.5 359.6V382.4C299.5 387.267 298.433 391.567 296.3 395.3C294.166 399.033 291.166 401.933 287.3 404C283.5 406 279.066 407 274 407ZM274 397C278.2 397 281.566 395.7 284.1 393.1C286.633 390.5 287.9 387.067 287.9 382.8V359.5C287.9 355.167 286.633 351.7 284.1 349.1C281.566 346.5 278.2 345.2 274 345.2C269.866 345.2 266.533 346.5 264 349.1C261.466 351.7 260.2 355.167 260.2 359.5V382.8C260.2 387.067 261.466 390.5 264 393.1C266.533 395.7 269.866 397 274 397Z" fill="black"/>
</svg>
