<svg width="243" height="72" viewBox="0 0 243 72" fill="none" xmlns="http://www.w3.org/2000/svg">
<path d="M242.276 9.8C242.276 10.1333 242.142 10.4333 241.876 10.7C241.676 10.9 241.409 11 241.076 11H207.076C206.742 11 206.576 11.1667 206.576 11.5V30.2C206.576 30.5333 206.742 30.7 207.076 30.7H229.976C230.309 30.7 230.576 30.8333 230.776 31.1C231.042 31.3 231.176 31.5667 231.176 31.9V39.5C231.176 39.8333 231.042 40.1333 230.776 40.4C230.576 40.6 230.309 40.7 229.976 40.7H207.076C206.742 40.7 206.576 40.8667 206.576 41.2V69.8C206.576 70.1333 206.442 70.4333 206.176 70.7C205.976 70.9 205.709 71 205.376 71H196.176C195.842 71 195.542 70.9 195.276 70.7C195.076 70.4333 194.976 70.1333 194.976 69.8V2.2C194.976 1.86667 195.076 1.6 195.276 1.4C195.542 1.13333 195.842 1 196.176 1H241.076C241.409 1 241.676 1.13333 241.876 1.4C242.142 1.6 242.276 1.86667 242.276 2.2V9.8Z" fill="black"/>
<path d="M158.493 71.8C153.293 71.8 148.76 70.9666 144.893 69.3C141.026 67.6333 138.026 65.3 135.893 62.3C133.826 59.3 132.793 55.7666 132.793 51.7V49.2C132.793 48.8666 132.893 48.6 133.093 48.4C133.36 48.1333 133.66 48 133.993 48H142.893C143.226 48 143.493 48.1333 143.693 48.4C143.96 48.6 144.093 48.8666 144.093 49.2V51.1C144.093 54.1666 145.46 56.7333 148.193 58.7999C150.926 60.7999 154.66 61.8 159.393 61.8C163.46 61.8 166.526 60.9333 168.593 59.2C170.66 57.4666 171.693 55.2333 171.693 52.5C171.693 50.6333 171.126 49.0666 169.993 47.7999C168.86 46.4666 167.226 45.2666 165.093 44.2C163.026 43.1333 159.893 41.8 155.693 40.2C150.96 38.4666 147.126 36.8333 144.193 35.2999C141.26 33.7666 138.793 31.7 136.793 29.1C134.86 26.4333 133.893 23.1333 133.893 19.2C133.893 13.3333 136.026 8.69995 140.293 5.29995C144.56 1.89995 150.26 0.199951 157.393 0.199951C162.393 0.199951 166.793 1.06662 170.593 2.79995C174.46 4.53328 177.46 6.96662 179.593 10.1C181.726 13.1666 182.793 16.7333 182.793 20.7999V22.5C182.793 22.8333 182.66 23.1333 182.393 23.4C182.193 23.5999 181.926 23.6999 181.593 23.6999H172.593C172.26 23.6999 171.96 23.5999 171.693 23.4C171.493 23.1333 171.393 22.8333 171.393 22.5V21.4C171.393 18.2666 170.093 15.6333 167.493 13.4999C164.96 11.2999 161.426 10.1999 156.893 10.1999C153.226 10.1999 150.36 10.9666 148.293 12.4999C146.293 14.0333 145.293 16.1999 145.293 18.9999C145.293 21 145.826 22.6333 146.893 23.9C147.96 25.1666 149.56 26.3333 151.693 27.4C153.826 28.3999 157.126 29.7 161.593 31.3C166.326 33.1 170.093 34.7333 172.893 36.2C175.76 37.6666 178.193 39.7333 180.193 42.4C182.26 45 183.293 48.2666 183.293 52.2C183.293 58.2 181.06 62.9666 176.593 66.5C172.193 70.0333 166.16 71.8 158.493 71.8Z" fill="black"/>
<path d="M109.509 1.8C109.843 1.26667 110.309 1 110.909 1H120.109C120.443 1 120.709 1.13333 120.909 1.4C121.176 1.6 121.309 1.86667 121.309 2.2V69.8C121.309 70.1333 121.176 70.4333 120.909 70.7C120.709 70.9 120.443 71 120.109 71H110.909C110.576 71 110.276 70.9 110.009 70.7C109.809 70.4333 109.709 70.1333 109.709 69.8V22.1C109.709 21.9 109.609 21.7667 109.409 21.7C109.276 21.6333 109.176 21.7 109.109 21.9L96.6092 41.1C96.2758 41.6333 95.8092 41.9 95.2092 41.9H90.6092C90.0092 41.9 89.5425 41.6333 89.2092 41.1L76.6092 22C76.5425 21.8 76.4092 21.7333 76.2092 21.8C76.0758 21.8667 76.0092 22 76.0092 22.2V69.8C76.0092 70.1333 75.8758 70.4333 75.6092 70.7C75.4092 70.9 75.1425 71 74.8092 71H65.6092C65.2758 71 64.9758 70.9 64.7092 70.7C64.5092 70.4333 64.4092 70.1333 64.4092 69.8V2.2C64.4092 1.86667 64.5092 1.6 64.7092 1.4C64.9758 1.13333 65.2758 1 65.6092 1H74.8092C75.4092 1 75.8758 1.26667 76.2092 1.8L92.5092 26.5C92.6425 26.6333 92.7758 26.7 92.9092 26.7C93.0425 26.7 93.1425 26.6333 93.2092 26.5L109.509 1.8Z" fill="black"/>
<path d="M25.9996 72C20.9996 72 16.5663 71 12.6996 69C8.83294 66.9333 5.83294 64.0333 3.69961 60.2999C1.63294 56.5666 0.599609 52.2666 0.599609 47.4V24.6C0.599609 19.8 1.66628 15.5666 3.79961 11.9C5.93294 8.16662 8.89961 5.29995 12.6996 3.29995C16.5663 1.23328 20.9996 0.199951 25.9996 0.199951C31.0663 0.199951 35.4996 1.23328 39.2996 3.29995C43.1663 5.29995 46.1663 8.16662 48.2996 11.9C50.4329 15.5666 51.4996 19.8 51.4996 24.6V47.4C51.4996 52.2666 50.4329 56.5666 48.2996 60.2999C46.1663 64.0333 43.1663 66.9333 39.2996 69C35.4996 71 31.0663 72 25.9996 72ZM25.9996 62C30.1996 62 33.5663 60.7 36.0996 58.1C38.6329 55.5 39.8996 52.0666 39.8996 47.7999V24.4999C39.8996 20.1666 38.6329 16.6999 36.0996 14.1C33.5663 11.4999 30.1996 10.1999 25.9996 10.1999C21.8663 10.1999 18.5329 11.4999 15.9996 14.1C13.4663 16.6999 12.1996 20.1666 12.1996 24.4999V47.7999C12.1996 52.0666 13.4663 55.5 15.9996 58.1C18.5329 60.7 21.8663 62 25.9996 62Z" fill="black"/>
</svg>
