<svg width="314" height="216" viewBox="0 0 314 216" fill="none" xmlns="http://www.w3.org/2000/svg">
<path fill-rule="evenodd" clip-rule="evenodd" d="M143.713 161.472C139.778 157.922 137.329 152.818 137.329 147.196C137.329 136.545 145.939 127.965 156.629 127.965C167.318 127.965 175.929 136.545 175.929 147.196C175.929 152.744 173.554 157.7 169.842 161.25L175.038 164.431L210.669 186.104C206.141 195.572 209.556 207.111 218.909 212.51C228.708 218.132 241.179 214.803 246.82 205.039C252.462 195.276 249.122 182.849 239.323 177.227C230.861 172.346 220.32 174.195 214.01 181.148L178.601 159.623C179.863 157.478 180.754 155.111 181.274 152.596H227.372L273.47 152.596C275.177 162.138 283.491 169.387 293.586 169.387C304.87 169.387 314 160.289 314 149.046C314 137.802 304.87 128.704 293.586 128.704C283.12 128.704 274.509 136.545 273.321 146.679L227.594 146.679H181.868C181.793 143.794 181.274 140.983 180.309 138.468L213.565 118.349C219.874 125.376 230.415 127.225 238.952 122.343C248.75 116.722 252.091 104.295 246.449 94.5312C240.808 84.7674 228.337 81.4388 218.538 87.0604C209.259 92.3861 205.77 103.851 210.298 113.319L177.636 133.068C176.003 130.702 173.999 128.556 171.698 126.855L222.695 39.5729C224.699 40.2386 226.778 40.5345 228.93 40.5345C240.214 40.5345 249.344 31.4364 249.344 20.1933C249.344 8.95014 240.139 0 228.856 0C217.573 0 208.443 9.09807 208.443 20.3412C208.443 27.2942 211.931 33.4336 217.276 37.058L166.502 123.97C164.275 123.009 161.899 122.417 159.45 122.121L159.45 81.069C169.397 79.7376 177.117 71.2312 177.117 60.9497C177.117 49.7065 167.986 40.6085 156.703 40.6085C145.42 40.6085 136.289 49.7065 136.289 60.9497C136.289 71.0833 143.787 79.5156 153.511 81.069L153.511 122.195C150.913 122.491 148.463 123.231 146.162 124.266L95.9816 37.2059C101.4 33.5815 104.964 27.3682 104.964 20.3412C104.964 9.09807 95.8331 0 84.5499 0C73.2667 0 64.1362 9.09807 64.1362 20.3412C64.1362 31.5844 73.2667 40.6824 84.5499 40.6824C86.6284 40.6824 88.7069 40.3866 90.6369 39.7948L140.966 127.447C138.887 129.074 137.032 131.071 135.547 133.29L102.737 113.393C107.265 103.925 103.776 92.4601 94.4969 87.1344C84.6983 81.5128 72.2274 84.8413 66.5858 94.6051C60.9442 104.369 64.2846 116.796 74.0832 122.417C82.6199 127.299 93.1608 125.376 99.4705 118.423L132.949 138.616C131.984 141.131 131.464 143.868 131.39 146.753L40.679 146.753C39.4913 136.545 30.8804 128.704 20.4137 128.704C9.1305 128.704 0 137.802 0 149.046C0 160.289 9.1305 169.387 20.4137 169.387C30.5092 169.387 38.8232 162.138 40.5305 152.596L131.984 152.596C132.578 155.259 133.543 157.7 134.879 159.919L99.5447 181.222C93.235 174.195 82.6199 172.272 74.1574 177.153C64.3589 182.775 61.0184 195.202 66.66 204.965C72.3017 214.729 84.7726 218.058 94.5712 212.436C103.85 207.111 107.339 195.645 102.811 186.178L138.516 164.653L143.713 161.472Z" fill="#9be5d7"/>
</svg>
