<svg width="433" height="92" viewBox="0 0 433 92" fill="none" xmlns="http://www.w3.org/2000/svg">
<path fill-rule="evenodd" clip-rule="evenodd" d="M46 90C70.3005 90 90 70.3005 90 46C90 21.6995 70.3005 2 46 2C21.6995 2 2 21.6995 2 46C2 70.3005 21.6995 90 46 90ZM46 92C71.4051 92 92 71.4051 92 46C92 20.5949 71.4051 0 46 0C20.5949 0 0 20.5949 0 46C0 71.4051 20.5949 92 46 92Z" fill="black"/>
<path fill-rule="evenodd" clip-rule="evenodd" d="M46.5 2L7.96191 68.75H85.0382L46.5 2ZM46.5 6L11.426 66.75H81.5741L46.5 6Z" fill="black"/>
<path fill-rule="evenodd" clip-rule="evenodd" d="M61 37H31V67H61V37ZM29 35V69H63V35H29Z" fill="black"/>
<path fill-rule="evenodd" clip-rule="evenodd" d="M46 65C53.1797 65 59 59.1797 59 52C59 44.8203 53.1797 39 46 39C38.8203 39 33 44.8203 33 52C33 59.1797 38.8203 65 46 65ZM46 67C54.2843 67 61 60.2843 61 52C61 43.7157 54.2843 37 46 37C37.7157 37 31 43.7157 31 52C31 60.2843 37.7157 67 46 67Z" fill="black"/>
<path d="M413.716 40.6192H417.026L421.526 52.446C421.786 53.1403 422.028 53.8097 422.251 54.4543C422.474 55.0866 422.673 55.694 422.846 56.2767C423.02 56.8594 423.156 57.4234 423.255 57.9689H423.386C423.559 57.3491 423.807 56.5371 424.129 55.5329C424.452 54.5163 424.799 53.4812 425.171 52.4274L429.429 40.6192H432.758L423.888 63.9939C423.417 65.246 422.865 66.3369 422.233 67.2667C421.613 68.1965 420.857 68.9093 419.964 69.4052C419.071 69.9135 417.993 70.1676 416.728 70.1676C416.146 70.1676 415.631 70.1305 415.185 70.0561C414.739 69.9941 414.354 69.9197 414.032 69.8329V67.3597C414.305 67.4217 414.633 67.4775 415.018 67.5271C415.414 67.5767 415.823 67.6014 416.245 67.6014C417.013 67.6014 417.677 67.4527 418.235 67.1552C418.805 66.87 419.295 66.4485 419.704 65.8906C420.113 65.3328 420.466 64.6695 420.764 63.9009L421.879 61.0372L413.716 40.6192Z" fill="black"/>
<path d="M401.945 70.149C399.267 70.149 397.203 69.6469 395.752 68.6428C394.302 67.651 393.577 66.2563 393.577 64.4588C393.577 63.1819 393.98 62.0909 394.785 61.1859C395.604 60.281 396.732 59.6797 398.17 59.3822C397.637 59.1342 397.178 58.7623 396.794 58.2664C396.422 57.7705 396.236 57.2003 396.236 56.5556C396.236 55.8118 396.44 55.161 396.849 54.6031C397.271 54.0328 397.909 53.4874 398.765 52.9667C397.699 52.5328 396.831 51.8014 396.161 50.7724C395.504 49.731 395.176 48.5223 395.176 47.1462C395.176 45.6834 395.48 44.4375 396.087 43.4085C396.695 42.3672 397.575 41.5738 398.728 41.0283C399.881 40.4828 401.275 40.2101 402.912 40.2101C403.271 40.2101 403.631 40.2287 403.99 40.2659C404.362 40.2907 404.715 40.3341 405.05 40.396C405.385 40.4456 405.676 40.5076 405.924 40.582H412.916V42.5717L409.16 43.0366C409.532 43.5201 409.842 44.1028 410.09 44.7846C410.338 45.4664 410.461 46.2227 410.461 47.0533C410.461 49.0864 409.773 50.7042 408.397 51.9067C407.021 53.0968 405.131 53.6919 402.726 53.6919C402.155 53.6919 401.573 53.6423 400.978 53.5431C400.37 53.8779 399.905 54.2498 399.583 54.6589C399.273 55.068 399.118 55.5391 399.118 56.0721C399.118 56.4689 399.236 56.785 399.471 57.0205C399.719 57.2561 400.073 57.4296 400.531 57.5412C400.99 57.6404 401.542 57.69 402.186 57.69H405.775C407.994 57.69 409.693 58.1549 410.871 59.0846C412.061 60.0144 412.656 61.3719 412.656 63.1571C412.656 65.4133 411.738 67.1427 409.904 68.3453C408.069 69.5478 405.416 70.149 401.945 70.149ZM402.038 67.7316C403.724 67.7316 405.118 67.558 406.222 67.2109C407.337 66.8762 408.168 66.3865 408.713 65.7419C409.271 65.1096 409.55 64.3534 409.55 63.4732C409.55 62.655 409.364 62.0351 408.992 61.6136C408.621 61.2045 408.075 60.9318 407.356 60.7954C406.637 60.6467 405.757 60.5723 404.715 60.5723H401.182C400.265 60.5723 399.465 60.7149 398.783 61C398.102 61.2851 397.575 61.7066 397.203 62.2645C396.843 62.8224 396.664 63.5166 396.664 64.3472C396.664 65.4505 397.128 66.2873 398.058 66.8576C398.988 67.4403 400.314 67.7316 402.038 67.7316ZM402.837 51.4418C404.313 51.4418 405.422 51.0699 406.166 50.3261C406.91 49.5823 407.282 48.4975 407.282 47.0719C407.282 45.547 406.903 44.4065 406.147 43.6503C405.391 42.8817 404.275 42.4973 402.8 42.4973C401.387 42.4973 400.296 42.8941 399.527 43.6875C398.771 44.4685 398.393 45.6152 398.393 47.1277C398.393 48.5161 398.777 49.5823 399.546 50.3261C400.314 51.0699 401.412 51.4418 402.837 51.4418Z" fill="black"/>
<path d="M389.932 40.2473C390.341 40.2473 390.769 40.2721 391.215 40.3217C391.661 40.3589 392.058 40.4146 392.405 40.489L392.015 43.3528C391.68 43.266 391.308 43.1978 390.899 43.1482C390.49 43.0986 390.106 43.0738 389.746 43.0738C388.928 43.0738 388.153 43.2412 387.422 43.5759C386.703 43.8982 386.07 44.3693 385.525 44.9892C384.979 45.5966 384.552 46.3342 384.242 47.202C383.932 48.0574 383.777 49.012 383.777 50.0658V61H380.671V40.6192H383.238L383.572 44.3755H383.702C384.124 43.6193 384.632 42.9313 385.227 42.3114C385.822 41.6791 386.51 41.1771 387.291 40.8052C388.085 40.4332 388.965 40.2473 389.932 40.2473Z" fill="black"/>
<path d="M367.134 40.2473C368.869 40.2473 370.357 40.6316 371.596 41.4002C372.836 42.1688 373.785 43.2474 374.442 44.6358C375.099 46.0119 375.427 47.6235 375.427 49.4707V51.3861H361.35C361.387 53.7787 361.983 55.6011 363.135 56.8532C364.288 58.1053 365.912 58.7313 368.008 58.7313C369.297 58.7313 370.437 58.6136 371.429 58.378C372.421 58.1425 373.45 57.7954 374.516 57.3367V60.0516C373.487 60.5103 372.464 60.845 371.448 61.0558C370.444 61.2665 369.253 61.3719 367.877 61.3719C365.919 61.3719 364.208 60.9752 362.745 60.1818C361.295 59.376 360.166 58.1983 359.361 56.6486C358.555 55.099 358.152 53.2022 358.152 50.9584C358.152 48.7641 358.518 46.8673 359.249 45.2681C359.993 43.6565 361.034 42.4168 362.373 41.549C363.724 40.6812 365.311 40.2473 367.134 40.2473ZM367.096 42.7763C365.448 42.7763 364.133 43.3156 363.154 44.3941C362.175 45.4727 361.592 46.9789 361.406 48.9128H372.192C372.179 47.6979 371.987 46.6318 371.615 45.7144C371.256 44.7846 370.704 44.0656 369.96 43.5573C369.216 43.0366 368.262 42.7763 367.096 42.7763Z" fill="black"/>
<path d="M345.581 40.2473C347.999 40.2473 349.827 40.8423 351.067 42.0325C352.307 43.2102 352.927 45.1069 352.927 47.7227V61H349.877V47.9273C349.877 46.2289 349.486 44.9582 348.705 44.1152C347.937 43.2722 346.753 42.8507 345.154 42.8507C342.897 42.8507 341.311 43.4891 340.393 44.766C339.476 46.0429 339.017 47.8963 339.017 50.3261V61H335.93V40.6192H338.422L338.887 43.5573H339.054C339.488 42.8383 340.04 42.237 340.709 41.7535C341.379 41.2576 342.129 40.8857 342.959 40.6378C343.79 40.3775 344.664 40.2473 345.581 40.2473Z" fill="black"/>
<path d="M330.37 61H315.233V33.8132H330.37V36.6025H318.395V45.3983H329.682V48.1504H318.395V58.2107H330.37V61Z" fill="black"/>
<path d="M291.338 40.2473C293.074 40.2473 294.561 40.6316 295.801 41.4002C297.041 42.1688 297.989 43.2474 298.646 44.6358C299.303 46.0119 299.632 47.6235 299.632 49.4707V51.3861H285.555C285.592 53.7787 286.187 55.6011 287.34 56.8532C288.493 58.1053 290.117 58.7313 292.212 58.7313C293.501 58.7313 294.642 58.6136 295.634 58.378C296.625 58.1425 297.654 57.7954 298.721 57.3367V60.0516C297.692 60.5103 296.669 60.845 295.652 61.0558C294.648 61.2665 293.458 61.3719 292.082 61.3719C290.123 61.3719 288.412 60.9752 286.95 60.1818C285.499 59.376 284.371 58.1983 283.565 56.6486C282.759 55.099 282.356 53.2022 282.356 50.9584C282.356 48.7641 282.722 46.8673 283.454 45.2681C284.197 43.6565 285.239 42.4168 286.578 41.549C287.929 40.6812 289.516 40.2473 291.338 40.2473ZM291.301 42.7763C289.652 42.7763 288.338 43.3156 287.359 44.3941C286.379 45.4727 285.797 46.9789 285.611 48.9128H296.396C296.384 47.6979 296.192 46.6318 295.82 45.7144C295.46 44.7846 294.908 44.0656 294.165 43.5573C293.421 43.0366 292.466 42.7763 291.301 42.7763Z" fill="black"/>
<path d="M269.953 40.2473C271.688 40.2473 273.176 40.6316 274.416 41.4002C275.656 42.1688 276.604 43.2474 277.261 44.6358C277.918 46.0119 278.247 47.6235 278.247 49.4707V51.3861H264.17C264.207 53.7787 264.802 55.6011 265.955 56.8532C267.108 58.1053 268.732 58.7313 270.827 58.7313C272.116 58.7313 273.257 58.6136 274.248 58.378C275.24 58.1425 276.269 57.7954 277.335 57.3367V60.0516C276.306 60.5103 275.284 60.845 274.267 61.0558C273.263 61.2665 272.073 61.3719 270.697 61.3719C268.738 61.3719 267.027 60.9752 265.564 60.1818C264.114 59.376 262.986 58.1983 262.18 56.6486C261.374 55.099 260.971 53.2022 260.971 50.9584C260.971 48.7641 261.337 46.8673 262.068 45.2681C262.812 43.6565 263.854 42.4168 265.192 41.549C266.544 40.6812 268.131 40.2473 269.953 40.2473ZM269.916 42.7763C268.267 42.7763 266.953 43.3156 265.973 44.3941C264.994 45.4727 264.411 46.9789 264.225 48.9128H275.011C274.998 47.6979 274.806 46.6318 274.434 45.7144C274.075 44.7846 273.523 44.0656 272.779 43.5573C272.036 43.0366 271.081 42.7763 269.916 42.7763Z" fill="black"/>
<path d="M255.783 40.2473C256.192 40.2473 256.62 40.2721 257.066 40.3217C257.512 40.3589 257.909 40.4146 258.256 40.489L257.866 43.3528C257.531 43.266 257.159 43.1978 256.75 43.1482C256.341 43.0986 255.957 43.0738 255.597 43.0738C254.779 43.0738 254.004 43.2412 253.273 43.5759C252.554 43.8982 251.921 44.3693 251.376 44.9892C250.83 45.5966 250.403 46.3342 250.093 47.202C249.783 48.0574 249.628 49.012 249.628 50.0658V61H246.522V40.6192H249.089L249.423 44.3755H249.554C249.975 43.6193 250.483 42.9313 251.078 42.3114C251.673 41.6791 252.361 41.1771 253.143 40.8052C253.936 40.4332 254.816 40.2473 255.783 40.2473Z" fill="black"/>
<path d="M230.474 61H227.313V33.8132H242.45V36.6025H230.474V46.5698H241.725V49.3405H230.474V61Z" fill="black"/>
<path d="M203.25 40.2473C205.668 40.2473 207.496 40.8423 208.736 42.0325C209.976 43.2102 210.596 45.1069 210.596 47.7227V61H207.546V47.9273C207.546 46.2289 207.155 44.9582 206.374 44.1152C205.606 43.2722 204.422 42.8507 202.823 42.8507C200.566 42.8507 198.979 43.4891 198.062 44.766C197.145 46.0429 196.686 47.8963 196.686 50.3261V61H193.599V40.6192H196.091L196.556 43.5573H196.723C197.157 42.8383 197.709 42.237 198.378 41.7535C199.048 41.2576 199.798 40.8857 200.628 40.6378C201.459 40.3775 202.333 40.2473 203.25 40.2473Z" fill="black"/>
<path d="M180.062 40.2473C181.797 40.2473 183.285 40.6316 184.525 41.4002C185.764 42.1688 186.713 43.2474 187.37 44.6358C188.027 46.0119 188.355 47.6235 188.355 49.4707V51.3861H174.279C174.316 53.7787 174.911 55.6011 176.064 56.8532C177.217 58.1053 178.841 58.7313 180.936 58.7313C182.225 58.7313 183.366 58.6136 184.357 58.378C185.349 58.1425 186.378 57.7954 187.444 57.3367V60.0516C186.415 60.5103 185.393 60.845 184.376 61.0558C183.372 61.2665 182.182 61.3719 180.806 61.3719C178.847 61.3719 177.136 60.9752 175.673 60.1818C174.223 59.376 173.095 58.1983 172.289 56.6486C171.483 55.099 171.08 53.2022 171.08 50.9584C171.08 48.7641 171.446 46.8673 172.177 45.2681C172.921 43.6565 173.962 42.4168 175.301 41.549C176.653 40.6812 178.239 40.2473 180.062 40.2473ZM180.025 42.7763C178.376 42.7763 177.062 43.3156 176.082 44.3941C175.103 45.4727 174.52 46.9789 174.334 48.9128H185.12C185.107 47.6979 184.915 46.6318 184.543 45.7144C184.184 44.7846 183.632 44.0656 182.888 43.5573C182.144 43.0366 181.19 42.7763 180.025 42.7763Z" fill="black"/>
<path d="M158.472 40.2473C161.014 40.2473 163.041 41.1213 164.553 42.8693C166.065 44.6173 166.822 47.2454 166.822 50.7538C166.822 53.0721 166.475 55.0184 165.78 56.5928C165.086 58.1673 164.107 59.3574 162.842 60.1632C161.59 60.969 160.109 61.3719 158.398 61.3719C157.319 61.3719 156.371 61.2293 155.553 60.9442C154.735 60.6591 154.034 60.2748 153.451 59.7913C152.869 59.3078 152.385 58.7809 152.001 58.2107H151.778C151.815 58.6941 151.858 59.2768 151.908 59.9586C151.97 60.6405 152.001 61.2355 152.001 61.7438V70.1119H148.896V40.6192H151.443L151.852 43.6317H152.001C152.398 43.0118 152.881 42.4478 153.451 41.9395C154.022 41.4188 154.716 41.0097 155.534 40.7122C156.365 40.4022 157.344 40.2473 158.472 40.2473ZM157.933 42.8507C156.52 42.8507 155.379 43.1234 154.511 43.6689C153.656 44.2143 153.03 45.0326 152.633 46.1235C152.237 47.202 152.026 48.5595 152.001 50.1959V50.791C152.001 52.5142 152.187 53.9709 152.559 55.161C152.943 56.3511 153.569 57.2561 154.437 57.8759C155.317 58.4958 156.495 58.8057 157.97 58.8057C159.235 58.8057 160.288 58.4648 161.131 57.783C161.974 57.1011 162.6 56.1527 163.01 54.9378C163.431 53.7105 163.642 52.3034 163.642 50.7166C163.642 48.3116 163.171 46.4024 162.229 44.9892C161.299 43.5635 159.867 42.8507 157.933 42.8507Z" fill="black"/>
<path d="M143.298 47.3694C143.298 49.4645 143.032 51.3737 142.499 53.0969C141.965 54.8077 141.172 56.2829 140.118 57.5226C139.077 58.7499 137.781 59.6983 136.232 60.3677C134.682 61.0372 132.885 61.3719 130.839 61.3719C128.732 61.3719 126.891 61.0372 125.316 60.3677C123.754 59.6983 122.452 58.7437 121.411 57.504C120.382 56.2643 119.607 54.7829 119.087 53.0597C118.578 51.3365 118.324 49.4273 118.324 47.3322C118.324 44.5553 118.783 42.1192 119.7 40.0241C120.618 37.929 122.006 36.2988 123.866 35.1335C125.738 33.9682 128.081 33.3855 130.895 33.3855C133.585 33.3855 135.847 33.962 137.682 35.1149C139.529 36.2678 140.924 37.8918 141.866 39.9869C142.821 42.0697 143.298 44.5305 143.298 47.3694ZM121.653 47.3694C121.653 49.6753 121.981 51.6712 122.638 53.3572C123.295 55.0432 124.3 56.3449 125.651 57.2623C127.015 58.1797 128.744 58.6384 130.839 58.6384C132.947 58.6384 134.67 58.1797 136.009 57.2623C137.36 56.3449 138.358 55.0432 139.003 53.3572C139.647 51.6712 139.97 49.6753 139.97 47.3694C139.97 43.861 139.232 41.1213 137.757 39.1501C136.294 37.1666 134.007 36.1748 130.895 36.1748C128.787 36.1748 127.052 36.6273 125.688 37.5323C124.324 38.4373 123.308 39.7266 122.638 41.4002C121.981 43.0614 121.653 45.0512 121.653 47.3694Z" fill="black"/>
</svg>
