<svg viewBox="0 0 324 102" fill="none" xmlns="http://www.w3.org/2000/svg">
<g clip-path="url(#clip0_215_18)">
<path d="M137.783 56.2883C136.567 56.2883 135.486 56.6257 134.878 57.3005C134.135 58.0428 133.865 59.055 133.865 60.4721V63.0364H140.755V65.6006H133.933V85.44H130.96V65.7356H126.907V63.1713H130.96V60.4046C130.96 58.4477 131.568 56.7606 132.717 55.681C133.865 54.4663 135.486 53.7915 137.648 53.7915C138.459 53.7915 139.269 53.9939 140.147 54.1964C140.958 54.3988 141.566 54.8037 142.106 55.2086L141.093 57.5029C140.283 56.7607 139.134 56.2883 137.783 56.2883ZM153.59 85.6424C151.429 85.6424 149.47 85.2375 147.781 84.2253C146.025 83.2806 144.673 81.931 143.66 80.1765C142.714 78.422 142.242 76.465 142.242 74.3057C142.242 72.1463 142.782 70.1893 143.66 68.5023C144.673 66.7478 146.025 65.3982 147.781 64.386C149.402 63.4413 151.429 63.0364 153.59 63.0364C155.752 63.0364 157.644 63.4413 159.4 64.386C161.156 65.3982 162.507 66.7478 163.453 68.5023C164.466 70.1218 165.007 72.1463 165.007 74.3057C165.007 76.465 164.466 78.422 163.453 80.1765C162.507 81.931 161.156 83.2806 159.4 84.2253C157.644 85.2375 155.752 85.6424 153.59 85.6424ZM153.59 82.9432C155.144 82.9432 156.563 82.6058 157.846 81.931C159.062 81.1887 160.143 80.1765 160.818 78.8269C161.562 77.4772 161.832 76.0602 161.832 74.3057C161.832 72.6861 161.494 71.1341 160.818 69.7844C160.143 68.4348 159.062 67.4226 157.846 66.6803C156.63 65.938 155.144 65.6681 153.59 65.6681C152.037 65.6681 150.618 66.0055 149.335 66.6803C147.984 67.4226 147.038 68.4348 146.362 69.7844C145.619 71.1341 145.214 72.6861 145.214 74.3057C145.214 76.0602 145.619 77.4772 146.362 78.8269C147.105 80.1765 147.984 81.1887 149.335 81.931C150.618 82.6058 152.037 82.9432 153.59 82.9432ZM173.924 67.4901C174.667 66.073 175.68 64.9258 177.099 64.1835C178.45 63.3738 180.206 63.0364 182.233 63.0364V65.938L181.489 65.8031C179.125 65.8031 177.369 66.5454 176.018 67.9625C174.667 69.3796 173.924 71.4715 173.924 74.0357V85.44H170.951V63.1713H173.856V67.4901H173.924ZM196.756 85.6424C194.595 85.6424 192.636 85.2375 190.879 84.2253C189.123 83.2806 187.772 81.931 186.759 80.1765C185.813 78.422 185.34 76.465 185.34 74.3057C185.34 72.1463 185.88 70.1893 186.759 68.5023C187.772 66.7478 189.123 65.3982 190.879 64.386C192.636 63.4413 194.595 63.0364 196.756 63.0364C198.715 63.0364 200.472 63.3738 201.89 64.0486C203.444 64.8583 204.592 65.938 205.538 67.3551L203.241 68.9072C202.498 67.76 201.62 66.9503 200.472 66.4104C199.323 65.8706 198.107 65.6006 196.756 65.6006C195.203 65.6006 193.784 65.938 192.433 66.6129C191.217 67.3551 190.136 68.3673 189.461 69.717C188.785 71.0666 188.312 72.6186 188.312 74.2382C188.312 75.9927 188.718 77.5447 189.461 78.7594C190.204 80.109 191.217 81.1212 192.433 81.8635C193.784 82.6058 195.203 82.8757 196.756 82.8757C198.107 82.8757 199.323 82.6733 200.472 82.1334C201.62 81.5261 202.566 80.7838 203.241 79.6366L205.538 81.1887C204.592 82.6058 203.444 83.6855 201.89 84.3603C200.404 85.305 198.715 85.6424 196.756 85.6424ZM230.532 75.1829H211.82C211.956 77.5447 212.834 79.4342 214.523 80.8513C216.076 82.2684 218.17 82.9432 220.602 82.9432C221.953 82.9432 223.304 82.7407 224.453 82.2009C225.601 81.796 226.614 80.9863 227.425 80.0415L229.046 81.9985C228.101 83.2131 226.885 84.0904 225.331 84.6977C223.912 85.305 222.223 85.6424 220.467 85.6424C218.17 85.6424 216.144 85.2375 214.387 84.2253C212.631 83.2806 211.28 81.931 210.267 80.1765C209.253 78.422 208.848 76.465 208.848 74.3057C208.848 72.1463 209.253 70.1893 210.199 68.5023C211.145 66.7478 212.496 65.3982 214.117 64.386C215.738 63.4413 217.63 63.0364 219.724 63.0364C221.818 63.0364 223.642 63.4413 225.331 64.386C226.952 65.3982 228.236 66.7478 229.181 68.4348C230.127 70.1893 230.6 72.1463 230.6 74.3057V75.1829H230.532ZM219.724 65.6006C217.562 65.6006 215.806 66.208 214.32 67.6925C212.901 69.0422 212.023 70.7967 211.82 73.091H227.628C227.425 70.7967 226.614 69.0422 225.128 67.6925C223.71 66.208 221.886 65.6006 219.724 65.6006ZM244.11 56.2883C242.759 56.2883 241.814 56.6257 241.138 57.3005C240.53 58.0428 240.192 59.055 240.192 60.4721V63.0364H247.015V65.6006H240.327V85.44H237.153V65.7356H233.234V63.1713H237.153V60.4046C237.153 58.4477 237.76 56.7606 239.044 55.681C240.192 54.4663 241.814 53.7915 243.975 53.7915C244.786 53.7915 245.597 53.9939 246.475 54.1964C247.218 54.3988 247.893 54.8037 248.434 55.2086L247.42 57.5029C246.542 56.7607 245.394 56.2883 244.11 56.2883ZM254.513 63.1038H257.486V85.3725H254.513V63.1038ZM256.067 58.2452C255.324 58.2452 254.851 58.0428 254.446 57.6379C254.041 57.233 253.838 56.6932 253.838 56.0858C253.838 55.4785 254.041 55.0736 254.446 54.6687C254.851 54.1289 255.392 53.9265 256.067 53.9265C256.675 53.9265 257.216 54.1289 257.621 54.5338C258.026 54.9387 258.229 55.4785 258.229 56.0858C258.229 56.6932 258.026 57.233 257.621 57.6379C257.216 58.0428 256.675 58.2452 256.067 58.2452ZM285.317 75.1829H266.74C266.875 77.5447 267.754 79.4342 269.442 80.8513C270.996 82.2684 273.09 82.9432 275.522 82.9432C276.873 82.9432 278.089 82.7407 279.373 82.2009C280.521 81.796 281.534 80.9863 282.345 80.0415L283.966 81.9985C283.02 83.2131 281.805 84.0904 280.251 84.6977C278.832 85.305 277.143 85.6424 275.387 85.6424C273.09 85.6424 271.064 85.2375 269.307 84.2253C267.551 83.2806 266.132 81.931 265.187 80.1765C264.173 78.422 263.633 76.465 263.633 74.3057C263.633 72.1463 264.173 70.1893 265.052 68.5023C265.997 66.7478 267.348 65.3982 268.97 64.386C270.591 63.4413 272.482 63.0364 274.576 63.0364C276.671 63.0364 278.494 63.4413 280.183 64.386C281.805 65.3982 283.088 66.7478 284.034 68.4348C284.979 70.1893 285.452 72.1463 285.452 74.3057L285.317 75.1829ZM274.576 65.6006C272.415 65.6006 270.658 66.208 269.172 67.6925C267.754 69.0422 266.875 70.7967 266.673 73.091H282.48C282.277 70.7967 281.467 69.0422 279.981 67.6925C278.562 66.208 276.738 65.6006 274.576 65.6006ZM291.465 53.9265H294.572V85.44H291.465V53.9265ZM323.282 53.9265V85.44H320.377V81.1212C319.566 82.5383 318.283 83.6855 316.864 84.4953C315.31 85.305 313.689 85.6424 311.798 85.6424C309.704 85.6424 307.745 85.2375 306.123 84.2253C304.367 83.2806 303.151 81.931 302.07 80.1765C301.124 78.5569 300.652 76.5325 300.652 74.3057C300.652 72.1463 301.192 70.1893 302.07 68.4348C303.083 66.6803 304.367 65.3307 306.123 64.386C307.745 63.4413 309.771 63.0364 311.798 63.0364C313.554 63.0364 315.175 63.3738 316.662 64.0486C318.215 64.8583 319.364 65.938 320.309 67.3551V53.9265H323.282ZM312.068 82.9432C313.622 82.9432 315.04 82.6058 316.324 81.931C317.54 81.1887 318.62 80.1765 319.296 78.8269C320.039 77.4772 320.444 76.0602 320.444 74.3057C320.444 72.6861 320.039 71.1341 319.296 69.7844C318.553 68.4348 317.54 67.4226 316.324 66.6803C315.108 65.938 313.622 65.6681 312.068 65.6681C310.514 65.6681 309.096 66.0055 307.812 66.6803C306.596 67.4226 305.515 68.4348 304.84 69.7844C304.164 71.1341 303.827 72.6861 303.827 74.3057C303.827 76.0602 304.164 77.4772 304.84 78.8269C305.583 80.1765 306.596 81.1887 307.812 81.931C309.028 82.6058 310.514 82.9432 312.068 82.9432Z" fill="#3E424A"/>
<path d="M138.999 39.6206C146.025 39.6206 151.091 34.762 151.091 27.9464C151.091 21.2658 146.025 16.4072 138.999 16.4072C132.109 16.4072 126.907 21.2658 126.907 27.9464C126.907 34.762 132.109 39.6206 138.999 39.6206ZM138.999 35.0319C135.149 35.0319 132.311 32.2652 132.311 27.879C132.311 23.4927 135.216 20.861 138.999 20.861C142.85 20.861 145.687 23.5602 145.687 27.879C145.687 32.1977 142.85 35.0319 138.999 35.0319ZM168.79 16.4072C165.682 16.4072 163.115 17.4194 161.224 19.5788V16.6772H156.157V47.5159H161.562V36.449C163.318 38.6084 165.885 39.5531 168.79 39.5531C175.41 39.5531 180.274 35.0319 180.274 27.879C180.274 20.9959 175.41 16.4072 168.79 16.4072ZM168.182 35.0319C164.331 35.0319 161.494 32.2652 161.494 27.879C161.494 23.4927 164.399 20.861 168.182 20.861C171.965 20.861 174.869 23.5602 174.869 27.879C174.869 32.1977 171.965 35.0319 168.182 35.0319ZM206.686 28.1489C206.686 20.9959 201.823 16.4072 195.203 16.4072C188.38 16.4072 183.448 21.2658 183.448 27.9464C183.448 34.762 188.38 39.6206 195.946 39.6206C199.864 39.6206 203.106 38.406 205.133 35.9092L202.228 32.7376C200.674 34.3571 198.58 35.0994 196.148 35.0994C192.095 35.0994 189.461 33.0075 188.785 29.7009H206.551C206.551 29.1611 206.686 28.5538 206.686 28.1489ZM195.203 20.591C198.58 20.591 201.215 22.8854 201.62 26.1919H188.718C189.258 22.8854 191.69 20.591 195.203 20.591ZM224.588 16.4072C221.278 16.4072 218.576 17.5544 216.819 19.5788V16.6772H211.753V39.2832H217.022V27.8115C217.022 23.2903 219.589 20.9959 223.439 20.9959C226.749 20.9959 228.844 22.9529 228.844 27.0017V39.2832H234.113V26.2594C234.045 19.4439 230.06 16.4072 224.588 16.4072Z" fill="#3E424A"/>
<path fill-rule="evenodd" clip-rule="evenodd" d="M21.6888 85.7098C23.8505 85.3049 25.9446 86.6545 26.3499 88.8139C26.8903 90.9058 25.4042 93.0651 23.2425 93.47C21.1484 93.8749 19.1218 92.5253 18.5814 90.3659C18.1761 88.2066 19.5271 86.1147 21.6888 85.7098Z" fill="#015581"/>
<path fill-rule="evenodd" clip-rule="evenodd" d="M35.1314 90.7028C32.3618 90.8378 30.065 93.0646 30.065 95.9663C30.065 98.9355 32.4294 101.432 35.3341 101.432C38.3064 101.432 40.8058 99.0704 40.8058 96.0338C40.9409 93.7394 39.4548 91.7825 37.4282 90.9727L38.1713 86.3166C41.3463 85.7767 43.8457 83.01 43.9808 79.636C43.9808 75.7895 41.0085 72.7529 37.158 72.618C33.848 72.618 31.1459 74.7773 30.3352 77.8815L19.1891 76.9367C18.8514 75.1822 17.7705 73.6302 16.0142 72.8879C13.3121 71.9431 10.4073 73.2928 9.39406 75.857C8.44832 78.5563 9.79937 81.4579 12.3663 82.3352C15.0684 83.3474 17.9732 81.9978 18.9865 79.366V79.2311L30.1326 80.0408C30.4703 83.145 32.8347 85.7092 35.807 86.2491L35.1314 90.7028Z" fill="#015581"/>
<path fill-rule="evenodd" clip-rule="evenodd" d="M9.79953 57.7719C6.89478 56.6247 3.58472 57.9743 2.43633 60.9435C1.28795 63.8451 2.63899 67.1517 5.54374 68.2989C8.51603 69.446 11.7586 67.9615 12.9745 65.1273C14.1905 62.2256 12.7043 58.9191 9.79953 57.7719Z" fill="#015581"/>
<path fill-rule="evenodd" clip-rule="evenodd" d="M11.6909 35.5043C6.75959 34.4921 1.96338 37.6636 1.01765 42.5223C0.0043637 47.3809 3.17932 52.1045 8.04308 53.1842C10.61 53.7241 13.177 52.9818 15.2036 51.5647L22.3641 58.9201C22.0264 59.325 21.8237 59.7299 21.6211 60.1347C20.27 63.3063 21.9588 67.0178 25.1338 68.2999C28.3087 69.6495 31.9566 67.9625 33.1725 64.7909C34.5235 61.6193 32.9698 57.9754 29.7949 56.7607C27.7008 55.9509 25.6742 56.2209 23.9854 57.3005L16.8249 49.9451C17.7706 48.9329 18.3786 47.6508 18.7163 46.2337C19.662 41.2401 16.5546 36.5165 11.6909 35.5043ZM8.98881 39.8905C11.3531 39.3507 13.7174 40.9027 14.1228 43.3995C14.6632 45.7613 13.1095 48.1232 10.7452 48.528C8.38084 49.0679 6.01651 47.5158 5.4761 45.154C5.00323 42.7922 6.48938 40.4304 8.98881 39.8905Z" fill="#015581"/>
<path fill-rule="evenodd" clip-rule="evenodd" d="M15.4064 19.4439C12.7043 18.9041 10.1373 20.6586 9.52933 23.2903C8.98891 25.9895 10.7453 28.6888 13.4474 29.1611C15.0686 29.4985 16.6223 28.9587 17.7707 27.9465L22.2967 30.8482C22.1616 31.1856 22.0941 31.4555 21.959 31.8604C21.351 35.1669 23.3776 38.3385 26.6876 39.0133L26.8903 39.1483L27.0254 43.0622C25.6743 43.602 24.661 44.6142 24.3233 46.0313C23.918 48.1907 25.269 50.2826 27.4307 50.6875C29.5924 51.0924 31.6865 49.7428 32.0918 47.5834C32.4971 45.6264 31.2812 43.5345 29.3222 43.0622L29.1871 39.0133C31.5514 38.4735 33.4428 36.719 33.9157 34.2897C33.9157 33.9523 34.0508 33.5474 34.0508 33.1425L37.4284 32.6026C37.9688 33.6149 38.847 34.3572 40.1305 34.6946C42.2922 35.0994 44.3863 33.6823 44.7916 31.5904C45.1969 29.4311 43.8459 27.3392 41.6842 26.9343C39.5901 26.3944 37.4284 27.879 37.0231 29.9034C37.0231 30.0384 37.0231 30.1059 37.0231 30.2408L33.6455 30.8482C32.0242 26.7318 26.6201 25.7196 23.5127 28.8912L19.0542 25.9895C19.0542 25.7871 19.1893 25.5847 19.1893 25.3822C19.7297 22.683 18.1085 19.9837 15.4064 19.4439Z" fill="#015581"/>
<path fill-rule="evenodd" clip-rule="evenodd" d="M35.0638 4.93525C30.6729 3.99052 26.3495 6.75723 25.5389 11.211C24.5932 15.5297 27.4304 19.8485 31.8213 20.7932C36.1446 21.603 40.468 18.8363 41.4137 14.3826C42.2919 10.0638 39.4547 5.74502 35.0638 4.93525Z" fill="#015581"/>
<path fill-rule="evenodd" clip-rule="evenodd" d="M54.9919 22.6825C56.7483 23.0199 58.302 24.302 58.7073 26.1915C59.4504 28.6883 57.8967 31.32 55.3972 31.9949C52.8303 32.7371 50.2633 31.1851 49.5202 28.6208C48.9122 26.259 50.2633 23.7622 52.6276 22.9524L51.8845 12.358H51.7494C48.4394 11.9531 46.2777 8.98392 46.683 5.67736C47.2234 2.50576 50.1957 0.211418 53.3707 0.751264C56.6807 1.15615 58.8424 4.1253 58.4371 7.43186C58.0318 9.79369 56.343 11.6831 54.1138 12.2905L54.9919 22.6825Z" fill="#015581"/>
<path fill-rule="evenodd" clip-rule="evenodd" d="M67.1512 17.6883C69.3129 17.2834 71.407 18.633 71.8124 20.7924C72.2177 22.9518 70.8666 25.0437 68.7049 25.4486C66.6108 25.8535 64.4491 24.5039 64.0438 22.3445C63.6385 20.1851 64.9896 18.1607 67.1512 17.6883Z" fill="#015581"/>
<path fill-rule="evenodd" clip-rule="evenodd" d="M70.4615 29.97C72.2179 29.5651 74.1093 30.1724 75.3253 31.3871L79.8513 28.283C79.6486 27.7431 79.446 27.2708 79.3109 26.6634C78.7705 24.3691 79.446 22.1422 80.7295 20.3877L75.4604 14.7868C75.0551 14.9893 74.5147 15.1917 74.0418 15.3267C71.3397 15.8665 68.7727 14.1795 68.2323 11.4803C67.6243 8.78103 69.3807 6.08179 72.0828 5.60943C74.7849 5.06958 77.3519 6.82408 77.8923 9.45583C78.23 10.8054 77.8923 12.1551 77.2843 13.1673L82.4183 18.8357C83.2289 18.2283 84.3097 17.8235 85.323 17.621C89.4437 16.8112 93.4968 19.5105 94.3075 23.6268C95.2532 27.7431 92.5511 31.8595 88.2953 32.7367C85.5932 33.2766 82.8911 32.3318 81.1348 30.3749L76.6088 33.479C76.7439 33.6814 76.8114 34.0188 76.8114 34.2888C77.4194 37.2579 75.5955 40.1596 72.5557 40.7669C69.5834 41.3742 66.6786 39.4173 66.0706 36.5156C65.5302 33.479 67.4892 30.6448 70.4615 29.97ZM83.4991 25.9886V26.0561V26.1911V26.326L83.6342 26.461V26.596V26.7309H83.7693V26.8659H83.9044V27.0008L84.0395 27.1358V27.2708H84.1746V27.4057V27.5407H84.3097V27.4057H84.4448V27.5407H84.5799V27.6756H84.7151V27.8106H84.8502V27.9456H84.9853V28.0805H85.1204C85.931 28.6879 86.8767 28.8903 87.89 28.6879C89.849 28.3505 90.9974 26.5285 90.6596 24.5715C90.2543 22.6821 88.3629 21.4674 86.539 21.8723C86.2012 21.8723 85.9985 22.0073 85.7959 22.0747H85.6608L85.5257 22.2097H85.3906V22.3447H85.2555H85.1204V22.4796H84.9853L84.8502 22.6146H84.7151V22.7495H84.5799V22.8845H84.4448V22.6821H84.3097V22.817H84.1746V22.952H84.0395V23.087L83.9044 23.2219V23.3569H83.7693V23.4918H83.6342V23.6268V23.7618H83.4991C83.1614 24.504 83.0938 25.3138 83.1614 26.1236L83.4991 25.9886Z" fill="#015581"/>
<path fill-rule="evenodd" clip-rule="evenodd" d="M75.1903 43.534C77.3519 43.1291 79.4461 44.4787 79.8514 46.6381C80.3918 48.7975 78.9057 50.8894 76.744 51.2943C74.6499 51.8341 72.6233 50.3496 72.0829 48.1902C71.6776 46.0983 73.0286 44.0064 75.1903 43.534Z" fill="#015581"/>
<path fill-rule="evenodd" clip-rule="evenodd" d="M97.7526 57.7723C100.049 58.1772 102.076 60.0667 102.616 62.496C103.224 65.6676 101.198 68.7717 97.9552 69.379C94.7803 70.1213 91.5378 68.0294 90.9298 64.8578C90.3218 61.6862 92.2808 58.5821 95.3882 57.8398L95.0505 49.2698C92.1457 48.8649 89.7814 46.7055 89.1734 43.8038C88.4304 39.9574 90.7947 36.3809 94.5776 35.6387C98.4281 34.8289 102.008 37.2582 102.751 41.0371C103.562 44.7485 101.13 48.3925 97.3473 49.2023L97.7526 57.7723Z" fill="#015581"/>
<path fill-rule="evenodd" clip-rule="evenodd" d="M86.0658 75.9919C89.3759 75.3846 92.5508 77.409 93.2263 80.7155C93.9694 84.0221 91.8077 87.1937 88.4977 87.936C85.1876 88.5433 82.0127 86.5189 81.3371 83.2123C80.9318 81.4578 81.3371 79.9058 82.2829 78.5562L77.4191 73.6976C76.676 74.1024 75.8654 74.5073 75.0548 74.6423C71.5421 75.3846 68.1645 73.2252 67.4214 69.7162C66.8134 66.2072 68.9751 62.8332 72.4878 62.1583C74.0415 61.7535 75.6627 62.0234 77.0138 62.9006L80.1212 59.1892C79.7159 58.5819 79.3106 57.9745 79.1755 57.0973C78.5675 54.3306 80.3914 51.4964 83.2286 51.024C85.9982 50.4167 88.8354 52.2387 89.4434 55.0729C89.9838 57.8396 88.2275 60.6738 85.3227 61.2811C84.1743 61.4835 82.9584 61.2811 81.9451 60.7412L78.8377 64.3852C79.4457 65.195 79.851 66.1397 80.0536 67.1519C80.459 68.9064 80.0536 70.6609 79.1079 72.078L83.9717 76.9366C84.5121 76.5317 85.2552 76.2618 86.0658 75.9919ZM86.2684 79.2984V79.4334H86.0658V79.5684H85.9307H85.7956V79.7033H85.6605L85.5254 79.8383H85.3903V79.9732H85.2552V80.1082H85.1201V80.2432H84.985V80.3781H84.8499V80.5131H84.7148V80.6481H84.5796V80.783V80.918H84.4445V81.0529H84.3094V81.1879V81.3229V81.4578H84.1743C83.9717 81.9977 83.9717 82.47 84.0392 83.0099C84.377 84.5619 85.7956 85.5067 87.3493 85.1693C88.903 84.8319 89.8487 83.4148 89.511 81.8627C89.1732 80.4456 87.7546 79.3659 86.2009 79.7033C86.6062 79.2984 86.4036 79.2984 86.2684 79.2984Z" fill="#015581"/>
<path fill-rule="evenodd" clip-rule="evenodd" d="M63.3686 75.1819C66.476 74.8445 69.043 77.1388 69.3808 80.108C69.5834 82.2674 68.435 84.3593 66.6787 85.3715L67.8946 89.6228H68.0297C71.2047 89.2854 74.1094 91.7147 74.4472 95.0212C74.7849 98.1928 72.3531 101.095 69.1781 101.432C65.8681 101.769 62.9633 99.34 62.6931 96.0334C62.4904 93.6716 63.7064 91.3773 65.8005 90.3651L64.4495 86.1138C61.4772 86.3162 58.7751 84.1568 58.4373 81.1877C58.1671 78.2185 60.3288 75.5193 63.3686 75.1819Z" fill="#015581"/>
</g>
<defs>
<clipPath id="clip0_215_18">
<rect width="324" height="102" fill="white"/>
</clipPath>
</defs>
</svg>
